<svg xmlns="http://www.w3.org/2000/svg" width="220" height="190" viewBox="0 0 220 190">
  <rect width="100%" height="100%" fill="#edf1f5"/>
  <g><polygon points="102.5,95.6 98.1,94.7 98.1,93.5" fill="rgb(181,181,189)" stroke="rgba(34,42,48,0.22)" stroke-width="0.35"/>
<polygon points="102.5,95.6 98.1,93.5 98.0,94.1" fill="rgb(211,211,219)" stroke="rgba(34,42,48,0.22)" stroke-width="0.35"/>
<polygon points="102.5,96.8 98.1,94.7 102.5,95.6" fill="rgb(181,181,189)" stroke="rgba(34,42,48,0.22)" stroke-width="0.35"/>
<polygon points="101.5,95.7 98.0,94.1 98.0,90.7" fill="rgb(181,181,189)" stroke="rgba(34,42,48,0.22)" stroke-width="0.35"/>
<polygon points="98.0,94.1 101.5,95.7 102.5,95.6" fill="rgb(211,211,219)" stroke="rgba(34,42,48,0.22)" stroke-width="0.35"/>
<polygon points="98.4,88.9 101.5,92.3 98.0,90.7" fill="rgb(218,218,226)" stroke="rgba(34,42,48,0.22)" stroke-width="0.35"/>
<polygon points="103.2,91.2 98.4,88.9 98.4,86.2" fill="rgb(181,181,189)" stroke="rgba(34,42,48,0.22)" stroke-width="0.35"/>
<polygon points="101.5,92.3 101.5,95.7 98.0,90.7" fill="rgb(181,181,189)" stroke="rgba(34,42,48,0.22)" stroke-width="0.35"/>
<polygon points="98.1,94.7 83.9,103.4 98.1,93.5" fill="rgb(195,195,203)" stroke="rgba(34,42,48,0.22)" stroke-width="0.35"/>
<polygon points="98.4,88.9 103.2,91.2 101.5,92.3" fill="rgb(218,218,226)" stroke="rgba(34,42,48,0.22)" stroke-width="0.35"/>
<polygon points="83.9,102.2 98.0,94.1 98.1,93.5" fill="rgb(211,211,219)" stroke="rgba(34,42,48,0.22)" stroke-width="0.35"/>
<polygon points="98.4,86.2 103.2,88.5 103.2,91.2" fill="rgb(181,181,189)" stroke="rgba(34,42,48,0.22)" stroke-width="0.35"/>
<polygon points="103.2,88.5 98.4,86.2 98.0,86.2" fill="rgb(181,181,189)" stroke="rgba(34,42,48,0.22)" stroke-width="0.35"/>
<polygon points="98.0,94.1 84.8,98.7 98.0,90.7" fill="rgb(195,195,203)" stroke="rgba(34,42,48,0.22)" stroke-width="0.35"/>
<polygon points="83.1,98.1 98.4,88.9 98.0,90.7" fill="rgb(224,224,232)" stroke="rgba(34,42,48,0.22)" stroke-width="0.35"/>
<polygon points="98.0,86.2 101.4,87.8 103.2,88.5" fill="rgb(181,181,189)" stroke="rgba(34,42,48,0.22)" stroke-width="0.35"/>
<polygon points="88.2,104.2 102.5,96.8 102.5,95.6" fill="rgb(195,195,203)" stroke="rgba(34,42,48,0.22)" stroke-width="0.35"/>
<polygon points="101.4,87.8 98.0,86.2 98.0,82.3" fill="rgb(181,181,189)" stroke="rgba(34,42,48,0.22)" stroke-width="0.35"/>
<polygon points="88.2,104.2 102.5,95.6 101.5,95.7" fill="rgb(211,211,219)" stroke="rgba(34,42,48,0.22)" stroke-width="0.35"/>
<polygon points="98.4,88.9 83.1,95.5 98.4,86.2" fill="rgb(195,195,203)" stroke="rgba(34,42,48,0.22)" stroke-width="0.35"/>
<polygon points="103.9,83.0 98.2,80.3 98.2,79.5" fill="rgb(181,181,189)" stroke="rgba(34,42,48,0.22)" stroke-width="0.35"/>
<polygon points="101.5,92.3 88.3,103.7 101.5,95.7" fill="rgb(195,195,203)" stroke="rgba(34,42,48,0.22)" stroke-width="0.35"/>
<polygon points="98.2,80.3 102.5,83.2 98.0,81.1" fill="rgb(211,211,219)" stroke="rgba(34,42,48,0.22)" stroke-width="0.35"/>
<polygon points="102.5,83.8 98.0,81.7 98.0,81.1" fill="rgb(181,181,189)" stroke="rgba(34,42,48,0.22)" stroke-width="0.35"/>
<polygon points="83.9,102.2 98.1,93.5 83.9,103.4" fill="rgb(195,195,203)" stroke="rgba(34,42,48,0.22)" stroke-width="0.35"/>
<polygon points="98.0,81.7 101.4,83.9 98.0,82.3" fill="rgb(211,211,219)" stroke="rgba(34,42,48,0.22)" stroke-width="0.35"/>
<polygon points="101.4,83.9 101.4,87.8 98.0,82.3" fill="rgb(181,181,189)" stroke="rgba(34,42,48,0.22)" stroke-width="0.35"/>
<polygon points="83.1,95.5 98.0,86.2 98.4,86.2" fill="rgb(153,153,161)" stroke="rgba(34,42,48,0.22)" stroke-width="0.35"/>
<polygon points="98.0,94.1 83.9,102.2 84.8,102.1" fill="rgb(211,211,219)" stroke="rgba(34,42,48,0.22)" stroke-width="0.35"/>
<polygon points="98.2,80.3 103.9,83.0 102.5,83.2" fill="rgb(211,211,219)" stroke="rgba(34,42,48,0.22)" stroke-width="0.35"/>
<polygon points="98.0,81.7 102.5,83.8 101.4,83.9" fill="rgb(211,211,219)" stroke="rgba(34,42,48,0.22)" stroke-width="0.35"/>
<polygon points="103.2,91.2 88.3,100.3 101.5,92.3" fill="rgb(158,158,166)" stroke="rgba(34,42,48,0.22)" stroke-width="0.35"/>
<polygon points="98.2,79.5 103.9,82.2 103.9,83.0" fill="rgb(181,181,189)" stroke="rgba(34,42,48,0.22)" stroke-width="0.35"/>
<polygon points="98.0,81.1 102.5,83.2 102.5,83.8" fill="rgb(181,181,189)" stroke="rgba(34,42,48,0.22)" stroke-width="0.35"/>
<polygon points="98.0,94.1 84.8,102.1 84.8,98.7" fill="rgb(195,195,203)" stroke="rgba(34,42,48,0.22)" stroke-width="0.35"/>
<polygon points="165.8,118.5 92.5,83.9 90.3,85.3" fill="rgb(211,211,219)" stroke="rgba(34,42,48,0.22)" stroke-width="0.35"/>
<polygon points="80.2,88.7 96.6,78.1 96.6,78.8" fill="rgb(195,195,203)" stroke="rgba(34,42,48,0.22)" stroke-width="0.35"/>
<polygon points="90.3,89.4 163.6,119.9 90.3,85.3" fill="rgb(181,181,189)" stroke="rgba(34,42,48,0.22)" stroke-width="0.35"/>
<polygon points="96.6,78.1 79.0,86.8 96.4,76.3" fill="rgb(221,221,229)" stroke="rgba(34,42,48,0.22)" stroke-width="0.35"/>
<polygon points="103.2,88.5 88.0,100.4 103.2,91.2" fill="rgb(195,195,203)" stroke="rgba(34,42,48,0.22)" stroke-width="0.35"/>
<polygon points="96.4,76.3 79.0,86.8 96.4,75.1" fill="rgb(195,195,203)" stroke="rgba(34,42,48,0.22)" stroke-width="0.35"/>
<polygon points="83.1,98.1 98.0,90.7 84.8,98.7" fill="rgb(224,224,232)" stroke="rgba(34,42,48,0.22)" stroke-width="0.35"/>
<polygon points="98.0,86.2 84.9,90.2 98.0,82.3" fill="rgb(195,195,203)" stroke="rgba(34,42,48,0.22)" stroke-width="0.35"/>
<polygon points="102.5,96.8 88.2,104.2 88.2,105.5" fill="rgb(195,195,203)" stroke="rgba(34,42,48,0.22)" stroke-width="0.35"/>
<polygon points="83.8,89.8 98.2,80.3 98.0,81.1" fill="rgb(211,211,219)" stroke="rgba(34,42,48,0.22)" stroke-width="0.35"/>
<polygon points="98.2,80.3 82.4,89.1 98.2,79.5" fill="rgb(195,195,203)" stroke="rgba(34,42,48,0.22)" stroke-width="0.35"/>
<polygon points="88.2,104.2 101.5,95.7 88.3,103.7" fill="rgb(211,211,219)" stroke="rgba(34,42,48,0.22)" stroke-width="0.35"/>
<polygon points="98.0,81.7 83.8,89.8 98.0,81.1" fill="rgb(195,195,203)" stroke="rgba(34,42,48,0.22)" stroke-width="0.35"/>
<polygon points="98.4,88.9 83.1,98.1 83.1,95.5" fill="rgb(195,195,203)" stroke="rgba(34,42,48,0.22)" stroke-width="0.35"/>
<polygon points="83.8,90.3 98.0,81.7 98.0,82.3" fill="rgb(211,211,219)" stroke="rgba(34,42,48,0.22)" stroke-width="0.35"/>
<polygon points="79.0,85.6 96.6,74.5 96.4,75.1" fill="rgb(156,156,164)" stroke="rgba(34,42,48,0.22)" stroke-width="0.35"/>
<polygon points="88.0,97.8 103.2,88.5 101.4,87.8" fill="rgb(223,223,231)" stroke="rgba(34,42,48,0.22)" stroke-width="0.35"/>
<polygon points="101.5,92.3 88.3,100.3 88.3,103.7" fill="rgb(195,195,203)" stroke="rgba(34,42,48,0.22)" stroke-width="0.35"/>
<polygon points="101.4,83.9 88.3,95.8 101.4,87.8" fill="rgb(195,195,203)" stroke="rgba(34,42,48,0.22)" stroke-width="0.35"/>
<polygon points="88.2,105.5 83.9,102.2 83.9,103.4" fill="rgb(181,181,189)" stroke="rgba(34,42,48,0.22)" stroke-width="0.35"/>
<polygon points="98.0,86.2 83.1,95.5 84.9,94.2" fill="rgb(153,153,161)" stroke="rgba(34,42,48,0.22)" stroke-width="0.35"/>
<polygon points="83.9,102.2 88.3,103.7 84.8,102.1" fill="rgb(211,211,219)" stroke="rgba(34,42,48,0.22)" stroke-width="0.35"/>
<polygon points="103.2,91.2 88.0,100.4 88.3,100.3" fill="rgb(158,158,166)" stroke="rgba(34,42,48,0.22)" stroke-width="0.35"/>
<polygon points="102.5,83.8 88.3,91.8 101.4,83.9" fill="rgb(211,211,219)" stroke="rgba(34,42,48,0.22)" stroke-width="0.35"/>
<polygon points="98.0,86.2 84.9,94.2 84.9,90.2" fill="rgb(195,195,203)" stroke="rgba(34,42,48,0.22)" stroke-width="0.35"/>
<polygon points="102.5,83.2 88.3,92.4 102.5,83.8" fill="rgb(195,195,203)" stroke="rgba(34,42,48,0.22)" stroke-width="0.35"/>
<polygon points="88.3,103.7 83.9,102.2 88.2,104.2" fill="rgb(211,211,219)" stroke="rgba(34,42,48,0.22)" stroke-width="0.35"/>
<polygon points="83.9,102.2 88.2,105.5 88.2,104.2" fill="rgb(181,181,189)" stroke="rgba(34,42,48,0.22)" stroke-width="0.35"/>
<polygon points="103.9,83.0 88.3,91.9 102.5,83.2" fill="rgb(211,211,219)" stroke="rgba(34,42,48,0.22)" stroke-width="0.35"/>
<polygon points="84.8,102.1 88.3,100.3 84.8,98.7" fill="rgb(181,181,189)" stroke="rgba(34,42,48,0.22)" stroke-width="0.35"/>
<polygon points="88.3,100.3 84.8,102.1 88.3,103.7" fill="rgb(181,181,189)" stroke="rgba(34,42,48,0.22)" stroke-width="0.35"/>
<polygon points="96.6,78.1 80.2,88.7 80.2,88.1" fill="rgb(195,195,203)" stroke="rgba(34,42,48,0.22)" stroke-width="0.35"/>
<polygon points="103.9,82.2 88.1,92.6 103.9,83.0" fill="rgb(195,195,203)" stroke="rgba(34,42,48,0.22)" stroke-width="0.35"/>
<polygon points="92.5,83.9 165.8,102.4 92.5,67.8" fill="rgb(181,181,189)" stroke="rgba(34,42,48,0.22)" stroke-width="0.35"/>
<polygon points="79.0,86.8 96.6,78.1 80.2,88.1" fill="rgb(221,221,229)" stroke="rgba(34,42,48,0.22)" stroke-width="0.35"/>
<polygon points="103.2,88.5 88.0,97.8 88.0,100.4" fill="rgb(195,195,203)" stroke="rgba(34,42,48,0.22)" stroke-width="0.35"/>
<polygon points="146.0,78.5 135.4,77.0 138.6,75.0" fill="rgb(211,211,219)" stroke="rgba(34,42,48,0.22)" stroke-width="0.35"/>
<polygon points="98.2,80.3 83.8,89.8 82.4,89.9" fill="rgb(211,211,219)" stroke="rgba(34,42,48,0.22)" stroke-width="0.35"/>
<polygon points="98.0,81.7 83.8,90.3 83.8,89.8" fill="rgb(195,195,203)" stroke="rgba(34,42,48,0.22)" stroke-width="0.35"/>
<polygon points="83.8,90.3 98.0,82.3 84.9,90.2" fill="rgb(211,211,219)" stroke="rgba(34,42,48,0.22)" stroke-width="0.35"/>
<polygon points="98.2,80.3 82.4,89.9 82.4,89.1" fill="rgb(195,195,203)" stroke="rgba(34,42,48,0.22)" stroke-width="0.35"/>
<polygon points="79.0,85.6 96.4,75.1 79.0,86.8" fill="rgb(195,195,203)" stroke="rgba(34,42,48,0.22)" stroke-width="0.35"/>
<polygon points="88.0,97.8 101.4,87.8 88.3,95.8" fill="rgb(223,223,231)" stroke="rgba(34,42,48,0.22)" stroke-width="0.35"/>
<polygon points="88.0,100.4 83.1,98.1 84.8,98.7" fill="rgb(184,184,192)" stroke="rgba(34,42,48,0.22)" stroke-width="0.35"/>
<polygon points="135.4,77.0 135.4,68.7 138.6,75.0" fill="rgb(195,195,203)" stroke="rgba(34,42,48,0.22)" stroke-width="0.35"/>
<polygon points="88.0,100.4 84.8,98.7 88.3,100.3" fill="rgb(184,184,192)" stroke="rgba(34,42,48,0.22)" stroke-width="0.35"/>
<polygon points="96.6,74.5 79.0,85.6 80.2,84.4" fill="rgb(156,156,164)" stroke="rgba(34,42,48,0.22)" stroke-width="0.35"/>
<polygon points="138.6,75.0 135.4,68.7 138.6,66.8" fill="rgb(195,195,203)" stroke="rgba(34,42,48,0.22)" stroke-width="0.35"/>
<polygon points="101.4,83.9 88.3,91.8 88.3,95.8" fill="rgb(195,195,203)" stroke="rgba(34,42,48,0.22)" stroke-width="0.35"/>
<polygon points="83.1,98.1 88.0,97.8 83.1,95.5" fill="rgb(181,181,189)" stroke="rgba(34,42,48,0.22)" stroke-width="0.35"/>
<polygon points="83.1,95.5 88.3,95.8 84.9,94.2" fill="rgb(217,217,225)" stroke="rgba(34,42,48,0.22)" stroke-width="0.35"/>
<polygon points="142.7,80.4 135.4,77.0 146.0,78.5" fill="rgb(211,211,219)" stroke="rgba(34,42,48,0.22)" stroke-width="0.35"/>
<polygon points="127.6,107.4 123.2,106.6 123.2,105.4" fill="rgb(181,181,189)" stroke="rgba(34,42,48,0.22)" stroke-width="0.35"/>
<polygon points="102.5,83.8 88.3,92.4 88.3,91.8" fill="rgb(211,211,219)" stroke="rgba(34,42,48,0.22)" stroke-width="0.35"/>
<polygon points="88.0,97.8 83.1,98.1 88.0,100.4" fill="rgb(181,181,189)" stroke="rgba(34,42,48,0.22)" stroke-width="0.35"/>
<polygon points="127.6,107.4 123.2,105.4 123.1,105.9" fill="rgb(211,211,219)" stroke="rgba(34,42,48,0.22)" stroke-width="0.35"/>
<polygon points="102.5,83.2 88.3,91.9 88.3,92.4" fill="rgb(195,195,203)" stroke="rgba(34,42,48,0.22)" stroke-width="0.35"/>
<polygon points="127.6,108.7 123.2,106.6 127.6,107.4" fill="rgb(181,181,189)" stroke="rgba(34,42,48,0.22)" stroke-width="0.35"/>
<polygon points="156.3,106.4 96.6,78.8 96.6,78.1" fill="rgb(181,181,189)" stroke="rgba(34,42,48,0.22)" stroke-width="0.35"/>
<polygon points="88.3,95.8 83.1,95.5 88.0,97.8" fill="rgb(217,217,225)" stroke="rgba(34,42,48,0.22)" stroke-width="0.35"/>
<polygon points="103.9,83.0 88.1,92.6 88.3,91.9" fill="rgb(211,211,219)" stroke="rgba(34,42,48,0.22)" stroke-width="0.35"/>
<polygon points="96.4,76.3 157.5,105.2 96.6,78.1" fill="rgb(206,206,214)" stroke="rgba(34,42,48,0.22)" stroke-width="0.35"/>
<polygon points="96.4,75.1 157.5,105.2 96.4,76.3" fill="rgb(181,181,189)" stroke="rgba(34,42,48,0.22)" stroke-width="0.35"/>
<polygon points="84.9,94.2 88.3,91.8 84.9,90.2" fill="rgb(181,181,189)" stroke="rgba(34,42,48,0.22)" stroke-width="0.35"/>
<polygon points="88.3,91.8 84.9,94.2 88.3,95.8" fill="rgb(181,181,189)" stroke="rgba(34,42,48,0.22)" stroke-width="0.35"/>
<polygon points="126.6,107.5 123.1,105.9 123.1,102.5" fill="rgb(181,181,189)" stroke="rgba(34,42,48,0.22)" stroke-width="0.35"/>
<polygon points="92.5,67.8 164.4,101.8 91.1,67.2" fill="rgb(178,178,186)" stroke="rgba(34,42,48,0.22)" stroke-width="0.35"/>
<polygon points="123.1,105.9 126.6,107.5 127.6,107.4" fill="rgb(211,211,219)" stroke="rgba(34,42,48,0.22)" stroke-width="0.35"/>
<polygon points="91.1,66.7 166.0,100.4 92.7,65.7" fill="rgb(211,211,219)" stroke="rgba(34,42,48,0.22)" stroke-width="0.35"/>
<polygon points="103.9,82.2 88.1,91.8 88.1,92.6" fill="rgb(195,195,203)" stroke="rgba(34,42,48,0.22)" stroke-width="0.35"/>
<polygon points="157.5,103.9 96.4,75.1 96.6,74.5" fill="rgb(150,150,158)" stroke="rgba(34,42,48,0.22)" stroke-width="0.35"/>
<polygon points="135.4,77.0 142.7,72.2 135.4,68.7" fill="rgb(181,181,189)" stroke="rgba(34,42,48,0.22)" stroke-width="0.35"/>
<polygon points="91.1,67.2 164.4,101.3 91.1,66.7" fill="rgb(181,181,189)" stroke="rgba(34,42,48,0.22)" stroke-width="0.35"/>
<polygon points="88.3,92.4 83.8,90.3 84.9,90.2" fill="rgb(211,211,219)" stroke="rgba(34,42,48,0.22)" stroke-width="0.35"/>
<polygon points="142.7,72.2 135.4,77.0 142.7,80.4" fill="rgb(181,181,189)" stroke="rgba(34,42,48,0.22)" stroke-width="0.35"/>
<polygon points="123.5,100.8 126.6,104.2 123.1,102.5" fill="rgb(218,218,226)" stroke="rgba(34,42,48,0.22)" stroke-width="0.35"/>
<polygon points="83.8,90.3 88.3,91.9 83.8,89.8" fill="rgb(181,181,189)" stroke="rgba(34,42,48,0.22)" stroke-width="0.35"/>
<polygon points="128.3,103.0 123.5,100.8 123.5,98.1" fill="rgb(181,181,189)" stroke="rgba(34,42,48,0.22)" stroke-width="0.35"/>
<polygon points="126.6,104.2 126.6,107.5 123.1,102.5" fill="rgb(181,181,189)" stroke="rgba(34,42,48,0.22)" stroke-width="0.35"/>
<polygon points="123.2,106.6 109.0,115.3 123.2,105.4" fill="rgb(195,195,203)" stroke="rgba(34,42,48,0.22)" stroke-width="0.35"/>
<polygon points="142.7,72.2 138.6,66.8 135.4,68.7" fill="rgb(211,211,219)" stroke="rgba(34,42,48,0.22)" stroke-width="0.35"/>
<polygon points="88.3,92.4 84.9,90.2 88.3,91.8" fill="rgb(211,211,219)" stroke="rgba(34,42,48,0.22)" stroke-width="0.35"/>
<polygon points="146.0,78.5 142.7,72.2 142.7,80.4" fill="rgb(195,195,203)" stroke="rgba(34,42,48,0.22)" stroke-width="0.35"/>
<polygon points="88.1,92.6 82.4,89.9 83.8,89.8" fill="rgb(211,211,219)" stroke="rgba(34,42,48,0.22)" stroke-width="0.35"/>
<polygon points="123.5,100.8 128.3,103.0 126.6,104.2" fill="rgb(218,218,226)" stroke="rgba(34,42,48,0.22)" stroke-width="0.35"/>
<polygon points="88.3,91.9 83.8,90.3 88.3,92.4" fill="rgb(181,181,189)" stroke="rgba(34,42,48,0.22)" stroke-width="0.35"/>
<polygon points="82.4,89.9 88.1,91.8 82.4,89.1" fill="rgb(181,181,189)" stroke="rgba(34,42,48,0.22)" stroke-width="0.35"/>
<polygon points="109.0,114.0 123.1,105.9 123.2,105.4" fill="rgb(211,211,219)" stroke="rgba(34,42,48,0.22)" stroke-width="0.35"/>
<polygon points="138.6,66.8 142.7,72.2 146.0,70.2" fill="rgb(211,211,219)" stroke="rgba(34,42,48,0.22)" stroke-width="0.35"/>
<polygon points="142.7,72.2 146.0,78.5 146.0,70.2" fill="rgb(195,195,203)" stroke="rgba(34,42,48,0.22)" stroke-width="0.35"/>
<polygon points="88.1,92.6 83.8,89.8 88.3,91.9" fill="rgb(211,211,219)" stroke="rgba(34,42,48,0.22)" stroke-width="0.35"/>
<polygon points="123.5,98.1 128.3,100.4 128.3,103.0" fill="rgb(181,181,189)" stroke="rgba(34,42,48,0.22)" stroke-width="0.35"/>
<polygon points="126.5,99.7 123.5,98.1 123.1,98.1" fill="rgb(181,181,189)" stroke="rgba(34,42,48,0.22)" stroke-width="0.35"/>
<polygon points="88.1,91.8 82.4,89.9 88.1,92.6" fill="rgb(181,181,189)" stroke="rgba(34,42,48,0.22)" stroke-width="0.35"/>
<polygon points="123.1,105.9 109.9,110.5 123.1,102.5" fill="rgb(195,195,203)" stroke="rgba(34,42,48,0.22)" stroke-width="0.35"/>
<polygon points="123.5,98.1 126.5,99.7 128.3,100.4" fill="rgb(181,181,189)" stroke="rgba(34,42,48,0.22)" stroke-width="0.35"/>
<polygon points="108.2,110.0 123.5,100.8 123.1,102.5" fill="rgb(224,224,232)" stroke="rgba(34,42,48,0.22)" stroke-width="0.35"/>
<polygon points="113.3,116.1 127.6,108.7 127.6,107.4" fill="rgb(195,195,203)" stroke="rgba(34,42,48,0.22)" stroke-width="0.35"/>
<polygon points="126.5,99.7 123.1,98.1 123.1,94.2" fill="rgb(181,181,189)" stroke="rgba(34,42,48,0.22)" stroke-width="0.35"/>
<polygon points="113.3,116.1 127.6,107.4 126.6,107.5" fill="rgb(211,211,219)" stroke="rgba(34,42,48,0.22)" stroke-width="0.35"/>
<polygon points="123.5,100.8 108.2,107.3 123.5,98.1" fill="rgb(195,195,203)" stroke="rgba(34,42,48,0.22)" stroke-width="0.35"/>
<polygon points="129.0,94.9 123.3,92.2 123.3,91.4" fill="rgb(181,181,189)" stroke="rgba(34,42,48,0.22)" stroke-width="0.35"/>
<polygon points="126.6,104.2 113.4,115.6 126.6,107.5" fill="rgb(195,195,203)" stroke="rgba(34,42,48,0.22)" stroke-width="0.35"/>
<polygon points="123.3,92.2 127.6,95.1 123.2,93.0" fill="rgb(211,211,219)" stroke="rgba(34,42,48,0.22)" stroke-width="0.35"/>
<polygon points="127.6,95.7 123.2,93.6 123.2,93.0" fill="rgb(181,181,189)" stroke="rgba(34,42,48,0.22)" stroke-width="0.35"/>
<polygon points="109.0,114.0 123.2,105.4 109.0,115.3" fill="rgb(195,195,203)" stroke="rgba(34,42,48,0.22)" stroke-width="0.35"/>
<polygon points="123.2,93.6 126.5,95.8 123.1,94.2" fill="rgb(211,211,219)" stroke="rgba(34,42,48,0.22)" stroke-width="0.35"/>
<polygon points="126.5,95.8 126.5,99.7 123.1,94.2" fill="rgb(181,181,189)" stroke="rgba(34,42,48,0.22)" stroke-width="0.35"/>
<polygon points="163.6,119.9 90.3,89.4 163.6,124.0" fill="rgb(181,181,189)" stroke="rgba(34,42,48,0.22)" stroke-width="0.35"/>
<polygon points="108.2,107.3 123.1,98.1 123.5,98.1" fill="rgb(153,153,161)" stroke="rgba(34,42,48,0.22)" stroke-width="0.35"/>
<polygon points="123.1,105.9 109.0,114.0 109.9,113.9" fill="rgb(211,211,219)" stroke="rgba(34,42,48,0.22)" stroke-width="0.35"/>
<polygon points="123.3,92.2 129.0,94.9 127.6,95.1" fill="rgb(211,211,219)" stroke="rgba(34,42,48,0.22)" stroke-width="0.35"/>
<polygon points="123.2,93.6 127.6,95.7 126.5,95.8" fill="rgb(211,211,219)" stroke="rgba(34,42,48,0.22)" stroke-width="0.35"/>
<polygon points="128.3,103.0 113.4,112.2 126.6,104.2" fill="rgb(158,158,166)" stroke="rgba(34,42,48,0.22)" stroke-width="0.35"/>
<polygon points="123.3,91.4 129.0,94.1 129.0,94.9" fill="rgb(181,181,189)" stroke="rgba(34,42,48,0.22)" stroke-width="0.35"/>
<polygon points="123.2,93.0 127.6,95.1 127.6,95.7" fill="rgb(181,181,189)" stroke="rgba(34,42,48,0.22)" stroke-width="0.35"/>
<polygon points="123.1,105.9 109.9,113.9 109.9,110.5" fill="rgb(195,195,203)" stroke="rgba(34,42,48,0.22)" stroke-width="0.35"/>
<polygon points="90.3,85.3 163.6,119.9 165.8,118.5" fill="rgb(211,211,219)" stroke="rgba(34,42,48,0.22)" stroke-width="0.35"/>
<polygon points="128.3,100.4 113.1,112.3 128.3,103.0" fill="rgb(195,195,203)" stroke="rgba(34,42,48,0.22)" stroke-width="0.35"/>
<polygon points="108.2,110.0 123.1,102.5 109.9,110.5" fill="rgb(224,224,232)" stroke="rgba(34,42,48,0.22)" stroke-width="0.35"/>
<polygon points="123.1,98.1 110.0,102.1 123.1,94.2" fill="rgb(195,195,203)" stroke="rgba(34,42,48,0.22)" stroke-width="0.35"/>
<polygon points="96.6,78.8 140.0,116.9 80.2,88.7" fill="rgb(211,211,219)" stroke="rgba(34,42,48,0.22)" stroke-width="0.35"/>
<polygon points="127.6,108.7 113.3,116.1 113.3,117.3" fill="rgb(195,195,203)" stroke="rgba(34,42,48,0.22)" stroke-width="0.35"/>
<polygon points="108.9,101.6 123.3,92.2 123.2,93.0" fill="rgb(211,211,219)" stroke="rgba(34,42,48,0.22)" stroke-width="0.35"/>
<polygon points="123.3,92.2 107.5,101.0 123.3,91.4" fill="rgb(195,195,203)" stroke="rgba(34,42,48,0.22)" stroke-width="0.35"/>
<polygon points="113.3,116.1 126.6,107.5 113.4,115.6" fill="rgb(211,211,219)" stroke="rgba(34,42,48,0.22)" stroke-width="0.35"/>
<polygon points="123.2,93.6 108.9,101.6 123.2,93.0" fill="rgb(195,195,203)" stroke="rgba(34,42,48,0.22)" stroke-width="0.35"/>
<polygon points="123.5,100.8 108.2,110.0 108.2,107.3" fill="rgb(195,195,203)" stroke="rgba(34,42,48,0.22)" stroke-width="0.35"/>
<polygon points="165.8,102.4 92.5,83.9 165.8,118.5" fill="rgb(181,181,189)" stroke="rgba(34,42,48,0.22)" stroke-width="0.35"/>
<polygon points="108.9,102.2 123.2,93.6 123.1,94.2" fill="rgb(211,211,219)" stroke="rgba(34,42,48,0.22)" stroke-width="0.35"/>
<polygon points="113.1,109.6 128.3,100.4 126.5,99.7" fill="rgb(223,223,231)" stroke="rgba(34,42,48,0.22)" stroke-width="0.35"/>
<polygon points="126.6,104.2 113.4,112.2 113.4,115.6" fill="rgb(195,195,203)" stroke="rgba(34,42,48,0.22)" stroke-width="0.35"/>
<polygon points="126.5,95.8 113.4,107.6 126.5,99.7" fill="rgb(195,195,203)" stroke="rgba(34,42,48,0.22)" stroke-width="0.35"/>
<polygon points="113.3,117.3 109.0,114.0 109.0,115.3" fill="rgb(181,181,189)" stroke="rgba(34,42,48,0.22)" stroke-width="0.35"/>
<polygon points="123.1,98.1 108.2,107.3 110.0,106.0" fill="rgb(153,153,161)" stroke="rgba(34,42,48,0.22)" stroke-width="0.35"/>
<polygon points="140.0,112.6 96.6,74.5 80.2,84.4" fill="rgb(211,211,219)" stroke="rgba(34,42,48,0.22)" stroke-width="0.35"/>
<polygon points="113.3,116.1 109.9,113.9 109.0,114.0" fill="rgb(211,211,219)" stroke="rgba(34,42,48,0.22)" stroke-width="0.35"/>
<polygon points="128.3,103.0 113.1,112.3 113.4,112.2" fill="rgb(158,158,166)" stroke="rgba(34,42,48,0.22)" stroke-width="0.35"/>
<polygon points="127.6,95.7 113.4,103.7 126.5,95.8" fill="rgb(211,211,219)" stroke="rgba(34,42,48,0.22)" stroke-width="0.35"/>
<polygon points="123.1,98.1 110.0,106.0 110.0,102.1" fill="rgb(195,195,203)" stroke="rgba(34,42,48,0.22)" stroke-width="0.35"/>
<polygon points="127.6,95.1 113.4,104.3 127.6,95.7" fill="rgb(195,195,203)" stroke="rgba(34,42,48,0.22)" stroke-width="0.35"/>
<polygon points="109.9,113.9 113.3,116.1 113.4,115.6" fill="rgb(211,211,219)" stroke="rgba(34,42,48,0.22)" stroke-width="0.35"/>
<polygon points="113.3,116.1 109.0,114.0 113.3,117.3" fill="rgb(181,181,189)" stroke="rgba(34,42,48,0.22)" stroke-width="0.35"/>
<polygon points="129.0,94.9 113.4,103.7 127.6,95.1" fill="rgb(211,211,219)" stroke="rgba(34,42,48,0.22)" stroke-width="0.35"/>
<polygon points="109.9,113.9 113.4,112.2 109.9,110.5" fill="rgb(181,181,189)" stroke="rgba(34,42,48,0.22)" stroke-width="0.35"/>
<polygon points="113.4,112.2 109.9,113.9 113.4,115.6" fill="rgb(181,181,189)" stroke="rgba(34,42,48,0.22)" stroke-width="0.35"/>
<polygon points="129.0,94.1 113.2,104.5 129.0,94.9" fill="rgb(195,195,203)" stroke="rgba(34,42,48,0.22)" stroke-width="0.35"/>
<polygon points="156.3,107.0 96.6,78.8 156.3,106.4" fill="rgb(181,181,189)" stroke="rgba(34,42,48,0.22)" stroke-width="0.35"/>
<polygon points="128.3,100.4 113.1,109.6 113.1,112.3" fill="rgb(195,195,203)" stroke="rgba(34,42,48,0.22)" stroke-width="0.35"/>
<polygon points="123.3,92.2 108.9,101.6 107.5,101.8" fill="rgb(211,211,219)" stroke="rgba(34,42,48,0.22)" stroke-width="0.35"/>
<polygon points="123.2,93.6 108.9,102.2 108.9,101.6" fill="rgb(195,195,203)" stroke="rgba(34,42,48,0.22)" stroke-width="0.35"/>
<polygon points="108.9,102.2 123.1,94.2 110.0,102.1" fill="rgb(211,211,219)" stroke="rgba(34,42,48,0.22)" stroke-width="0.35"/>
<polygon points="123.3,92.2 107.5,101.8 107.5,101.0" fill="rgb(195,195,203)" stroke="rgba(34,42,48,0.22)" stroke-width="0.35"/>
<polygon points="96.6,78.1 157.5,105.2 156.3,106.4" fill="rgb(206,206,214)" stroke="rgba(34,42,48,0.22)" stroke-width="0.35"/>
<polygon points="113.1,109.6 126.5,99.7 113.4,107.6" fill="rgb(223,223,231)" stroke="rgba(34,42,48,0.22)" stroke-width="0.35"/>
<polygon points="92.7,65.7 166.0,64.6 92.7,30.0" fill="rgb(181,181,189)" stroke="rgba(34,42,48,0.22)" stroke-width="0.35"/>
<polygon points="80.2,88.7 140.0,116.3 80.2,88.1" fill="rgb(181,181,189)" stroke="rgba(34,42,48,0.22)" stroke-width="0.35"/>
<polygon points="113.1,112.3 108.2,110.0 109.9,110.5" fill="rgb(184,184,192)" stroke="rgba(34,42,48,0.22)" stroke-width="0.35"/>
<polygon points="157.5,105.2 96.4,75.1 157.5,103.9" fill="rgb(181,181,189)" stroke="rgba(34,42,48,0.22)" stroke-width="0.35"/>
<polygon points="113.1,112.3 109.9,110.5 113.4,112.2" fill="rgb(184,184,192)" stroke="rgba(34,42,48,0.22)" stroke-width="0.35"/>
<polygon points="80.2,88.1 140.2,115.7 79.0,86.8" fill="rgb(150,150,158)" stroke="rgba(34,42,48,0.22)" stroke-width="0.35"/>
<polygon points="126.5,95.8 113.4,103.7 113.4,107.6" fill="rgb(195,195,203)" stroke="rgba(34,42,48,0.22)" stroke-width="0.35"/>
<polygon points="96.6,74.5 156.3,102.7 157.5,103.9" fill="rgb(150,150,158)" stroke="rgba(34,42,48,0.22)" stroke-width="0.35"/>
<polygon points="140.2,115.7 79.0,85.6 79.0,86.8" fill="rgb(181,181,189)" stroke="rgba(34,42,48,0.22)" stroke-width="0.35"/>
<polygon points="108.2,110.0 113.1,109.6 108.2,107.3" fill="rgb(181,181,189)" stroke="rgba(34,42,48,0.22)" stroke-width="0.35"/>
<polygon points="108.2,107.3 113.4,107.6 110.0,106.0" fill="rgb(217,217,225)" stroke="rgba(34,42,48,0.22)" stroke-width="0.35"/>
<polygon points="152.7,119.3 148.3,118.5 148.3,117.2" fill="rgb(181,181,189)" stroke="rgba(34,42,48,0.22)" stroke-width="0.35"/>
<polygon points="127.6,95.7 113.4,104.3 113.4,103.7" fill="rgb(211,211,219)" stroke="rgba(34,42,48,0.22)" stroke-width="0.35"/>
<polygon points="140.2,114.5 80.2,84.4 79.0,85.6" fill="rgb(206,206,214)" stroke="rgba(34,42,48,0.22)" stroke-width="0.35"/>
<polygon points="113.1,109.6 108.2,110.0 113.1,112.3" fill="rgb(181,181,189)" stroke="rgba(34,42,48,0.22)" stroke-width="0.35"/>
<polygon points="164.4,101.8 92.5,67.8 165.8,102.4" fill="rgb(178,178,186)" stroke="rgba(34,42,48,0.22)" stroke-width="0.35"/>
<polygon points="152.7,119.3 148.3,117.2 148.2,117.8" fill="rgb(211,211,219)" stroke="rgba(34,42,48,0.22)" stroke-width="0.35"/>
<polygon points="127.6,95.1 113.4,103.7 113.4,104.3" fill="rgb(195,195,203)" stroke="rgba(34,42,48,0.22)" stroke-width="0.35"/>
<polygon points="152.7,120.5 148.3,118.5 152.7,119.3" fill="rgb(181,181,189)" stroke="rgba(34,42,48,0.22)" stroke-width="0.35"/>
<polygon points="113.4,107.6 108.2,107.3 113.1,109.6" fill="rgb(217,217,225)" stroke="rgba(34,42,48,0.22)" stroke-width="0.35"/>
<polygon points="129.0,94.9 113.2,104.5 113.4,103.7" fill="rgb(211,211,219)" stroke="rgba(34,42,48,0.22)" stroke-width="0.35"/>
<polygon points="110.0,106.0 113.4,103.7 110.0,102.1" fill="rgb(181,181,189)" stroke="rgba(34,42,48,0.22)" stroke-width="0.35"/>
<polygon points="113.4,103.7 110.0,106.0 113.4,107.6" fill="rgb(181,181,189)" stroke="rgba(34,42,48,0.22)" stroke-width="0.35"/>
<polygon points="151.7,119.4 148.2,117.8 148.2,114.4" fill="rgb(181,181,189)" stroke="rgba(34,42,48,0.22)" stroke-width="0.35"/>
<polygon points="148.2,117.8 151.7,119.4 152.7,119.3" fill="rgb(211,211,219)" stroke="rgba(34,42,48,0.22)" stroke-width="0.35"/>
<polygon points="166.0,100.4 91.1,66.7 164.4,101.3" fill="rgb(211,211,219)" stroke="rgba(34,42,48,0.22)" stroke-width="0.35"/>
<polygon points="129.0,94.1 113.2,103.7 113.2,104.5" fill="rgb(195,195,203)" stroke="rgba(34,42,48,0.22)" stroke-width="0.35"/>
<polygon points="140.0,116.9 96.6,78.8 156.3,107.0" fill="rgb(211,211,219)" stroke="rgba(34,42,48,0.22)" stroke-width="0.35"/>
<polygon points="164.4,101.3 91.1,67.2 164.4,101.8" fill="rgb(181,181,189)" stroke="rgba(34,42,48,0.22)" stroke-width="0.35"/>
<polygon points="114.3,153.9 90.3,89.4 41.1,119.3" fill="rgb(211,211,219)" stroke="rgba(34,42,48,0.22)" stroke-width="0.35"/>
<polygon points="113.4,103.7 108.9,102.2 110.0,102.1" fill="rgb(211,211,219)" stroke="rgba(34,42,48,0.22)" stroke-width="0.35"/>
<polygon points="153.4,114.9 148.2,114.4 148.6,112.6" fill="rgb(218,218,226)" stroke="rgba(34,42,48,0.22)" stroke-width="0.35"/>
<polygon points="108.9,102.2 113.4,103.7 108.9,101.6" fill="rgb(181,181,189)" stroke="rgba(34,42,48,0.22)" stroke-width="0.35"/>
<polygon points="153.4,114.9 148.6,112.6 148.6,110.0" fill="rgb(181,181,189)" stroke="rgba(34,42,48,0.22)" stroke-width="0.35"/>
<polygon points="151.7,116.0 151.7,119.4 148.2,114.4" fill="rgb(181,181,189)" stroke="rgba(34,42,48,0.22)" stroke-width="0.35"/>
<polygon points="148.3,118.5 134.1,127.1 148.3,117.2" fill="rgb(195,195,203)" stroke="rgba(34,42,48,0.22)" stroke-width="0.35"/>
<polygon points="108.9,102.2 113.4,103.7 113.4,104.3" fill="rgb(211,211,219)" stroke="rgba(34,42,48,0.22)" stroke-width="0.35"/>
<polygon points="113.2,104.5 107.5,101.8 108.9,101.6" fill="rgb(211,211,219)" stroke="rgba(34,42,48,0.22)" stroke-width="0.35"/>
<polygon points="148.2,114.4 153.4,114.9 151.7,116.0" fill="rgb(218,218,226)" stroke="rgba(34,42,48,0.22)" stroke-width="0.35"/>
<polygon points="113.4,103.7 108.9,102.2 113.4,104.3" fill="rgb(181,181,189)" stroke="rgba(34,42,48,0.22)" stroke-width="0.35"/>
<polygon points="107.5,101.8 113.2,103.7 107.5,101.0" fill="rgb(181,181,189)" stroke="rgba(34,42,48,0.22)" stroke-width="0.35"/>
<polygon points="134.1,125.9 148.2,117.8 148.3,117.2" fill="rgb(211,211,219)" stroke="rgba(34,42,48,0.22)" stroke-width="0.35"/>
<polygon points="113.2,104.5 108.9,101.6 113.4,103.7" fill="rgb(211,211,219)" stroke="rgba(34,42,48,0.22)" stroke-width="0.35"/>
<polygon points="114.3,153.9 163.6,124.0 90.3,89.4" fill="rgb(211,211,219)" stroke="rgba(34,42,48,0.22)" stroke-width="0.35"/>
<polygon points="156.3,102.7 96.6,74.5 140.0,112.6" fill="rgb(211,211,219)" stroke="rgba(34,42,48,0.22)" stroke-width="0.35"/>
<polygon points="148.6,110.0 153.4,112.2 153.4,114.9" fill="rgb(181,181,189)" stroke="rgba(34,42,48,0.22)" stroke-width="0.35"/>
<polygon points="153.4,112.2 148.6,110.0 148.2,109.9" fill="rgb(181,181,189)" stroke="rgba(34,42,48,0.22)" stroke-width="0.35"/>
<polygon points="113.2,103.7 107.5,101.8 113.2,104.5" fill="rgb(181,181,189)" stroke="rgba(34,42,48,0.22)" stroke-width="0.35"/>
<polygon points="148.2,117.8 135.1,122.4 148.2,114.4" fill="rgb(195,195,203)" stroke="rgba(34,42,48,0.22)" stroke-width="0.35"/>
<polygon points="92.7,30.0 165.2,65.1 91.9,30.5" fill="rgb(211,211,219)" stroke="rgba(34,42,48,0.22)" stroke-width="0.35"/>
<polygon points="91.9,30.5 165.2,64.1 91.9,29.4" fill="rgb(181,181,189)" stroke="rgba(34,42,48,0.22)" stroke-width="0.35"/>
<polygon points="133.4,121.9 148.6,112.6 148.2,114.4" fill="rgb(224,224,232)" stroke="rgba(34,42,48,0.22)" stroke-width="0.35"/>
<polygon points="148.2,109.9 151.6,111.6 153.4,112.2" fill="rgb(181,181,189)" stroke="rgba(34,42,48,0.22)" stroke-width="0.35"/>
<polygon points="138.4,128.0 152.7,120.5 152.7,119.3" fill="rgb(195,195,203)" stroke="rgba(34,42,48,0.22)" stroke-width="0.35"/>
<polygon points="151.6,111.6 148.2,109.9 148.2,106.0" fill="rgb(181,181,189)" stroke="rgba(34,42,48,0.22)" stroke-width="0.35"/>
<polygon points="138.4,128.0 152.7,119.3 151.7,119.4" fill="rgb(211,211,219)" stroke="rgba(34,42,48,0.22)" stroke-width="0.35"/>
<polygon points="148.6,112.6 133.4,119.2 148.6,110.0" fill="rgb(195,195,203)" stroke="rgba(34,42,48,0.22)" stroke-width="0.35"/>
<polygon points="154.1,106.8 148.4,104.1 148.4,103.2" fill="rgb(181,181,189)" stroke="rgba(34,42,48,0.22)" stroke-width="0.35"/>
<polygon points="151.7,116.0 138.5,127.4 151.7,119.4" fill="rgb(195,195,203)" stroke="rgba(34,42,48,0.22)" stroke-width="0.35"/>
<polygon points="165.2,64.1 90.3,28.4 91.9,29.4" fill="rgb(171,171,179)" stroke="rgba(34,42,48,0.22)" stroke-width="0.35"/>
<polygon points="148.4,104.1 152.7,106.9 148.3,104.8" fill="rgb(211,211,219)" stroke="rgba(34,42,48,0.22)" stroke-width="0.35"/>
<polygon points="152.7,107.5 148.3,105.4 148.3,104.8" fill="rgb(181,181,189)" stroke="rgba(34,42,48,0.22)" stroke-width="0.35"/>
<polygon points="134.1,125.9 148.3,117.2 134.1,127.1" fill="rgb(195,195,203)" stroke="rgba(34,42,48,0.22)" stroke-width="0.35"/>
<polygon points="148.3,105.4 151.6,107.6 148.2,106.0" fill="rgb(211,211,219)" stroke="rgba(34,42,48,0.22)" stroke-width="0.35"/>
<polygon points="166.0,64.6 92.7,65.7 166.0,100.4" fill="rgb(181,181,189)" stroke="rgba(34,42,48,0.22)" stroke-width="0.35"/>
<polygon points="151.6,107.6 151.6,111.6 148.2,106.0" fill="rgb(181,181,189)" stroke="rgba(34,42,48,0.22)" stroke-width="0.35"/>
<polygon points="133.4,119.2 148.2,109.9 148.6,110.0" fill="rgb(153,153,161)" stroke="rgba(34,42,48,0.22)" stroke-width="0.35"/>
<polygon points="148.2,117.8 134.1,125.9 135.1,125.8" fill="rgb(211,211,219)" stroke="rgba(34,42,48,0.22)" stroke-width="0.35"/>
<polygon points="91.9,25.3 166.0,59.4 92.7,24.8" fill="rgb(211,211,219)" stroke="rgba(34,42,48,0.22)" stroke-width="0.35"/>
<polygon points="148.4,104.1 154.1,106.8 152.7,106.9" fill="rgb(211,211,219)" stroke="rgba(34,42,48,0.22)" stroke-width="0.35"/>
<polygon points="148.3,105.4 152.7,107.5 151.6,107.6" fill="rgb(211,211,219)" stroke="rgba(34,42,48,0.22)" stroke-width="0.35"/>
<polygon points="153.4,114.9 138.5,124.0 151.7,116.0" fill="rgb(158,158,166)" stroke="rgba(34,42,48,0.22)" stroke-width="0.35"/>
<polygon points="148.4,103.2 154.1,105.9 154.1,106.8" fill="rgb(181,181,189)" stroke="rgba(34,42,48,0.22)" stroke-width="0.35"/>
<polygon points="91.9,26.4 165.2,59.9 91.9,25.3" fill="rgb(181,181,189)" stroke="rgba(34,42,48,0.22)" stroke-width="0.35"/>
<polygon points="148.3,104.8 152.7,106.9 152.7,107.5" fill="rgb(181,181,189)" stroke="rgba(34,42,48,0.22)" stroke-width="0.35"/>
<polygon points="148.2,117.8 135.1,125.8 135.1,122.4" fill="rgb(195,195,203)" stroke="rgba(34,42,48,0.22)" stroke-width="0.35"/>
<polygon points="89.5,27.8 165.2,61.0 91.9,26.4" fill="rgb(211,211,219)" stroke="rgba(34,42,48,0.22)" stroke-width="0.35"/>
<polygon points="92.7,24.8 166.0,56.5 92.7,21.9" fill="rgb(181,181,189)" stroke="rgba(34,42,48,0.22)" stroke-width="0.35"/>
<polygon points="90.3,28.4 162.8,63.5 89.5,28.9" fill="rgb(211,211,219)" stroke="rgba(34,42,48,0.22)" stroke-width="0.35"/>
<polygon points="153.4,112.2 138.2,124.1 153.4,114.9" fill="rgb(195,195,203)" stroke="rgba(34,42,48,0.22)" stroke-width="0.35"/>
<polygon points="89.5,28.9 162.8,62.4 89.5,27.8" fill="rgb(181,181,189)" stroke="rgba(34,42,48,0.22)" stroke-width="0.35"/>
<polygon points="133.4,121.9 148.2,114.4 135.1,122.4" fill="rgb(224,224,232)" stroke="rgba(34,42,48,0.22)" stroke-width="0.35"/>
<polygon points="148.2,109.9 135.1,113.9 148.2,106.0" fill="rgb(195,195,203)" stroke="rgba(34,42,48,0.22)" stroke-width="0.35"/>
<polygon points="152.7,120.5 138.4,128.0 138.4,129.2" fill="rgb(195,195,203)" stroke="rgba(34,42,48,0.22)" stroke-width="0.35"/>
<polygon points="134.0,113.5 148.4,104.1 148.3,104.8" fill="rgb(211,211,219)" stroke="rgba(34,42,48,0.22)" stroke-width="0.35"/>
<polygon points="148.4,104.1 132.6,112.8 148.4,103.2" fill="rgb(195,195,203)" stroke="rgba(34,42,48,0.22)" stroke-width="0.35"/>
<polygon points="138.4,128.0 151.7,119.4 138.5,127.4" fill="rgb(211,211,219)" stroke="rgba(34,42,48,0.22)" stroke-width="0.35"/>
<polygon points="148.3,105.4 134.0,113.5 148.3,104.8" fill="rgb(195,195,203)" stroke="rgba(34,42,48,0.22)" stroke-width="0.35"/>
<polygon points="148.6,112.6 133.4,121.9 133.4,119.2" fill="rgb(195,195,203)" stroke="rgba(34,42,48,0.22)" stroke-width="0.35"/>
<polygon points="134.0,114.1 148.3,105.4 148.2,106.0" fill="rgb(211,211,219)" stroke="rgba(34,42,48,0.22)" stroke-width="0.35"/>
<polygon points="138.2,121.5 153.4,112.2 151.6,111.6" fill="rgb(223,223,231)" stroke="rgba(34,42,48,0.22)" stroke-width="0.35"/>
<polygon points="151.7,116.0 138.5,124.0 138.5,127.4" fill="rgb(195,195,203)" stroke="rgba(34,42,48,0.22)" stroke-width="0.35"/>
<polygon points="140.0,116.3 80.2,88.7 140.0,116.9" fill="rgb(181,181,189)" stroke="rgba(34,42,48,0.22)" stroke-width="0.35"/>
<polygon points="151.6,107.6 138.5,119.5 151.6,111.6" fill="rgb(195,195,203)" stroke="rgba(34,42,48,0.22)" stroke-width="0.35"/>
<polygon points="140.2,115.7 80.2,88.1 140.0,116.3" fill="rgb(150,150,158)" stroke="rgba(34,42,48,0.22)" stroke-width="0.35"/>
<polygon points="138.4,129.2 134.1,125.9 134.1,127.1" fill="rgb(181,181,189)" stroke="rgba(34,42,48,0.22)" stroke-width="0.35"/>
<polygon points="148.2,109.9 133.4,119.2 135.1,117.9" fill="rgb(153,153,161)" stroke="rgba(34,42,48,0.22)" stroke-width="0.35"/>
<polygon points="138.4,128.0 135.1,125.8 134.1,125.9" fill="rgb(211,211,219)" stroke="rgba(34,42,48,0.22)" stroke-width="0.35"/>
<polygon points="153.4,114.9 138.2,124.1 138.5,124.0" fill="rgb(158,158,166)" stroke="rgba(34,42,48,0.22)" stroke-width="0.35"/>
<polygon points="152.7,107.5 138.5,115.6 151.6,107.6" fill="rgb(211,211,219)" stroke="rgba(34,42,48,0.22)" stroke-width="0.35"/>
<polygon points="148.2,109.9 135.1,117.9 135.1,113.9" fill="rgb(195,195,203)" stroke="rgba(34,42,48,0.22)" stroke-width="0.35"/>
<polygon points="152.7,106.9 138.5,116.2 152.7,107.5" fill="rgb(195,195,203)" stroke="rgba(34,42,48,0.22)" stroke-width="0.35"/>
<polygon points="135.1,125.8 138.4,128.0 138.5,127.4" fill="rgb(211,211,219)" stroke="rgba(34,42,48,0.22)" stroke-width="0.35"/>
<polygon points="140.2,114.5 79.0,85.6 140.2,115.7" fill="rgb(181,181,189)" stroke="rgba(34,42,48,0.22)" stroke-width="0.35"/>
<polygon points="138.4,128.0 134.1,125.9 138.4,129.2" fill="rgb(181,181,189)" stroke="rgba(34,42,48,0.22)" stroke-width="0.35"/>
<polygon points="154.1,106.8 138.5,115.6 152.7,106.9" fill="rgb(211,211,219)" stroke="rgba(34,42,48,0.22)" stroke-width="0.35"/>
<polygon points="135.1,125.8 138.5,124.0 135.1,122.4" fill="rgb(181,181,189)" stroke="rgba(34,42,48,0.22)" stroke-width="0.35"/>
<polygon points="138.5,124.0 135.1,125.8 138.5,127.4" fill="rgb(181,181,189)" stroke="rgba(34,42,48,0.22)" stroke-width="0.35"/>
<polygon points="80.2,84.4 140.2,114.5 140.0,112.6" fill="rgb(206,206,214)" stroke="rgba(34,42,48,0.22)" stroke-width="0.35"/>
<polygon points="154.1,105.9 138.3,116.4 154.1,106.8" fill="rgb(195,195,203)" stroke="rgba(34,42,48,0.22)" stroke-width="0.35"/>
<polygon points="153.4,112.2 138.2,121.5 138.2,124.1" fill="rgb(195,195,203)" stroke="rgba(34,42,48,0.22)" stroke-width="0.35"/>
<polygon points="148.4,104.1 134.0,113.5 132.6,113.7" fill="rgb(211,211,219)" stroke="rgba(34,42,48,0.22)" stroke-width="0.35"/>
<polygon points="148.3,105.4 134.0,114.1 134.0,113.5" fill="rgb(195,195,203)" stroke="rgba(34,42,48,0.22)" stroke-width="0.35"/>
<polygon points="134.0,114.1 148.2,106.0 135.1,113.9" fill="rgb(211,211,219)" stroke="rgba(34,42,48,0.22)" stroke-width="0.35"/>
<polygon points="148.4,104.1 132.6,113.7 132.6,112.8" fill="rgb(195,195,203)" stroke="rgba(34,42,48,0.22)" stroke-width="0.35"/>
<polygon points="138.2,121.5 151.6,111.6 138.5,119.5" fill="rgb(223,223,231)" stroke="rgba(34,42,48,0.22)" stroke-width="0.35"/>
<polygon points="138.2,124.1 133.4,121.9 135.1,122.4" fill="rgb(184,184,192)" stroke="rgba(34,42,48,0.22)" stroke-width="0.35"/>
<polygon points="156.3,106.4 140.0,116.3 156.3,107.0" fill="rgb(195,195,203)" stroke="rgba(34,42,48,0.22)" stroke-width="0.35"/>
<polygon points="138.2,124.1 135.1,122.4 138.5,124.0" fill="rgb(184,184,192)" stroke="rgba(34,42,48,0.22)" stroke-width="0.35"/>
<polygon points="151.6,107.6 138.5,115.6 138.5,119.5" fill="rgb(195,195,203)" stroke="rgba(34,42,48,0.22)" stroke-width="0.35"/>
<polygon points="157.5,105.2 140.2,115.7 156.3,106.4" fill="rgb(156,156,164)" stroke="rgba(34,42,48,0.22)" stroke-width="0.35"/>
<polygon points="133.4,121.9 138.2,121.5 133.4,119.2" fill="rgb(181,181,189)" stroke="rgba(34,42,48,0.22)" stroke-width="0.35"/>
<polygon points="138.2,121.5 135.1,117.9 133.4,119.2" fill="rgb(217,217,225)" stroke="rgba(34,42,48,0.22)" stroke-width="0.35"/>
<polygon points="152.7,107.5 138.5,116.2 138.5,115.6" fill="rgb(211,211,219)" stroke="rgba(34,42,48,0.22)" stroke-width="0.35"/>
<polygon points="138.2,121.5 133.4,121.9 138.2,124.1" fill="rgb(181,181,189)" stroke="rgba(34,42,48,0.22)" stroke-width="0.35"/>
<polygon points="140.2,114.5 157.5,105.2 157.5,103.9" fill="rgb(195,195,203)" stroke="rgba(34,42,48,0.22)" stroke-width="0.35"/>
<polygon points="152.7,106.9 138.5,115.6 138.5,116.2" fill="rgb(195,195,203)" stroke="rgba(34,42,48,0.22)" stroke-width="0.35"/>
<polygon points="140.2,114.5 157.5,103.9 156.3,102.7" fill="rgb(220,220,228)" stroke="rgba(34,42,48,0.22)" stroke-width="0.35"/>
<polygon points="135.1,117.9 138.2,121.5 138.5,119.5" fill="rgb(217,217,225)" stroke="rgba(34,42,48,0.22)" stroke-width="0.35"/>
<polygon points="154.1,106.8 138.3,116.4 138.5,115.6" fill="rgb(211,211,219)" stroke="rgba(34,42,48,0.22)" stroke-width="0.35"/>
<polygon points="135.1,117.9 138.5,115.6 135.1,113.9" fill="rgb(181,181,189)" stroke="rgba(34,42,48,0.22)" stroke-width="0.35"/>
<polygon points="138.5,115.6 135.1,117.9 138.5,119.5" fill="rgb(181,181,189)" stroke="rgba(34,42,48,0.22)" stroke-width="0.35"/>
<polygon points="154.1,105.9 138.3,115.5 138.3,116.4" fill="rgb(195,195,203)" stroke="rgba(34,42,48,0.22)" stroke-width="0.35"/>
<polygon points="138.5,116.2 134.0,114.1 135.1,113.9" fill="rgb(211,211,219)" stroke="rgba(34,42,48,0.22)" stroke-width="0.35"/>
<polygon points="134.0,114.1 138.5,115.6 134.0,113.5" fill="rgb(181,181,189)" stroke="rgba(34,42,48,0.22)" stroke-width="0.35"/>
<polygon points="140.0,116.9 156.3,107.0 140.0,116.3" fill="rgb(195,195,203)" stroke="rgba(34,42,48,0.22)" stroke-width="0.35"/>
<polygon points="138.5,116.2 135.1,113.9 138.5,115.6" fill="rgb(211,211,219)" stroke="rgba(34,42,48,0.22)" stroke-width="0.35"/>
<polygon points="138.3,116.4 132.6,113.7 134.0,113.5" fill="rgb(211,211,219)" stroke="rgba(34,42,48,0.22)" stroke-width="0.35"/>
<polygon points="138.5,115.6 134.0,114.1 138.5,116.2" fill="rgb(181,181,189)" stroke="rgba(34,42,48,0.22)" stroke-width="0.35"/>
<polygon points="132.6,113.7 138.3,115.5 132.6,112.8" fill="rgb(181,181,189)" stroke="rgba(34,42,48,0.22)" stroke-width="0.35"/>
<polygon points="156.3,106.4 140.2,115.7 140.0,116.3" fill="rgb(156,156,164)" stroke="rgba(34,42,48,0.22)" stroke-width="0.35"/>
<polygon points="138.3,116.4 134.0,113.5 138.5,115.6" fill="rgb(211,211,219)" stroke="rgba(34,42,48,0.22)" stroke-width="0.35"/>
<polygon points="165.2,65.1 92.7,30.0 166.0,64.6" fill="rgb(211,211,219)" stroke="rgba(34,42,48,0.22)" stroke-width="0.35"/>
<polygon points="138.3,115.5 132.6,113.7 138.3,116.4" fill="rgb(181,181,189)" stroke="rgba(34,42,48,0.22)" stroke-width="0.35"/>
<polygon points="157.5,105.2 140.2,114.5 140.2,115.7" fill="rgb(195,195,203)" stroke="rgba(34,42,48,0.22)" stroke-width="0.35"/>
<polygon points="165.2,64.1 91.9,30.5 165.2,65.1" fill="rgb(181,181,189)" stroke="rgba(34,42,48,0.22)" stroke-width="0.35"/>
<polygon points="140.2,114.5 156.3,102.7 140.0,112.6" fill="rgb(220,220,228)" stroke="rgba(34,42,48,0.22)" stroke-width="0.35"/>
<polygon points="163.6,63.0 90.3,28.4 165.2,64.1" fill="rgb(171,171,179)" stroke="rgba(34,42,48,0.22)" stroke-width="0.35"/>
<polygon points="165.2,59.9 91.9,26.4 165.2,61.0" fill="rgb(181,181,189)" stroke="rgba(34,42,48,0.22)" stroke-width="0.35"/>
<polygon points="166.0,59.4 91.9,25.3 165.2,59.9" fill="rgb(211,211,219)" stroke="rgba(34,42,48,0.22)" stroke-width="0.35"/>
<polygon points="166.0,56.5 92.7,24.8 166.0,59.4" fill="rgb(181,181,189)" stroke="rgba(34,42,48,0.22)" stroke-width="0.35"/>
<polygon points="162.8,63.5 90.3,28.4 163.6,63.0" fill="rgb(211,211,219)" stroke="rgba(34,42,48,0.22)" stroke-width="0.35"/>
<polygon points="165.2,61.0 89.5,27.8 162.8,62.4" fill="rgb(211,211,219)" stroke="rgba(34,42,48,0.22)" stroke-width="0.35"/>
<polygon points="162.8,62.4 89.5,28.9 162.8,63.5" fill="rgb(181,181,189)" stroke="rgba(34,42,48,0.22)" stroke-width="0.35"/></g>
  <text x="110" y="172" text-anchor="middle" font-family="ui-sans-serif, system-ui, sans-serif" font-size="12" fill="#27313a">Wall Bench</text>
</svg>
