<svg xmlns="http://www.w3.org/2000/svg" width="220" height="190" viewBox="0 0 220 190">
  <rect width="100%" height="100%" fill="#edf1f5"/>
  <g><polygon points="103.8,90.3 92.5,85.0 90.3,86.3" fill="rgb(211,211,219)" stroke="rgba(34,42,48,0.22)" stroke-width="0.35"/>
<polygon points="104.1,96.9 90.3,86.3 90.3,90.4" fill="rgb(181,181,189)" stroke="rgba(34,42,48,0.22)" stroke-width="0.35"/>
<polygon points="109.8,94.4 142.3,98.4 120.3,88.0" fill="rgb(211,211,219)" stroke="rgba(34,42,48,0.22)" stroke-width="0.35"/>
<polygon points="103.8,90.3 92.5,68.9 92.5,85.0" fill="rgb(181,181,189)" stroke="rgba(34,42,48,0.22)" stroke-width="0.35"/>
<polygon points="103.8,90.3 108.9,89.9 106.4,88.7" fill="rgb(211,211,219)" stroke="rgba(34,42,48,0.22)" stroke-width="0.35"/>
<polygon points="108.9,89.9 104.1,96.9 108.9,94.0" fill="rgb(195,195,203)" stroke="rgba(34,42,48,0.22)" stroke-width="0.35"/>
<polygon points="90.3,86.3 104.1,92.8 103.8,90.3" fill="rgb(211,211,219)" stroke="rgba(34,42,48,0.22)" stroke-width="0.35"/>
<polygon points="104.1,92.8 90.3,86.3 104.1,96.9" fill="rgb(181,181,189)" stroke="rgba(34,42,48,0.22)" stroke-width="0.35"/>
<polygon points="108.9,89.9 103.8,90.3 104.1,92.8" fill="rgb(211,211,219)" stroke="rgba(34,42,48,0.22)" stroke-width="0.35"/>
<polygon points="108.9,89.9 104.1,92.8 104.1,96.9" fill="rgb(195,195,203)" stroke="rgba(34,42,48,0.22)" stroke-width="0.35"/>
<polygon points="106.4,72.6 103.8,90.3 106.4,88.7" fill="rgb(195,195,203)" stroke="rgba(34,42,48,0.22)" stroke-width="0.35"/>
<polygon points="120.3,26.2 109.8,94.4 120.3,88.0" fill="rgb(195,195,203)" stroke="rgba(34,42,48,0.22)" stroke-width="0.35"/>
<polygon points="103.8,74.2 92.5,68.9 103.8,90.3" fill="rgb(181,181,189)" stroke="rgba(34,42,48,0.22)" stroke-width="0.35"/>
<polygon points="103.8,74.2 91.1,68.3 92.5,68.9" fill="rgb(178,178,186)" stroke="rgba(34,42,48,0.22)" stroke-width="0.35"/>
<polygon points="103.8,74.2 103.8,90.3 106.4,72.6" fill="rgb(195,195,203)" stroke="rgba(34,42,48,0.22)" stroke-width="0.35"/>
<polygon points="103.7,72.0 92.7,66.8 91.1,67.8" fill="rgb(211,211,219)" stroke="rgba(34,42,48,0.22)" stroke-width="0.35"/>
<polygon points="104.0,74.3 91.1,67.8 91.1,68.3" fill="rgb(181,181,189)" stroke="rgba(34,42,48,0.22)" stroke-width="0.35"/>
<polygon points="41.1,120.4 109.8,94.4 95.2,87.5" fill="rgb(211,211,219)" stroke="rgba(34,42,48,0.22)" stroke-width="0.35"/>
<polygon points="109.8,32.6 104.3,91.8 109.8,94.4" fill="rgb(181,181,189)" stroke="rgba(34,42,48,0.22)" stroke-width="0.35"/>
<polygon points="108.0,71.9 103.8,74.2 106.4,72.6" fill="rgb(169,169,177)" stroke="rgba(34,42,48,0.22)" stroke-width="0.35"/>
<polygon points="104.0,74.3 91.1,68.3 103.8,74.2" fill="rgb(178,178,186)" stroke="rgba(34,42,48,0.22)" stroke-width="0.35"/>
<polygon points="91.1,67.8 104.0,73.8 103.7,72.0" fill="rgb(211,211,219)" stroke="rgba(34,42,48,0.22)" stroke-width="0.35"/>
<polygon points="103.7,72.0 108.0,71.4 106.2,70.5" fill="rgb(211,211,219)" stroke="rgba(34,42,48,0.22)" stroke-width="0.35"/>
<polygon points="104.0,73.8 91.1,67.8 104.0,74.3" fill="rgb(181,181,189)" stroke="rgba(34,42,48,0.22)" stroke-width="0.35"/>
<polygon points="108.0,71.4 104.0,74.3 108.0,71.9" fill="rgb(195,195,203)" stroke="rgba(34,42,48,0.22)" stroke-width="0.35"/>
<polygon points="108.0,71.9 104.0,74.3 103.8,74.2" fill="rgb(169,169,177)" stroke="rgba(34,42,48,0.22)" stroke-width="0.35"/>
<polygon points="108.0,71.4 103.7,72.0 104.0,73.8" fill="rgb(211,211,219)" stroke="rgba(34,42,48,0.22)" stroke-width="0.35"/>
<polygon points="108.0,71.4 104.0,73.8 104.0,74.3" fill="rgb(195,195,203)" stroke="rgba(34,42,48,0.22)" stroke-width="0.35"/>
<polygon points="103.7,72.0 92.7,31.0 92.7,66.8" fill="rgb(181,181,189)" stroke="rgba(34,42,48,0.22)" stroke-width="0.35"/>
<polygon points="106.2,34.8 103.7,72.0 106.2,70.5" fill="rgb(195,195,203)" stroke="rgba(34,42,48,0.22)" stroke-width="0.35"/>
<polygon points="153.8,115.2 164.3,108.8 142.3,98.4" fill="rgb(211,211,219)" stroke="rgba(34,42,48,0.22)" stroke-width="0.35"/>
<polygon points="109.8,32.6 109.8,94.4 120.3,26.2" fill="rgb(195,195,203)" stroke="rgba(34,42,48,0.22)" stroke-width="0.35"/>
<polygon points="104.3,91.8 109.8,32.6 104.3,30.0" fill="rgb(181,181,189)" stroke="rgba(34,42,48,0.22)" stroke-width="0.35"/>
<polygon points="142.3,98.4 109.8,94.4 77.7,137.7" fill="rgb(211,211,219)" stroke="rgba(34,42,48,0.22)" stroke-width="0.35"/>
<polygon points="103.7,72.0 103.7,36.2 92.7,31.0" fill="rgb(181,181,189)" stroke="rgba(34,42,48,0.22)" stroke-width="0.35"/>
<polygon points="103.7,36.2 103.7,72.0 106.2,34.8" fill="rgb(195,195,203)" stroke="rgba(34,42,48,0.22)" stroke-width="0.35"/>
<polygon points="109.5,42.9 106.8,42.2 106.9,41.7" fill="rgb(211,211,219)" stroke="rgba(34,42,48,0.22)" stroke-width="0.35"/>
<polygon points="104.0,43.5 106.9,41.7 106.8,42.2" fill="rgb(211,211,219)" stroke="rgba(34,42,48,0.22)" stroke-width="0.35"/>
<polygon points="91.9,31.5 92.7,31.0 103.7,36.2" fill="rgb(211,211,219)" stroke="rgba(34,42,48,0.22)" stroke-width="0.35"/>
<polygon points="106.8,42.2 108.5,43.0 106.7,44.2" fill="rgb(217,217,225)" stroke="rgba(34,42,48,0.22)" stroke-width="0.35"/>
<polygon points="106.8,42.2 109.5,42.9 108.5,43.0" fill="rgb(211,211,219)" stroke="rgba(34,42,48,0.22)" stroke-width="0.35"/>
<polygon points="104.9,43.4 106.8,42.2 106.7,44.2" fill="rgb(225,225,233)" stroke="rgba(34,42,48,0.22)" stroke-width="0.35"/>
<polygon points="104.0,43.5 106.8,42.2 104.9,43.4" fill="rgb(211,211,219)" stroke="rgba(34,42,48,0.22)" stroke-width="0.35"/>
<polygon points="108.5,43.0 106.6,44.2 106.7,44.2" fill="rgb(161,161,169)" stroke="rgba(34,42,48,0.22)" stroke-width="0.35"/>
<polygon points="109.5,42.9 106.6,44.2 108.5,43.0" fill="rgb(211,211,219)" stroke="rgba(34,42,48,0.22)" stroke-width="0.35"/>
<polygon points="91.9,31.5 103.8,36.1 91.9,30.5" fill="rgb(181,181,189)" stroke="rgba(34,42,48,0.22)" stroke-width="0.35"/>
<polygon points="106.6,44.2 104.9,43.4 106.7,44.2" fill="rgb(178,178,186)" stroke="rgba(34,42,48,0.22)" stroke-width="0.35"/>
<polygon points="102.4,41.3 106.9,41.7 104.0,43.5" fill="rgb(195,195,203)" stroke="rgba(34,42,48,0.22)" stroke-width="0.35"/>
<polygon points="106.6,44.7 104.0,43.5 104.9,43.4" fill="rgb(211,211,219)" stroke="rgba(34,42,48,0.22)" stroke-width="0.35"/>
<polygon points="109.5,42.9 106.6,44.7 106.6,44.2" fill="rgb(211,211,219)" stroke="rgba(34,42,48,0.22)" stroke-width="0.35"/>
<polygon points="106.9,41.7 102.4,41.3 106.9,34.2" fill="rgb(195,195,203)" stroke="rgba(34,42,48,0.22)" stroke-width="0.35"/>
<polygon points="104.9,43.4 106.6,44.2 106.6,44.7" fill="rgb(211,211,219)" stroke="rgba(34,42,48,0.22)" stroke-width="0.35"/>
<polygon points="103.8,36.1 90.3,29.4 91.9,30.5" fill="rgb(171,171,179)" stroke="rgba(34,42,48,0.22)" stroke-width="0.35"/>
<polygon points="106.6,44.7 102.4,41.3 104.0,43.5" fill="rgb(158,158,166)" stroke="rgba(34,42,48,0.22)" stroke-width="0.35"/>
<polygon points="103.8,37.2 91.9,31.5 103.7,36.2" fill="rgb(211,211,219)" stroke="rgba(34,42,48,0.22)" stroke-width="0.35"/>
<polygon points="109.5,42.9 104.9,42.6 106.6,44.7" fill="rgb(195,195,203)" stroke="rgba(34,42,48,0.22)" stroke-width="0.35"/>
<polygon points="107.1,35.2 103.7,36.2 106.2,34.8" fill="rgb(211,211,219)" stroke="rgba(34,42,48,0.22)" stroke-width="0.35"/>
<polygon points="103.8,36.1 91.9,31.5 103.8,37.2" fill="rgb(181,181,189)" stroke="rgba(34,42,48,0.22)" stroke-width="0.35"/>
<polygon points="103.8,33.0 91.9,27.6 89.5,28.9" fill="rgb(208,208,216)" stroke="rgba(34,42,48,0.22)" stroke-width="0.35"/>
<polygon points="104.9,42.6 109.5,42.9 109.5,35.4" fill="rgb(195,195,203)" stroke="rgba(34,42,48,0.22)" stroke-width="0.35"/>
<polygon points="142.3,98.4 77.7,137.7 153.8,115.2" fill="rgb(211,211,219)" stroke="rgba(34,42,48,0.22)" stroke-width="0.35"/>
<polygon points="154.7,115.6 149.9,118.6 154.7,111.5" fill="rgb(195,195,203)" stroke="rgba(34,42,48,0.22)" stroke-width="0.35"/>
<polygon points="107.1,34.2 103.8,37.2 107.1,35.2" fill="rgb(195,195,203)" stroke="rgba(34,42,48,0.22)" stroke-width="0.35"/>
<polygon points="106.6,44.7 104.9,42.6 102.4,41.3" fill="rgb(158,158,166)" stroke="rgba(34,42,48,0.22)" stroke-width="0.35"/>
<polygon points="104.1,35.9 89.5,29.9 90.3,29.4" fill="rgb(211,211,219)" stroke="rgba(34,42,48,0.22)" stroke-width="0.35"/>
<polygon points="107.1,35.2 103.8,37.2 103.7,36.2" fill="rgb(211,211,219)" stroke="rgba(34,42,48,0.22)" stroke-width="0.35"/>
<polygon points="41.1,120.4 77.7,137.7 109.8,94.4" fill="rgb(211,211,219)" stroke="rgba(34,42,48,0.22)" stroke-width="0.35"/>
<polygon points="107.8,32.2 96.7,38.9 102.8,33.2" fill="rgb(195,195,203)" stroke="rgba(34,42,48,0.22)" stroke-width="0.35"/>
<polygon points="104.9,42.6 100.7,42.3 102.4,41.3" fill="rgb(211,211,219)" stroke="rgba(34,42,48,0.22)" stroke-width="0.35"/>
<polygon points="107.1,34.2 103.8,36.1 103.8,37.2" fill="rgb(195,195,203)" stroke="rgba(34,42,48,0.22)" stroke-width="0.35"/>
<polygon points="108.9,33.0 103.8,36.1 107.1,34.2" fill="rgb(161,161,169)" stroke="rgba(34,42,48,0.22)" stroke-width="0.35"/>
<polygon points="89.5,29.9 104.2,35.8 89.5,28.9" fill="rgb(181,181,189)" stroke="rgba(34,42,48,0.22)" stroke-width="0.35"/>
<polygon points="102.4,41.3 98.8,39.1 106.9,34.2" fill="rgb(195,195,203)" stroke="rgba(34,42,48,0.22)" stroke-width="0.35"/>
<polygon points="98.8,39.1 109.5,35.4 106.9,34.2" fill="rgb(211,211,219)" stroke="rgba(34,42,48,0.22)" stroke-width="0.35"/>
<polygon points="90.3,29.4 103.8,36.1 104.1,35.9" fill="rgb(171,171,179)" stroke="rgba(34,42,48,0.22)" stroke-width="0.35"/>
<polygon points="142.3,36.6 109.8,32.6 120.3,26.2" fill="rgb(211,211,219)" stroke="rgba(34,42,48,0.22)" stroke-width="0.35"/>
<polygon points="136.6,39.3 107.8,32.2 110.3,26.6" fill="rgb(211,211,219)" stroke="rgba(34,42,48,0.22)" stroke-width="0.35"/>
<polygon points="154.7,111.5 154.6,114.3 157.2,112.7" fill="rgb(211,211,219)" stroke="rgba(34,42,48,0.22)" stroke-width="0.35"/>
<polygon points="149.9,118.6 149.9,114.4 154.7,111.5" fill="rgb(195,195,203)" stroke="rgba(34,42,48,0.22)" stroke-width="0.35"/>
<polygon points="104.9,42.6 103.3,43.6 100.7,42.3" fill="rgb(211,211,219)" stroke="rgba(34,42,48,0.22)" stroke-width="0.35"/>
<polygon points="100.7,42.3 98.8,39.1 102.4,41.3" fill="rgb(195,195,203)" stroke="rgba(34,42,48,0.22)" stroke-width="0.35"/>
<polygon points="95.0,36.9 101.1,31.5 101.9,32.7" fill="rgb(225,225,233)" stroke="rgba(34,42,48,0.22)" stroke-width="0.35"/>
<polygon points="93.3,36.3 100.2,31.1 101.1,31.5" fill="rgb(211,211,219)" stroke="rgba(34,42,48,0.22)" stroke-width="0.35"/>
<polygon points="100.2,31.1 91.8,35.5 100.2,30.3" fill="rgb(195,195,203)" stroke="rgba(34,42,48,0.22)" stroke-width="0.35"/>
<polygon points="103.8,33.0 109.8,32.6 107.1,31.1" fill="rgb(213,213,221)" stroke="rgba(34,42,48,0.22)" stroke-width="0.35"/>
<polygon points="154.6,114.3 154.7,111.5 149.9,114.4" fill="rgb(211,211,219)" stroke="rgba(34,42,48,0.22)" stroke-width="0.35"/>
<polygon points="96.7,36.9 101.9,32.7 102.8,33.2" fill="rgb(211,211,219)" stroke="rgba(34,42,48,0.22)" stroke-width="0.35"/>
<polygon points="164.3,47.0 164.3,108.8 153.8,115.2" fill="rgb(195,195,203)" stroke="rgba(34,42,48,0.22)" stroke-width="0.35"/>
<polygon points="93.3,35.5 101.1,30.8 100.2,30.3" fill="rgb(211,211,219)" stroke="rgba(34,42,48,0.22)" stroke-width="0.35"/>
<polygon points="101.4,40.3 104.9,42.6 109.5,35.4" fill="rgb(195,195,203)" stroke="rgba(34,42,48,0.22)" stroke-width="0.35"/>
<polygon points="89.5,28.9 104.2,35.8 103.8,33.0" fill="rgb(211,211,219)" stroke="rgba(34,42,48,0.22)" stroke-width="0.35"/>
<polygon points="103.8,36.1 108.9,33.0 104.1,35.9" fill="rgb(161,161,169)" stroke="rgba(34,42,48,0.22)" stroke-width="0.35"/>
<polygon points="103.3,43.6 101.4,42.9 100.7,42.3" fill="rgb(180,180,188)" stroke="rgba(34,42,48,0.22)" stroke-width="0.35"/>
<polygon points="104.1,35.9 108.9,33.0 109.8,33.4" fill="rgb(211,211,219)" stroke="rgba(34,42,48,0.22)" stroke-width="0.35"/>
<polygon points="89.5,29.9 104.1,35.9 104.2,36.8" fill="rgb(211,211,219)" stroke="rgba(34,42,48,0.22)" stroke-width="0.35"/>
<polygon points="95.1,34.5 101.9,30.3 101.1,30.8" fill="rgb(165,165,173)" stroke="rgba(34,42,48,0.22)" stroke-width="0.35"/>
<polygon points="98.8,39.1 100.7,42.3 98.8,41.7" fill="rgb(195,195,203)" stroke="rgba(34,42,48,0.22)" stroke-width="0.35"/>
<polygon points="101.4,42.9 98.8,41.7 100.7,42.3" fill="rgb(180,180,188)" stroke="rgba(34,42,48,0.22)" stroke-width="0.35"/>
<polygon points="101.4,40.3 103.3,43.6 104.9,42.6" fill="rgb(195,195,203)" stroke="rgba(34,42,48,0.22)" stroke-width="0.35"/>
<polygon points="109.8,32.6 104.2,36.8 109.8,33.4" fill="rgb(195,195,203)" stroke="rgba(34,42,48,0.22)" stroke-width="0.35"/>
<polygon points="104.2,35.8 89.5,29.9 104.2,36.8" fill="rgb(181,181,189)" stroke="rgba(34,42,48,0.22)" stroke-width="0.35"/>
<polygon points="96.7,36.9 102.8,33.2 96.7,38.9" fill="rgb(195,195,203)" stroke="rgba(34,42,48,0.22)" stroke-width="0.35"/>
<polygon points="91.9,26.4 129.4,43.2 92.7,25.9" fill="rgb(211,211,219)" stroke="rgba(34,42,48,0.22)" stroke-width="0.35"/>
<polygon points="109.5,35.4 98.8,39.1 101.4,40.3" fill="rgb(211,211,219)" stroke="rgba(34,42,48,0.22)" stroke-width="0.35"/>
<polygon points="101.9,32.7 96.7,36.9 95.0,36.9" fill="rgb(211,211,219)" stroke="rgba(34,42,48,0.22)" stroke-width="0.35"/>
<polygon points="91.9,27.6 128.6,43.7 91.9,26.4" fill="rgb(181,181,189)" stroke="rgba(34,42,48,0.22)" stroke-width="0.35"/>
<polygon points="99.1,39.6 98.8,41.7 99.1,41.5" fill="rgb(181,181,189)" stroke="rgba(34,42,48,0.22)" stroke-width="0.35"/>
<polygon points="107.8,32.2 108.6,44.6 96.7,38.9" fill="rgb(211,211,219)" stroke="rgba(34,42,48,0.22)" stroke-width="0.35"/>
<polygon points="101.1,31.5 95.0,36.9 93.3,36.3" fill="rgb(225,225,233)" stroke="rgba(34,42,48,0.22)" stroke-width="0.35"/>
<polygon points="98.8,41.7 101.1,42.4 99.1,41.5" fill="rgb(181,181,189)" stroke="rgba(34,42,48,0.22)" stroke-width="0.35"/>
<polygon points="100.2,31.1 93.3,36.3 91.8,36.3" fill="rgb(211,211,219)" stroke="rgba(34,42,48,0.22)" stroke-width="0.35"/>
<polygon points="100.2,31.1 91.8,36.3 91.8,35.5" fill="rgb(195,195,203)" stroke="rgba(34,42,48,0.22)" stroke-width="0.35"/>
<polygon points="109.8,32.6 103.8,33.0 104.2,35.8" fill="rgb(211,211,219)" stroke="rgba(34,42,48,0.22)" stroke-width="0.35"/>
<polygon points="98.8,41.7 99.1,39.6 98.8,39.1" fill="rgb(181,181,189)" stroke="rgba(34,42,48,0.22)" stroke-width="0.35"/>
<polygon points="92.7,25.9 129.4,40.3 92.7,23.0" fill="rgb(181,181,189)" stroke="rgba(34,42,48,0.22)" stroke-width="0.35"/>
<polygon points="98.8,41.7 101.4,42.9 101.1,42.4" fill="rgb(181,181,189)" stroke="rgba(34,42,48,0.22)" stroke-width="0.35"/>
<polygon points="100.2,30.3 91.8,35.5 93.3,35.5" fill="rgb(211,211,219)" stroke="rgba(34,42,48,0.22)" stroke-width="0.35"/>
<polygon points="109.8,33.4 104.2,36.8 104.1,35.9" fill="rgb(211,211,219)" stroke="rgba(34,42,48,0.22)" stroke-width="0.35"/>
<polygon points="103.3,43.6 101.4,40.3 101.4,42.9" fill="rgb(195,195,203)" stroke="rgba(34,42,48,0.22)" stroke-width="0.35"/>
<polygon points="99.1,39.6 99.1,41.5 99.1,41.6" fill="rgb(164,164,172)" stroke="rgba(34,42,48,0.22)" stroke-width="0.35"/>
<polygon points="101.1,30.8 93.3,35.5 95.1,34.5" fill="rgb(165,165,173)" stroke="rgba(34,42,48,0.22)" stroke-width="0.35"/>
<polygon points="157.2,96.6 157.2,112.7 154.6,114.3" fill="rgb(195,195,203)" stroke="rgba(34,42,48,0.22)" stroke-width="0.35"/>
<polygon points="99.1,41.5 101.1,42.4 99.1,41.6" fill="rgb(180,180,188)" stroke="rgba(34,42,48,0.22)" stroke-width="0.35"/>
<polygon points="109.8,32.6 104.2,35.8 104.2,36.8" fill="rgb(195,195,203)" stroke="rgba(34,42,48,0.22)" stroke-width="0.35"/>
<polygon points="99.1,39.6 101.4,40.3 98.8,39.1" fill="rgb(181,181,189)" stroke="rgba(34,42,48,0.22)" stroke-width="0.35"/>
<polygon points="101.4,42.9 101.4,40.3 101.1,42.4" fill="rgb(181,181,189)" stroke="rgba(34,42,48,0.22)" stroke-width="0.35"/>
<polygon points="101.1,40.5 99.1,39.6 99.1,41.6" fill="rgb(217,217,225)" stroke="rgba(34,42,48,0.22)" stroke-width="0.35"/>
<polygon points="101.1,42.4 101.1,40.5 99.1,41.6" fill="rgb(205,205,213)" stroke="rgba(34,42,48,0.22)" stroke-width="0.35"/>
<polygon points="149.9,118.6 163.6,120.9 149.9,114.4" fill="rgb(181,181,189)" stroke="rgba(34,42,48,0.22)" stroke-width="0.35"/>
<polygon points="101.4,40.3 99.1,39.6 101.1,40.5" fill="rgb(181,181,189)" stroke="rgba(34,42,48,0.22)" stroke-width="0.35"/>
<polygon points="101.1,42.4 101.4,40.3 101.1,40.5" fill="rgb(181,181,189)" stroke="rgba(34,42,48,0.22)" stroke-width="0.35"/>
<polygon points="163.6,120.9 154.6,114.3 149.9,114.4" fill="rgb(211,211,219)" stroke="rgba(34,42,48,0.22)" stroke-width="0.35"/>
<polygon points="134.2,44.9 108.6,44.6 107.8,32.2" fill="rgb(211,211,219)" stroke="rgba(34,42,48,0.22)" stroke-width="0.35"/>
<polygon points="107.8,32.2 136.6,39.3 134.2,44.9" fill="rgb(211,211,219)" stroke="rgba(34,42,48,0.22)" stroke-width="0.35"/>
<polygon points="108.6,42.5 96.7,36.9 96.7,38.9" fill="rgb(181,181,189)" stroke="rgba(34,42,48,0.22)" stroke-width="0.35"/>
<polygon points="163.6,120.9 149.9,118.6 163.6,125.0" fill="rgb(181,181,189)" stroke="rgba(34,42,48,0.22)" stroke-width="0.35"/>
<polygon points="107.9,40.5 101.9,30.3 95.1,34.5" fill="rgb(211,211,219)" stroke="rgba(34,42,48,0.22)" stroke-width="0.35"/>
<polygon points="154.6,114.3 154.6,98.2 157.2,96.6" fill="rgb(195,195,203)" stroke="rgba(34,42,48,0.22)" stroke-width="0.35"/>
<polygon points="107.9,43.0 95.0,36.9 96.7,36.9" fill="rgb(211,211,219)" stroke="rgba(34,42,48,0.22)" stroke-width="0.35"/>
<polygon points="154.6,114.3 163.6,120.9 165.8,119.6" fill="rgb(211,211,219)" stroke="rgba(34,42,48,0.22)" stroke-width="0.35"/>
<polygon points="109.8,32.6 128.6,44.9 106.6,34.5" fill="rgb(211,211,219)" stroke="rgba(34,42,48,0.22)" stroke-width="0.35"/>
<polygon points="107.9,40.5 114.7,36.3 101.9,30.3" fill="rgb(211,211,219)" stroke="rgba(34,42,48,0.22)" stroke-width="0.35"/>
<polygon points="107.0,42.7 93.3,36.3 95.0,36.9" fill="rgb(180,180,188)" stroke="rgba(34,42,48,0.22)" stroke-width="0.35"/>
<polygon points="159.3,117.8 153.8,53.3 153.8,115.2" fill="rgb(181,181,189)" stroke="rgba(34,42,48,0.22)" stroke-width="0.35"/>
<polygon points="106.3,43.1 91.8,36.3 93.3,36.3" fill="rgb(211,211,219)" stroke="rgba(34,42,48,0.22)" stroke-width="0.35"/>
<polygon points="106.3,43.1 91.8,35.5 91.8,36.3" fill="rgb(181,181,189)" stroke="rgba(34,42,48,0.22)" stroke-width="0.35"/>
<polygon points="128.6,44.9 109.8,32.6 142.3,36.6" fill="rgb(211,211,219)" stroke="rgba(34,42,48,0.22)" stroke-width="0.35"/>
<polygon points="107.0,41.9 95.1,34.5 93.3,35.5" fill="rgb(217,217,225)" stroke="rgba(34,42,48,0.22)" stroke-width="0.35"/>
<polygon points="106.3,42.3 93.3,35.5 91.8,35.5" fill="rgb(211,211,219)" stroke="rgba(34,42,48,0.22)" stroke-width="0.35"/>
<polygon points="108.6,44.6 108.6,42.5 96.7,38.9" fill="rgb(181,181,189)" stroke="rgba(34,42,48,0.22)" stroke-width="0.35"/>
<polygon points="157.2,96.6 154.6,98.2 155.6,94.4" fill="rgb(226,226,234)" stroke="rgba(34,42,48,0.22)" stroke-width="0.35"/>
<polygon points="155.6,94.4 151.6,96.8 155.6,93.9" fill="rgb(195,195,203)" stroke="rgba(34,42,48,0.22)" stroke-width="0.35"/>
<polygon points="107.9,43.0 96.7,36.9 108.6,42.5" fill="rgb(211,211,219)" stroke="rgba(34,42,48,0.22)" stroke-width="0.35"/>
<polygon points="165.8,103.5 154.6,114.3 165.8,119.6" fill="rgb(181,181,189)" stroke="rgba(34,42,48,0.22)" stroke-width="0.35"/>
<polygon points="157.4,94.7 155.6,93.9 155.0,96.2" fill="rgb(211,211,219)" stroke="rgba(34,42,48,0.22)" stroke-width="0.35"/>
<polygon points="128.6,43.7 91.9,27.6 128.6,44.9" fill="rgb(181,181,189)" stroke="rgba(34,42,48,0.22)" stroke-width="0.35"/>
<polygon points="154.6,114.3 165.8,103.5 154.6,98.2" fill="rgb(181,181,189)" stroke="rgba(34,42,48,0.22)" stroke-width="0.35"/>
<polygon points="151.6,96.8 155.6,94.4 154.6,98.2" fill="rgb(226,226,234)" stroke="rgba(34,42,48,0.22)" stroke-width="0.35"/>
<polygon points="107.0,42.7 95.0,36.9 107.9,43.0" fill="rgb(180,180,188)" stroke="rgba(34,42,48,0.22)" stroke-width="0.35"/>
<polygon points="129.4,43.2 91.9,26.4 128.6,43.7" fill="rgb(211,211,219)" stroke="rgba(34,42,48,0.22)" stroke-width="0.35"/>
<polygon points="129.4,40.3 92.7,25.9 129.4,43.2" fill="rgb(181,181,189)" stroke="rgba(34,42,48,0.22)" stroke-width="0.35"/>
<polygon points="151.6,96.3 155.6,93.9 151.6,96.8" fill="rgb(195,195,203)" stroke="rgba(34,42,48,0.22)" stroke-width="0.35"/>
<polygon points="155.0,96.2 155.6,93.9 151.6,96.3" fill="rgb(211,211,219)" stroke="rgba(34,42,48,0.22)" stroke-width="0.35"/>
<polygon points="106.3,43.1 93.3,36.3 107.0,42.7" fill="rgb(211,211,219)" stroke="rgba(34,42,48,0.22)" stroke-width="0.35"/>
<polygon points="95.1,34.5 107.0,41.9 107.9,40.5" fill="rgb(217,217,225)" stroke="rgba(34,42,48,0.22)" stroke-width="0.35"/>
<polygon points="93.3,35.5 106.3,42.3 107.0,41.9" fill="rgb(211,211,219)" stroke="rgba(34,42,48,0.22)" stroke-width="0.35"/>
<polygon points="106.3,42.3 91.8,35.5 106.3,43.1" fill="rgb(181,181,189)" stroke="rgba(34,42,48,0.22)" stroke-width="0.35"/>
<polygon points="108.6,42.5 108.6,44.6 112.0,44.7" fill="rgb(181,181,189)" stroke="rgba(34,42,48,0.22)" stroke-width="0.35"/>
<polygon points="108.6,44.6 134.2,44.9 123.3,51.5" fill="rgb(211,211,219)" stroke="rgba(34,42,48,0.22)" stroke-width="0.35"/>
<polygon points="164.4,102.9 151.6,96.8 154.6,98.2" fill="rgb(178,178,186)" stroke="rgba(34,42,48,0.22)" stroke-width="0.35"/>
<polygon points="151.6,96.8 164.4,102.4 151.6,96.3" fill="rgb(181,181,189)" stroke="rgba(34,42,48,0.22)" stroke-width="0.35"/>
<polygon points="164.4,102.4 155.0,96.2 151.6,96.3" fill="rgb(211,211,219)" stroke="rgba(34,42,48,0.22)" stroke-width="0.35"/>
<polygon points="123.3,51.5 112.0,44.7 108.6,44.6" fill="rgb(181,181,189)" stroke="rgba(34,42,48,0.22)" stroke-width="0.35"/>
<polygon points="153.8,115.2 153.8,53.3 164.3,47.0" fill="rgb(195,195,203)" stroke="rgba(34,42,48,0.22)" stroke-width="0.35"/>
<polygon points="122.5,42.3 114.7,36.3 107.9,40.5" fill="rgb(195,195,203)" stroke="rgba(34,42,48,0.22)" stroke-width="0.35"/>
<polygon points="164.4,102.9 154.6,98.2 165.8,103.5" fill="rgb(178,178,186)" stroke="rgba(34,42,48,0.22)" stroke-width="0.35"/>
<polygon points="123.3,44.3 107.9,43.0 108.6,42.5" fill="rgb(195,195,203)" stroke="rgba(34,42,48,0.22)" stroke-width="0.35"/>
<polygon points="112.0,44.7 121.0,49.7 111.3,45.1" fill="rgb(211,211,219)" stroke="rgba(34,42,48,0.22)" stroke-width="0.35"/>
<polygon points="153.8,115.2 114.3,155.0 168.4,122.1" fill="rgb(211,211,219)" stroke="rgba(34,42,48,0.22)" stroke-width="0.35"/>
<polygon points="123.3,44.3 108.6,42.5 112.0,44.7" fill="rgb(181,181,189)" stroke="rgba(34,42,48,0.22)" stroke-width="0.35"/>
<polygon points="121.7,45.5 112.0,44.7 111.3,45.1" fill="rgb(193,193,201)" stroke="rgba(34,42,48,0.22)" stroke-width="0.35"/>
<polygon points="136.6,39.3 161.0,57.3 134.2,44.9" fill="rgb(212,212,220)" stroke="rgba(34,42,48,0.22)" stroke-width="0.35"/>
<polygon points="155.0,96.2 164.4,102.4 166.0,101.4" fill="rgb(211,211,219)" stroke="rgba(34,42,48,0.22)" stroke-width="0.35"/>
<polygon points="157.4,59.0 157.4,94.7 155.0,96.2" fill="rgb(195,195,203)" stroke="rgba(34,42,48,0.22)" stroke-width="0.35"/>
<polygon points="164.4,102.4 151.6,96.8 164.4,102.9" fill="rgb(181,181,189)" stroke="rgba(34,42,48,0.22)" stroke-width="0.35"/>
<polygon points="107.9,43.0 121.6,44.5 107.0,42.7" fill="rgb(169,169,177)" stroke="rgba(34,42,48,0.22)" stroke-width="0.35"/>
<polygon points="153.8,53.3 128.6,44.9 142.3,36.6" fill="rgb(211,211,219)" stroke="rgba(34,42,48,0.22)" stroke-width="0.35"/>
<polygon points="111.3,45.1 121.0,49.7 116.8,46.6" fill="rgb(169,169,177)" stroke="rgba(34,42,48,0.22)" stroke-width="0.35"/>
<polygon points="112.0,44.7 123.3,51.5 121.7,49.2" fill="rgb(181,181,189)" stroke="rgba(34,42,48,0.22)" stroke-width="0.35"/>
<polygon points="121.0,49.7 112.0,44.7 121.7,49.2" fill="rgb(211,211,219)" stroke="rgba(34,42,48,0.22)" stroke-width="0.35"/>
<polygon points="121.6,43.8 107.9,40.5 107.0,41.9" fill="rgb(204,204,212)" stroke="rgba(34,42,48,0.22)" stroke-width="0.35"/>
<polygon points="107.0,42.7 120.9,44.9 106.3,43.1" fill="rgb(195,195,203)" stroke="rgba(34,42,48,0.22)" stroke-width="0.35"/>
<polygon points="129.4,38.2 114.7,36.3 122.5,42.3" fill="rgb(195,195,203)" stroke="rgba(34,42,48,0.22)" stroke-width="0.35"/>
<polygon points="106.3,42.3 121.6,43.8 107.0,41.9" fill="rgb(195,195,203)" stroke="rgba(34,42,48,0.22)" stroke-width="0.35"/>
<polygon points="120.9,44.9 106.3,42.3 106.3,43.1" fill="rgb(181,181,189)" stroke="rgba(34,42,48,0.22)" stroke-width="0.35"/>
<polygon points="121.0,46.0 111.3,45.1 116.8,46.6" fill="rgb(192,192,200)" stroke="rgba(34,42,48,0.22)" stroke-width="0.35"/>
<polygon points="142.3,36.6 164.3,47.0 153.8,53.3" fill="rgb(211,211,219)" stroke="rgba(34,42,48,0.22)" stroke-width="0.35"/>
<polygon points="111.3,45.1 121.0,46.0 121.7,45.5" fill="rgb(193,193,201)" stroke="rgba(34,42,48,0.22)" stroke-width="0.35"/>
<polygon points="123.3,44.3 112.0,44.7 121.7,45.5" fill="rgb(181,181,189)" stroke="rgba(34,42,48,0.22)" stroke-width="0.35"/>
<polygon points="153.8,53.3 159.3,117.8 159.3,55.9" fill="rgb(181,181,189)" stroke="rgba(34,42,48,0.22)" stroke-width="0.35"/>
<polygon points="134.2,44.9 137.9,58.4 123.3,51.5" fill="rgb(211,211,219)" stroke="rgba(34,42,48,0.22)" stroke-width="0.35"/>
<polygon points="107.9,43.0 123.3,44.3 122.5,44.8" fill="rgb(195,195,203)" stroke="rgba(34,42,48,0.22)" stroke-width="0.35"/>
<polygon points="121.0,49.7 121.0,46.0 116.8,46.6" fill="rgb(184,184,192)" stroke="rgba(34,42,48,0.22)" stroke-width="0.35"/>
<polygon points="123.3,51.5 121.7,45.5 121.7,49.2" fill="rgb(181,181,189)" stroke="rgba(34,42,48,0.22)" stroke-width="0.35"/>
<polygon points="121.7,49.2 121.0,46.0 121.0,49.7" fill="rgb(195,195,203)" stroke="rgba(34,42,48,0.22)" stroke-width="0.35"/>
<polygon points="121.6,44.5 107.9,43.0 122.5,44.8" fill="rgb(169,169,177)" stroke="rgba(34,42,48,0.22)" stroke-width="0.35"/>
<polygon points="121.0,46.0 121.7,49.2 121.7,45.5" fill="rgb(195,195,203)" stroke="rgba(34,42,48,0.22)" stroke-width="0.35"/>
<polygon points="120.9,44.9 107.0,42.7 121.6,44.5" fill="rgb(195,195,203)" stroke="rgba(34,42,48,0.22)" stroke-width="0.35"/>
<polygon points="124.9,47.1 123.3,51.5 124.9,50.8" fill="rgb(181,181,189)" stroke="rgba(34,42,48,0.22)" stroke-width="0.35"/>
<polygon points="121.7,45.5 123.3,51.5 123.3,44.3" fill="rgb(181,181,189)" stroke="rgba(34,42,48,0.22)" stroke-width="0.35"/>
<polygon points="107.9,40.5 121.6,43.8 122.5,42.3" fill="rgb(204,204,212)" stroke="rgba(34,42,48,0.22)" stroke-width="0.35"/>
<polygon points="161.0,57.3 136.6,39.3 163.4,51.7" fill="rgb(212,212,220)" stroke="rgba(34,42,48,0.22)" stroke-width="0.35"/>
<polygon points="121.6,43.8 106.3,42.3 120.9,44.2" fill="rgb(195,195,203)" stroke="rgba(34,42,48,0.22)" stroke-width="0.35"/>
<polygon points="106.3,42.3 120.9,44.9 120.9,44.2" fill="rgb(181,181,189)" stroke="rgba(34,42,48,0.22)" stroke-width="0.35"/>
<polygon points="123.3,51.5 124.9,47.1 123.3,44.3" fill="rgb(181,181,189)" stroke="rgba(34,42,48,0.22)" stroke-width="0.35"/>
<polygon points="137.9,58.4 134.2,44.9 161.0,57.3" fill="rgb(211,211,219)" stroke="rgba(34,42,48,0.22)" stroke-width="0.35"/>
<polygon points="166.0,101.4 166.0,65.7 155.0,96.2" fill="rgb(181,181,189)" stroke="rgba(34,42,48,0.22)" stroke-width="0.35"/>
<polygon points="124.2,47.5 124.9,50.8 124.2,51.2" fill="rgb(195,195,203)" stroke="rgba(34,42,48,0.22)" stroke-width="0.35"/>
<polygon points="114.3,155.0 153.8,115.2 77.7,137.7" fill="rgb(211,211,219)" stroke="rgba(34,42,48,0.22)" stroke-width="0.35"/>
<polygon points="123.3,51.5 134.6,55.3 124.9,50.8" fill="rgb(181,181,189)" stroke="rgba(34,42,48,0.22)" stroke-width="0.35"/>
<polygon points="124.9,50.8 124.2,47.5 124.9,47.1" fill="rgb(195,195,203)" stroke="rgba(34,42,48,0.22)" stroke-width="0.35"/>
<polygon points="155.0,96.2 155.0,60.5 157.4,59.0" fill="rgb(195,195,203)" stroke="rgba(34,42,48,0.22)" stroke-width="0.35"/>
<polygon points="154.7,64.3 156.4,65.6 154.7,64.8" fill="rgb(211,211,219)" stroke="rgba(34,42,48,0.22)" stroke-width="0.35"/>
<polygon points="134.6,55.3 124.2,51.2 124.9,50.8" fill="rgb(211,211,219)" stroke="rgba(34,42,48,0.22)" stroke-width="0.35"/>
<polygon points="152.8,66.0 154.7,64.3 154.7,64.8" fill="rgb(211,211,219)" stroke="rgba(34,42,48,0.22)" stroke-width="0.35"/>
<polygon points="124.2,51.2 128.0,51.9 124.2,47.5" fill="rgb(179,179,187)" stroke="rgba(34,42,48,0.22)" stroke-width="0.35"/>
<polygon points="156.4,65.6 154.7,64.3 157.4,65.5" fill="rgb(211,211,219)" stroke="rgba(34,42,48,0.22)" stroke-width="0.35"/>
<polygon points="144.0,50.2 129.4,38.2 122.5,42.3" fill="rgb(221,221,229)" stroke="rgba(34,42,48,0.22)" stroke-width="0.35"/>
<polygon points="156.4,65.6 154.6,66.8 154.7,64.8" fill="rgb(217,217,225)" stroke="rgba(34,42,48,0.22)" stroke-width="0.35"/>
<polygon points="154.7,64.8 154.6,66.8 152.8,66.0" fill="rgb(225,225,233)" stroke="rgba(34,42,48,0.22)" stroke-width="0.35"/>
<polygon points="154.7,64.3 152.8,66.0 151.8,66.1" fill="rgb(211,211,219)" stroke="rgba(34,42,48,0.22)" stroke-width="0.35"/>
<polygon points="123.3,44.3 124.9,47.1 134.6,55.3" fill="rgb(181,181,189)" stroke="rgba(34,42,48,0.22)" stroke-width="0.35"/>
<polygon points="154.5,66.8 154.6,66.8 156.4,65.6" fill="rgb(161,161,169)" stroke="rgba(34,42,48,0.22)" stroke-width="0.35"/>
<polygon points="152.8,66.0 154.6,66.8 154.5,66.8" fill="rgb(178,178,186)" stroke="rgba(34,42,48,0.22)" stroke-width="0.35"/>
<polygon points="165.2,62.2 128.6,43.7 128.6,44.9" fill="rgb(181,181,189)" stroke="rgba(34,42,48,0.22)" stroke-width="0.35"/>
<polygon points="133.9,55.8 128.0,51.9 124.2,51.2" fill="rgb(169,169,177)" stroke="rgba(34,42,48,0.22)" stroke-width="0.35"/>
<polygon points="133.9,55.8 124.9,47.1 124.2,47.5" fill="rgb(222,222,230)" stroke="rgba(34,42,48,0.22)" stroke-width="0.35"/>
<polygon points="157.4,65.5 154.4,67.3 156.4,65.6" fill="rgb(211,211,219)" stroke="rgba(34,42,48,0.22)" stroke-width="0.35"/>
<polygon points="150.2,64.0 154.7,64.3 151.8,66.1" fill="rgb(195,195,203)" stroke="rgba(34,42,48,0.22)" stroke-width="0.35"/>
<polygon points="165.2,61.0 129.4,43.2 128.6,43.7" fill="rgb(211,211,219)" stroke="rgba(34,42,48,0.22)" stroke-width="0.35"/>
<polygon points="154.5,66.8 151.8,66.1 152.8,66.0" fill="rgb(211,211,219)" stroke="rgba(34,42,48,0.22)" stroke-width="0.35"/>
<polygon points="123.3,51.5 137.9,58.4 134.6,55.3" fill="rgb(181,181,189)" stroke="rgba(34,42,48,0.22)" stroke-width="0.35"/>
<polygon points="166.0,60.5 129.4,40.3 129.4,43.2" fill="rgb(181,181,189)" stroke="rgba(34,42,48,0.22)" stroke-width="0.35"/>
<polygon points="150.6,55.3 128.6,44.9 153.8,53.3" fill="rgb(211,211,219)" stroke="rgba(34,42,48,0.22)" stroke-width="0.35"/>
<polygon points="156.4,65.6 154.4,67.3 154.5,66.8" fill="rgb(211,211,219)" stroke="rgba(34,42,48,0.22)" stroke-width="0.35"/>
<polygon points="124.2,47.5 128.0,51.9 133.9,55.8" fill="rgb(199,199,207)" stroke="rgba(34,42,48,0.22)" stroke-width="0.35"/>
<polygon points="154.7,64.3 150.2,64.0 154.7,56.8" fill="rgb(195,195,203)" stroke="rgba(34,42,48,0.22)" stroke-width="0.35"/>
<polygon points="124.2,51.2 134.6,55.3 133.9,55.8" fill="rgb(211,211,219)" stroke="rgba(34,42,48,0.22)" stroke-width="0.35"/>
<polygon points="154.4,67.3 151.8,66.1 154.5,66.8" fill="rgb(211,211,219)" stroke="rgba(34,42,48,0.22)" stroke-width="0.35"/>
<polygon points="123.3,44.3 137.2,56.8 122.5,44.8" fill="rgb(221,221,229)" stroke="rgba(34,42,48,0.22)" stroke-width="0.35"/>
<polygon points="134.6,55.3 124.9,47.1 133.9,55.8" fill="rgb(222,222,230)" stroke="rgba(34,42,48,0.22)" stroke-width="0.35"/>
<polygon points="155.0,60.5 155.0,96.2 166.0,65.7" fill="rgb(181,181,189)" stroke="rgba(34,42,48,0.22)" stroke-width="0.35"/>
<polygon points="137.2,56.8 121.6,44.5 122.5,44.8" fill="rgb(190,190,198)" stroke="rgba(34,42,48,0.22)" stroke-width="0.35"/>
<polygon points="157.4,65.5 152.8,65.2 154.4,67.3" fill="rgb(195,195,203)" stroke="rgba(34,42,48,0.22)" stroke-width="0.35"/>
<polygon points="123.3,44.3 134.6,55.3 137.9,56.3" fill="rgb(181,181,189)" stroke="rgba(34,42,48,0.22)" stroke-width="0.35"/>
<polygon points="154.4,67.3 152.8,65.2 151.8,66.1" fill="rgb(158,158,166)" stroke="rgba(34,42,48,0.22)" stroke-width="0.35"/>
<polygon points="152.8,65.2 157.4,65.5 157.3,58.0" fill="rgb(195,195,203)" stroke="rgba(34,42,48,0.22)" stroke-width="0.35"/>
<polygon points="152.8,65.2 150.2,64.0 151.8,66.1" fill="rgb(158,158,166)" stroke="rgba(34,42,48,0.22)" stroke-width="0.35"/>
<polygon points="136.3,56.5 120.9,44.9 121.6,44.5" fill="rgb(221,221,229)" stroke="rgba(34,42,48,0.22)" stroke-width="0.35"/>
<polygon points="121.6,43.8 137.2,54.4 122.5,42.3" fill="rgb(226,226,234)" stroke="rgba(34,42,48,0.22)" stroke-width="0.35"/>
<polygon points="122.5,42.3 137.2,54.4 144.0,50.2" fill="rgb(221,221,229)" stroke="rgba(34,42,48,0.22)" stroke-width="0.35"/>
<polygon points="137.2,56.8 123.3,44.3 137.9,56.3" fill="rgb(221,221,229)" stroke="rgba(34,42,48,0.22)" stroke-width="0.35"/>
<polygon points="135.6,56.2 121.6,43.8 120.9,44.2" fill="rgb(221,221,229)" stroke="rgba(34,42,48,0.22)" stroke-width="0.35"/>
<polygon points="120.9,44.9 135.6,56.2 120.9,44.2" fill="rgb(181,181,189)" stroke="rgba(34,42,48,0.22)" stroke-width="0.35"/>
<polygon points="137.9,58.4 137.9,56.3 134.6,55.3" fill="rgb(181,181,189)" stroke="rgba(34,42,48,0.22)" stroke-width="0.35"/>
<polygon points="157.4,59.0 155.0,60.5 156.5,58.6" fill="rgb(211,211,219)" stroke="rgba(34,42,48,0.22)" stroke-width="0.35"/>
<polygon points="156.5,58.6 153.3,60.5 156.5,57.5" fill="rgb(195,195,203)" stroke="rgba(34,42,48,0.22)" stroke-width="0.35"/>
<polygon points="136.3,56.5 121.6,44.5 137.2,56.8" fill="rgb(190,190,198)" stroke="rgba(34,42,48,0.22)" stroke-width="0.35"/>
<polygon points="150.2,64.0 146.7,61.7 154.7,56.8" fill="rgb(195,195,203)" stroke="rgba(34,42,48,0.22)" stroke-width="0.35"/>
<polygon points="153.3,59.5 154.7,54.6 156.5,57.5" fill="rgb(225,225,233)" stroke="rgba(34,42,48,0.22)" stroke-width="0.35"/>
<polygon points="151.2,66.2 148.6,65.0 150.2,64.0" fill="rgb(211,211,219)" stroke="rgba(34,42,48,0.22)" stroke-width="0.35"/>
<polygon points="152.8,65.2 151.2,66.2 150.2,64.0" fill="rgb(211,211,219)" stroke="rgba(34,42,48,0.22)" stroke-width="0.35"/>
<polygon points="153.8,54.2 148.1,57.6 153.8,53.3" fill="rgb(195,195,203)" stroke="rgba(34,42,48,0.22)" stroke-width="0.35"/>
<polygon points="149.9,57.5 153.8,54.2 154.7,54.6" fill="rgb(211,211,219)" stroke="rgba(34,42,48,0.22)" stroke-width="0.35"/>
<polygon points="155.0,60.5 153.3,60.5 156.5,58.6" fill="rgb(211,211,219)" stroke="rgba(34,42,48,0.22)" stroke-width="0.35"/>
<polygon points="137.2,54.4 121.6,43.8 136.3,55.8" fill="rgb(226,226,234)" stroke="rgba(34,42,48,0.22)" stroke-width="0.35"/>
<polygon points="135.6,57.0 120.9,44.9 136.3,56.5" fill="rgb(221,221,229)" stroke="rgba(34,42,48,0.22)" stroke-width="0.35"/>
<polygon points="149.3,62.9 157.3,58.0 154.7,56.8" fill="rgb(211,211,219)" stroke="rgba(34,42,48,0.22)" stroke-width="0.35"/>
<polygon points="153.3,59.5 156.5,57.5 153.3,60.5" fill="rgb(195,195,203)" stroke="rgba(34,42,48,0.22)" stroke-width="0.35"/>
<polygon points="136.3,55.8 121.6,43.8 135.6,56.2" fill="rgb(221,221,229)" stroke="rgba(34,42,48,0.22)" stroke-width="0.35"/>
<polygon points="148.6,65.0 146.7,61.7 150.2,64.0" fill="rgb(195,195,203)" stroke="rgba(34,42,48,0.22)" stroke-width="0.35"/>
<polygon points="135.6,56.2 120.9,44.9 135.6,57.0" fill="rgb(181,181,189)" stroke="rgba(34,42,48,0.22)" stroke-width="0.35"/>
<polygon points="156.5,54.4 153.8,53.3 153.3,56.4" fill="rgb(208,208,216)" stroke="rgba(34,42,48,0.22)" stroke-width="0.35"/>
<polygon points="154.7,54.6 153.3,59.5 149.9,57.5" fill="rgb(225,225,233)" stroke="rgba(34,42,48,0.22)" stroke-width="0.35"/>
<polygon points="151.2,66.2 146.7,64.3 148.6,65.0" fill="rgb(180,180,188)" stroke="rgba(34,42,48,0.22)" stroke-width="0.35"/>
<polygon points="149.9,64.0 137.9,58.4 161.0,57.3" fill="rgb(211,211,219)" stroke="rgba(34,42,48,0.22)" stroke-width="0.35"/>
<polygon points="156.8,56.2 144.0,50.2 137.2,54.4" fill="rgb(211,211,219)" stroke="rgba(34,42,48,0.22)" stroke-width="0.35"/>
<polygon points="153.8,54.2 149.9,57.5 148.1,57.6" fill="rgb(211,211,219)" stroke="rgba(34,42,48,0.22)" stroke-width="0.35"/>
<polygon points="149.3,62.9 152.8,65.2 157.3,58.0" fill="rgb(195,195,203)" stroke="rgba(34,42,48,0.22)" stroke-width="0.35"/>
<polygon points="148.1,56.6 153.8,53.3 148.1,57.6" fill="rgb(195,195,203)" stroke="rgba(34,42,48,0.22)" stroke-width="0.35"/>
<polygon points="153.3,56.4 153.8,53.3 148.1,56.6" fill="rgb(209,209,217)" stroke="rgba(34,42,48,0.22)" stroke-width="0.35"/>
<polygon points="146.7,61.7 148.6,65.0 146.7,64.3" fill="rgb(195,195,203)" stroke="rgba(34,42,48,0.22)" stroke-width="0.35"/>
<polygon points="149.3,62.9 154.7,56.8 146.7,61.7" fill="rgb(211,211,219)" stroke="rgba(34,42,48,0.22)" stroke-width="0.35"/>
<polygon points="149.9,64.0 137.9,56.3 137.9,58.4" fill="rgb(181,181,189)" stroke="rgba(34,42,48,0.22)" stroke-width="0.35"/>
<polygon points="152.8,65.2 149.3,62.9 151.2,66.2" fill="rgb(195,195,203)" stroke="rgba(34,42,48,0.22)" stroke-width="0.35"/>
<polygon points="149.9,64.0 161.0,57.3 155.9,58.3" fill="rgb(195,195,203)" stroke="rgba(34,42,48,0.22)" stroke-width="0.35"/>
<polygon points="151.2,66.2 149.3,65.5 146.7,64.3" fill="rgb(180,180,188)" stroke="rgba(34,42,48,0.22)" stroke-width="0.35"/>
<polygon points="146.7,61.7 146.7,64.3 147.0,64.1" fill="rgb(181,181,189)" stroke="rgba(34,42,48,0.22)" stroke-width="0.35"/>
<polygon points="146.7,64.3 148.9,65.0 147.0,64.1" fill="rgb(181,181,189)" stroke="rgba(34,42,48,0.22)" stroke-width="0.35"/>
<polygon points="149.9,62.0 137.2,56.8 137.9,56.3" fill="rgb(211,211,219)" stroke="rgba(34,42,48,0.22)" stroke-width="0.35"/>
<polygon points="129.4,43.2 165.2,61.0 166.0,60.5" fill="rgb(211,211,219)" stroke="rgba(34,42,48,0.22)" stroke-width="0.35"/>
<polygon points="146.7,61.7 147.0,64.1 147.0,62.2" fill="rgb(181,181,189)" stroke="rgba(34,42,48,0.22)" stroke-width="0.35"/>
<polygon points="146.7,64.3 149.3,65.5 148.9,65.0" fill="rgb(181,181,189)" stroke="rgba(34,42,48,0.22)" stroke-width="0.35"/>
<polygon points="165.2,61.0 128.6,43.7 165.2,62.2" fill="rgb(181,181,189)" stroke="rgba(34,42,48,0.22)" stroke-width="0.35"/>
<polygon points="165.2,66.1 153.3,60.5 155.0,60.5" fill="rgb(211,211,219)" stroke="rgba(34,42,48,0.22)" stroke-width="0.35"/>
<polygon points="151.2,66.2 149.3,62.9 149.3,65.5" fill="rgb(195,195,203)" stroke="rgba(34,42,48,0.22)" stroke-width="0.35"/>
<polygon points="147.0,64.1 147.0,64.2 147.0,62.2" fill="rgb(164,164,172)" stroke="rgba(34,42,48,0.22)" stroke-width="0.35"/>
<polygon points="165.2,66.1 153.3,59.5 153.3,60.5" fill="rgb(181,181,189)" stroke="rgba(34,42,48,0.22)" stroke-width="0.35"/>
<polygon points="148.9,65.0 147.0,64.2 147.0,64.1" fill="rgb(180,180,188)" stroke="rgba(34,42,48,0.22)" stroke-width="0.35"/>
<polygon points="166.0,57.6 129.4,40.3 166.0,60.5" fill="rgb(181,181,189)" stroke="rgba(34,42,48,0.22)" stroke-width="0.35"/>
<polygon points="150.0,62.9 136.3,56.5 137.2,56.8" fill="rgb(180,180,188)" stroke="rgba(34,42,48,0.22)" stroke-width="0.35"/>
<polygon points="148.9,63.1 146.7,61.7 147.0,62.2" fill="rgb(181,181,189)" stroke="rgba(34,42,48,0.22)" stroke-width="0.35"/>
<polygon points="149.3,65.5 148.9,63.1 148.9,65.0" fill="rgb(181,181,189)" stroke="rgba(34,42,48,0.22)" stroke-width="0.35"/>
<polygon points="147.0,62.2 147.0,64.2 148.9,63.1" fill="rgb(217,217,225)" stroke="rgba(34,42,48,0.22)" stroke-width="0.35"/>
<polygon points="148.9,63.1 147.0,64.2 148.9,65.0" fill="rgb(205,205,213)" stroke="rgba(34,42,48,0.22)" stroke-width="0.35"/>
<polygon points="149.3,62.9 146.7,61.7 148.9,63.1" fill="rgb(181,181,189)" stroke="rgba(34,42,48,0.22)" stroke-width="0.35"/>
<polygon points="149.3,65.5 149.3,62.9 148.9,63.1" fill="rgb(181,181,189)" stroke="rgba(34,42,48,0.22)" stroke-width="0.35"/>
<polygon points="156.9,58.7 149.9,62.0 155.9,58.3" fill="rgb(211,211,219)" stroke="rgba(34,42,48,0.22)" stroke-width="0.35"/>
<polygon points="137.9,56.3 149.9,64.0 149.9,62.0" fill="rgb(181,181,189)" stroke="rgba(34,42,48,0.22)" stroke-width="0.35"/>
<polygon points="136.3,55.8 150.0,60.4 137.2,54.4" fill="rgb(217,217,225)" stroke="rgba(34,42,48,0.22)" stroke-width="0.35"/>
<polygon points="149.9,63.0 135.6,57.0 136.3,56.5" fill="rgb(211,211,219)" stroke="rgba(34,42,48,0.22)" stroke-width="0.35"/>
<polygon points="153.3,59.5 163.6,64.0 149.9,57.5" fill="rgb(171,171,179)" stroke="rgba(34,42,48,0.22)" stroke-width="0.35"/>
<polygon points="149.9,62.2 136.3,55.8 135.6,56.2" fill="rgb(211,211,219)" stroke="rgba(34,42,48,0.22)" stroke-width="0.35"/>
<polygon points="157.7,58.3 150.0,62.9 156.9,58.7" fill="rgb(163,163,171)" stroke="rgba(34,42,48,0.22)" stroke-width="0.35"/>
<polygon points="165.2,66.1 155.0,60.5 166.0,65.7" fill="rgb(211,211,219)" stroke="rgba(34,42,48,0.22)" stroke-width="0.35"/>
<polygon points="150.0,60.4 156.8,56.2 137.2,54.4" fill="rgb(211,211,219)" stroke="rgba(34,42,48,0.22)" stroke-width="0.35"/>
<polygon points="155.9,58.3 149.9,62.0 149.9,64.0" fill="rgb(195,195,203)" stroke="rgba(34,42,48,0.22)" stroke-width="0.35"/>
<polygon points="162.8,64.5 148.1,57.6 149.9,57.5" fill="rgb(211,211,219)" stroke="rgba(34,42,48,0.22)" stroke-width="0.35"/>
<polygon points="137.2,56.8 149.9,62.0 150.0,62.9" fill="rgb(211,211,219)" stroke="rgba(34,42,48,0.22)" stroke-width="0.35"/>
<polygon points="135.6,57.0 150.1,63.0 135.6,56.2" fill="rgb(181,181,189)" stroke="rgba(34,42,48,0.22)" stroke-width="0.35"/>
<polygon points="162.8,64.5 148.1,56.6 148.1,57.6" fill="rgb(181,181,189)" stroke="rgba(34,42,48,0.22)" stroke-width="0.35"/>
<polygon points="153.3,59.5 165.2,66.1 165.2,65.1" fill="rgb(181,181,189)" stroke="rgba(34,42,48,0.22)" stroke-width="0.35"/>
<polygon points="162.8,63.5 153.3,56.4 148.1,56.6" fill="rgb(211,211,219)" stroke="rgba(34,42,48,0.22)" stroke-width="0.35"/>
<polygon points="156.8,56.2 150.0,60.4 157.7,57.5" fill="rgb(225,225,233)" stroke="rgba(34,42,48,0.22)" stroke-width="0.35"/>
<polygon points="158.6,58.7 149.9,63.0 157.7,58.3" fill="rgb(211,211,219)" stroke="rgba(34,42,48,0.22)" stroke-width="0.35"/>
<polygon points="156.9,58.7 150.0,62.9 149.9,62.0" fill="rgb(211,211,219)" stroke="rgba(34,42,48,0.22)" stroke-width="0.35"/>
<polygon points="149.9,62.2 158.6,57.9 157.7,57.5" fill="rgb(211,211,219)" stroke="rgba(34,42,48,0.22)" stroke-width="0.35"/>
<polygon points="149.9,63.0 136.3,56.5 150.0,62.9" fill="rgb(180,180,188)" stroke="rgba(34,42,48,0.22)" stroke-width="0.35"/>
<polygon points="163.6,64.0 153.3,59.5 165.2,65.1" fill="rgb(171,171,179)" stroke="rgba(34,42,48,0.22)" stroke-width="0.35"/>
<polygon points="150.1,63.0 158.6,58.7 158.6,57.9" fill="rgb(195,195,203)" stroke="rgba(34,42,48,0.22)" stroke-width="0.35"/>
<polygon points="150.0,60.4 136.3,55.8 149.9,62.2" fill="rgb(217,217,225)" stroke="rgba(34,42,48,0.22)" stroke-width="0.35"/>
<polygon points="150.0,62.9 157.7,58.3 149.9,63.0" fill="rgb(163,163,171)" stroke="rgba(34,42,48,0.22)" stroke-width="0.35"/>
<polygon points="135.6,57.0 149.9,63.0 150.1,63.8" fill="rgb(211,211,219)" stroke="rgba(34,42,48,0.22)" stroke-width="0.35"/>
<polygon points="149.9,62.2 157.7,57.5 150.0,60.4" fill="rgb(225,225,233)" stroke="rgba(34,42,48,0.22)" stroke-width="0.35"/>
<polygon points="149.9,57.5 163.6,64.0 162.8,64.5" fill="rgb(211,211,219)" stroke="rgba(34,42,48,0.22)" stroke-width="0.35"/>
<polygon points="153.3,56.4 162.8,63.5 165.2,62.2" fill="rgb(209,209,217)" stroke="rgba(34,42,48,0.22)" stroke-width="0.35"/>
<polygon points="135.6,56.2 150.1,63.0 149.9,62.2" fill="rgb(211,211,219)" stroke="rgba(34,42,48,0.22)" stroke-width="0.35"/>
<polygon points="150.1,63.0 135.6,57.0 150.1,63.8" fill="rgb(181,181,189)" stroke="rgba(34,42,48,0.22)" stroke-width="0.35"/>
<polygon points="158.6,58.7 150.1,63.8 149.9,63.0" fill="rgb(211,211,219)" stroke="rgba(34,42,48,0.22)" stroke-width="0.35"/>
<polygon points="148.1,56.6 162.8,64.5 162.8,63.5" fill="rgb(181,181,189)" stroke="rgba(34,42,48,0.22)" stroke-width="0.35"/>
<polygon points="158.6,57.9 149.9,62.2 150.1,63.0" fill="rgb(211,211,219)" stroke="rgba(34,42,48,0.22)" stroke-width="0.35"/>
<polygon points="158.6,58.7 150.1,63.0 150.1,63.8" fill="rgb(195,195,203)" stroke="rgba(34,42,48,0.22)" stroke-width="0.35"/></g>
  <text x="110" y="172" text-anchor="middle" font-family="ui-sans-serif, system-ui, sans-serif" font-size="12" fill="#27313a">Wall Door</text>
</svg>
