<svg xmlns="http://www.w3.org/2000/svg" width="220" height="190" viewBox="0 0 220 190">
  <rect width="100%" height="100%" fill="#edf1f5"/>
  <g><polygon points="87.5,101.1 65.4,72.5 65.4,90.6" fill="rgb(181,181,189)" stroke="rgba(34,42,48,0.22)" stroke-width="0.35"/>
<polygon points="106.7,110.2 65.4,90.6 62.9,92.2" fill="rgb(211,211,219)" stroke="rgba(34,42,48,0.22)" stroke-width="0.35"/>
<polygon points="148.2,134.2 65.6,95.2 65.6,113.7" fill="rgb(181,181,189)" stroke="rgba(34,42,48,0.22)" stroke-width="0.35"/>
<polygon points="85.8,82.2 63.8,71.9 65.4,72.5" fill="rgb(178,178,186)" stroke="rgba(34,42,48,0.22)" stroke-width="0.35"/>
<polygon points="63.8,71.3 86.1,79.8 65.6,70.2" fill="rgb(211,211,219)" stroke="rgba(34,42,48,0.22)" stroke-width="0.35"/>
<polygon points="87.5,101.1 87.5,83.0 65.4,72.5" fill="rgb(181,181,189)" stroke="rgba(34,42,48,0.22)" stroke-width="0.35"/>
<polygon points="145.5,135.8 62.9,96.8 65.6,95.2" fill="rgb(211,211,219)" stroke="rgba(34,42,48,0.22)" stroke-width="0.35"/>
<polygon points="84.2,81.5 63.8,71.3 63.8,71.9" fill="rgb(181,181,189)" stroke="rgba(34,42,48,0.22)" stroke-width="0.35"/>
<polygon points="145.5,131.2 62.9,92.2 62.9,96.8" fill="rgb(181,181,189)" stroke="rgba(34,42,48,0.22)" stroke-width="0.35"/>
<polygon points="84.2,81.5 63.8,71.9 85.8,82.2" fill="rgb(178,178,186)" stroke="rgba(34,42,48,0.22)" stroke-width="0.35"/>
<polygon points="86.1,79.8 63.8,71.3 84.2,80.9" fill="rgb(211,211,219)" stroke="rgba(34,42,48,0.22)" stroke-width="0.35"/>
<polygon points="84.2,80.9 63.8,71.3 84.2,81.5" fill="rgb(181,181,189)" stroke="rgba(34,42,48,0.22)" stroke-width="0.35"/>
<polygon points="106.7,110.2 87.5,85.3 87.5,101.1" fill="rgb(181,181,189)" stroke="rgba(34,42,48,0.22)" stroke-width="0.35"/>
<polygon points="87.8,88.7 85.6,87.9 87.7,86.6" fill="rgb(197,197,205)" stroke="rgba(34,42,48,0.22)" stroke-width="0.35"/>
<polygon points="90.0,80.8 84.8,84.0 84.8,81.7" fill="rgb(195,195,203)" stroke="rgba(34,42,48,0.22)" stroke-width="0.35"/>
<polygon points="85.6,87.9 87.8,88.7 85.5,90.0" fill="rgb(196,196,204)" stroke="rgba(34,42,48,0.22)" stroke-width="0.35"/>
<polygon points="87.7,86.6 84.8,84.0 86.1,83.2" fill="rgb(222,222,230)" stroke="rgba(34,42,48,0.22)" stroke-width="0.35"/>
<polygon points="95.4,83.4 92.9,82.2 87.8,85.4" fill="rgb(211,211,219)" stroke="rgba(34,42,48,0.22)" stroke-width="0.35"/>
<polygon points="87.7,86.6 85.6,87.9 84.8,84.0" fill="rgb(222,222,230)" stroke="rgba(34,42,48,0.22)" stroke-width="0.35"/>
<polygon points="87.8,83.1 87.8,85.4 92.9,82.2" fill="rgb(195,195,203)" stroke="rgba(34,42,48,0.22)" stroke-width="0.35"/>
<polygon points="84.8,84.0 85.6,87.9 81.8,85.8" fill="rgb(222,222,230)" stroke="rgba(34,42,48,0.22)" stroke-width="0.35"/>
<polygon points="106.0,94.0 105.7,77.1 95.4,83.4" fill="rgb(211,211,219)" stroke="rgba(34,42,48,0.22)" stroke-width="0.35"/>
<polygon points="87.8,83.1 84.8,81.7 84.8,84.0" fill="rgb(182,182,190)" stroke="rgba(34,42,48,0.22)" stroke-width="0.35"/>
<polygon points="105.7,33.1 95.4,83.4 105.7,77.1" fill="rgb(195,195,203)" stroke="rgba(34,42,48,0.22)" stroke-width="0.35"/>
<polygon points="85.8,82.2 86.1,79.8 84.2,81.5" fill="rgb(195,195,203)" stroke="rgba(34,42,48,0.22)" stroke-width="0.35"/>
<polygon points="87.8,85.4 87.8,83.1 84.8,84.0" fill="rgb(181,181,189)" stroke="rgba(34,42,48,0.22)" stroke-width="0.35"/>
<polygon points="86.9,81.9 85.5,82.0 87.1,82.7" fill="rgb(211,211,219)" stroke="rgba(34,42,48,0.22)" stroke-width="0.35"/>
<polygon points="84.2,81.5 86.1,79.8 84.2,80.9" fill="rgb(195,195,203)" stroke="rgba(34,42,48,0.22)" stroke-width="0.35"/>
<polygon points="65.6,113.7 148.2,152.8 148.2,134.2" fill="rgb(181,181,189)" stroke="rgba(34,42,48,0.22)" stroke-width="0.35"/>
<polygon points="85.9,39.5 65.6,70.2 86.1,79.8" fill="rgb(181,181,189)" stroke="rgba(34,42,48,0.22)" stroke-width="0.35"/>
<polygon points="106.0,94.0 95.4,83.4 87.8,85.4" fill="rgb(211,211,219)" stroke="rgba(34,42,48,0.22)" stroke-width="0.35"/>
<polygon points="106.0,94.0 137.2,92.0 105.7,77.1" fill="rgb(211,211,219)" stroke="rgba(34,42,48,0.22)" stroke-width="0.35"/>
<polygon points="106.0,94.0 84.8,84.0 81.8,85.8" fill="rgb(211,211,219)" stroke="rgba(34,42,48,0.22)" stroke-width="0.35"/>
<polygon points="62.9,92.2 145.5,131.2 106.7,110.2" fill="rgb(211,211,219)" stroke="rgba(34,42,48,0.22)" stroke-width="0.35"/>
<polygon points="84.8,46.0 90.0,80.8 84.8,81.7" fill="rgb(195,195,203)" stroke="rgba(34,42,48,0.22)" stroke-width="0.35"/>
<polygon points="95.4,83.4 95.2,39.4 92.9,82.2" fill="rgb(181,181,189)" stroke="rgba(34,42,48,0.22)" stroke-width="0.35"/>
<polygon points="87.8,88.7 124.8,108.5 85.5,90.0" fill="rgb(210,210,218)" stroke="rgba(34,42,48,0.22)" stroke-width="0.35"/>
<polygon points="65.6,70.2 85.9,39.5 65.6,29.9" fill="rgb(181,181,189)" stroke="rgba(34,42,48,0.22)" stroke-width="0.35"/>
<polygon points="87.8,83.1 92.9,82.2 87.8,47.3" fill="rgb(195,195,203)" stroke="rgba(34,42,48,0.22)" stroke-width="0.35"/>
<polygon points="85.5,46.3 84.8,81.7 85.5,82.0" fill="rgb(181,181,189)" stroke="rgba(34,42,48,0.22)" stroke-width="0.35"/>
<polygon points="86.9,46.2 85.5,82.0 86.9,81.9" fill="rgb(204,204,212)" stroke="rgba(34,42,48,0.22)" stroke-width="0.35"/>
<polygon points="85.5,90.0 124.8,106.4 85.6,87.9" fill="rgb(182,182,190)" stroke="rgba(34,42,48,0.22)" stroke-width="0.35"/>
<polygon points="87.1,82.7 86.9,46.2 86.9,81.9" fill="rgb(159,159,167)" stroke="rgba(34,42,48,0.22)" stroke-width="0.35"/>
<polygon points="87.8,83.1 87.1,47.0 87.1,82.7" fill="rgb(181,181,189)" stroke="rgba(34,42,48,0.22)" stroke-width="0.35"/>
<polygon points="87.5,85.3 106.7,110.2 125.8,103.4" fill="rgb(181,181,189)" stroke="rgba(34,42,48,0.22)" stroke-width="0.35"/>
<polygon points="124.3,105.8 81.8,85.8 85.6,87.9" fill="rgb(172,172,180)" stroke="rgba(34,42,48,0.22)" stroke-width="0.35"/>
<polygon points="65.6,95.2 148.2,134.2 145.5,135.8" fill="rgb(211,211,219)" stroke="rgba(34,42,48,0.22)" stroke-width="0.35"/>
<polygon points="84.8,46.0 90.0,36.7 90.0,80.8" fill="rgb(195,195,203)" stroke="rgba(34,42,48,0.22)" stroke-width="0.35"/>
<polygon points="95.2,39.4 95.4,83.4 105.7,33.1" fill="rgb(195,195,203)" stroke="rgba(34,42,48,0.22)" stroke-width="0.35"/>
<polygon points="62.9,96.8 145.5,135.8 145.5,131.2" fill="rgb(181,181,189)" stroke="rgba(34,42,48,0.22)" stroke-width="0.35"/>
<polygon points="92.9,38.1 87.8,47.3 92.9,82.2" fill="rgb(195,195,203)" stroke="rgba(34,42,48,0.22)" stroke-width="0.35"/>
<polygon points="92.9,38.1 92.9,82.2 95.2,39.4" fill="rgb(176,176,184)" stroke="rgba(34,42,48,0.22)" stroke-width="0.35"/>
<polygon points="84.8,81.7 85.5,46.3 84.8,46.0" fill="rgb(181,181,189)" stroke="rgba(34,42,48,0.22)" stroke-width="0.35"/>
<polygon points="85.5,82.0 86.9,46.2 85.5,46.3" fill="rgb(204,204,212)" stroke="rgba(34,42,48,0.22)" stroke-width="0.35"/>
<polygon points="137.2,92.0 106.0,94.0 127.1,98.3" fill="rgb(211,211,219)" stroke="rgba(34,42,48,0.22)" stroke-width="0.35"/>
<polygon points="124.8,108.5 87.8,88.7 126.9,107.2" fill="rgb(210,210,218)" stroke="rgba(34,42,48,0.22)" stroke-width="0.35"/>
<polygon points="65.6,29.9 83.0,39.1 64.7,30.4" fill="rgb(211,211,219)" stroke="rgba(34,42,48,0.22)" stroke-width="0.35"/>
<polygon points="125.8,119.2 125.8,103.4 106.7,110.2" fill="rgb(181,181,189)" stroke="rgba(34,42,48,0.22)" stroke-width="0.35"/>
<polygon points="81.8,85.8 124.3,105.8 106.0,94.0" fill="rgb(211,211,219)" stroke="rgba(34,42,48,0.22)" stroke-width="0.35"/>
<polygon points="87.1,82.7 87.1,47.0 86.9,46.2" fill="rgb(159,159,167)" stroke="rgba(34,42,48,0.22)" stroke-width="0.35"/>
<polygon points="87.1,47.0 87.8,83.1 87.8,47.3" fill="rgb(181,181,189)" stroke="rgba(34,42,48,0.22)" stroke-width="0.35"/>
<polygon points="124.8,106.4 85.5,90.0 124.8,108.5" fill="rgb(182,182,190)" stroke="rgba(34,42,48,0.22)" stroke-width="0.35"/>
<polygon points="124.3,105.8 85.6,87.9 124.8,106.4" fill="rgb(172,172,180)" stroke="rgba(34,42,48,0.22)" stroke-width="0.35"/>
<polygon points="83.0,39.1 65.6,29.9 83.9,38.5" fill="rgb(211,211,219)" stroke="rgba(34,42,48,0.22)" stroke-width="0.35"/>
<polygon points="106.0,94.0 124.3,102.6 127.1,98.3" fill="rgb(211,211,219)" stroke="rgba(34,42,48,0.22)" stroke-width="0.35"/>
<polygon points="90.0,36.7 84.8,46.0 84.8,44.8" fill="rgb(195,195,203)" stroke="rgba(34,42,48,0.22)" stroke-width="0.35"/>
<polygon points="89.2,35.3 78.2,41.9 89.2,32.9" fill="rgb(195,195,203)" stroke="rgba(34,42,48,0.22)" stroke-width="0.35"/>
<polygon points="86.9,46.2 87.1,47.0 85.5,46.3" fill="rgb(211,211,219)" stroke="rgba(34,42,48,0.22)" stroke-width="0.35"/>
<polygon points="87.8,47.3 84.8,44.8 84.8,46.0" fill="rgb(181,181,189)" stroke="rgba(34,42,48,0.22)" stroke-width="0.35"/>
<polygon points="127.1,98.3 137.2,48.0 137.2,92.0" fill="rgb(195,195,203)" stroke="rgba(34,42,48,0.22)" stroke-width="0.35"/>
<polygon points="129.5,99.5 127.1,98.3 124.3,102.6" fill="rgb(211,211,219)" stroke="rgba(34,42,48,0.22)" stroke-width="0.35"/>
<polygon points="106.7,110.2 145.5,131.2 148.0,129.7" fill="rgb(211,211,219)" stroke="rgba(34,42,48,0.22)" stroke-width="0.35"/>
<polygon points="87.8,46.2 84.8,44.8 87.8,47.3" fill="rgb(181,181,189)" stroke="rgba(34,42,48,0.22)" stroke-width="0.35"/>
<polygon points="87.8,46.2 83.0,45.9 84.8,44.8" fill="rgb(211,211,219)" stroke="rgba(34,42,48,0.22)" stroke-width="0.35"/>
<polygon points="87.8,47.3 92.9,38.1 87.8,46.2" fill="rgb(195,195,203)" stroke="rgba(34,42,48,0.22)" stroke-width="0.35"/>
<polygon points="95.2,39.4 78.2,41.9 89.2,35.3" fill="rgb(211,211,219)" stroke="rgba(34,42,48,0.22)" stroke-width="0.35"/>
<polygon points="84.8,44.8 80.8,42.3 90.0,36.7" fill="rgb(195,195,203)" stroke="rgba(34,42,48,0.22)" stroke-width="0.35"/>
<polygon points="89.2,32.9 78.2,39.6 84.0,34.9" fill="rgb(211,211,219)" stroke="rgba(34,42,48,0.22)" stroke-width="0.35"/>
<polygon points="106.0,94.0 124.3,105.8 127.3,104.0" fill="rgb(211,211,219)" stroke="rgba(34,42,48,0.22)" stroke-width="0.35"/>
<polygon points="90.0,36.7 83.8,43.6 92.9,38.1" fill="rgb(211,211,219)" stroke="rgba(34,42,48,0.22)" stroke-width="0.35"/>
<polygon points="87.8,46.2 85.9,47.3 83.0,45.9" fill="rgb(211,211,219)" stroke="rgba(34,42,48,0.22)" stroke-width="0.35"/>
<polygon points="124.8,106.4 126.9,107.2 126.9,105.1" fill="rgb(193,193,201)" stroke="rgba(34,42,48,0.22)" stroke-width="0.35"/>
<polygon points="83.0,45.9 80.8,42.3 84.8,44.8" fill="rgb(195,195,203)" stroke="rgba(34,42,48,0.22)" stroke-width="0.35"/>
<polygon points="76.3,39.6 83.1,33.6 84.0,34.9" fill="rgb(225,225,233)" stroke="rgba(34,42,48,0.22)" stroke-width="0.35"/>
<polygon points="74.4,38.9 82.1,33.1 83.1,33.6" fill="rgb(211,211,219)" stroke="rgba(34,42,48,0.22)" stroke-width="0.35"/>
<polygon points="126.9,107.2 124.8,106.4 124.8,108.5" fill="rgb(194,194,202)" stroke="rgba(34,42,48,0.22)" stroke-width="0.35"/>
<polygon points="82.1,33.1 72.6,38.0 82.1,32.2" fill="rgb(195,195,203)" stroke="rgba(34,42,48,0.22)" stroke-width="0.35"/>
<polygon points="129.5,99.5 124.3,102.6 124.3,100.3" fill="rgb(195,195,203)" stroke="rgba(34,42,48,0.22)" stroke-width="0.35"/>
<polygon points="95.2,39.4 105.7,33.1 137.2,48.0" fill="rgb(211,211,219)" stroke="rgba(34,42,48,0.22)" stroke-width="0.35"/>
<polygon points="74.4,38.0 83.1,32.7 82.1,32.2" fill="rgb(211,211,219)" stroke="rgba(34,42,48,0.22)" stroke-width="0.35"/>
<polygon points="83.8,43.6 87.8,46.2 92.9,38.1" fill="rgb(195,195,203)" stroke="rgba(34,42,48,0.22)" stroke-width="0.35"/>
<polygon points="78.2,39.6 89.2,32.9 78.2,41.9" fill="rgb(195,195,203)" stroke="rgba(34,42,48,0.22)" stroke-width="0.35"/>
<polygon points="85.9,47.3 83.8,46.5 83.0,45.9" fill="rgb(180,180,188)" stroke="rgba(34,42,48,0.22)" stroke-width="0.35"/>
<polygon points="76.3,36.9 84.1,32.2 83.1,32.7" fill="rgb(165,165,173)" stroke="rgba(34,42,48,0.22)" stroke-width="0.35"/>
<polygon points="80.8,42.3 83.0,45.9 80.8,45.1" fill="rgb(195,195,203)" stroke="rgba(34,42,48,0.22)" stroke-width="0.35"/>
<polygon points="127.3,104.0 124.8,106.4 126.9,105.1" fill="rgb(152,152,160)" stroke="rgba(34,42,48,0.22)" stroke-width="0.35"/>
<polygon points="83.8,46.5 80.8,45.1 83.0,45.9" fill="rgb(180,180,188)" stroke="rgba(34,42,48,0.22)" stroke-width="0.35"/>
<polygon points="83.8,43.6 90.0,36.7 80.8,42.3" fill="rgb(211,211,219)" stroke="rgba(34,42,48,0.22)" stroke-width="0.35"/>
<polygon points="127.3,104.0 126.9,105.1 128.5,103.2" fill="rgb(152,152,160)" stroke="rgba(34,42,48,0.22)" stroke-width="0.35"/>
<polygon points="87.8,46.2 83.8,43.6 85.9,47.3" fill="rgb(195,195,203)" stroke="rgba(34,42,48,0.22)" stroke-width="0.35"/>
<polygon points="84.0,34.9 78.2,39.6 76.3,39.6" fill="rgb(211,211,219)" stroke="rgba(34,42,48,0.22)" stroke-width="0.35"/>
<polygon points="127.3,101.7 127.3,104.0 132.4,100.9" fill="rgb(195,195,203)" stroke="rgba(34,42,48,0.22)" stroke-width="0.35"/>
<polygon points="127.3,104.0 124.3,100.3 124.3,102.6" fill="rgb(181,181,189)" stroke="rgba(34,42,48,0.22)" stroke-width="0.35"/>
<polygon points="83.1,33.6 76.3,39.6 74.4,38.9" fill="rgb(225,225,233)" stroke="rgba(34,42,48,0.22)" stroke-width="0.35"/>
<polygon points="82.1,33.1 74.4,38.9 72.6,38.9" fill="rgb(211,211,219)" stroke="rgba(34,42,48,0.22)" stroke-width="0.35"/>
<polygon points="81.2,42.8 80.8,45.1 81.2,44.9" fill="rgb(181,181,189)" stroke="rgba(34,42,48,0.22)" stroke-width="0.35"/>
<polygon points="80.8,45.1 83.4,46.0 81.2,44.9" fill="rgb(181,181,189)" stroke="rgba(34,42,48,0.22)" stroke-width="0.35"/>
<polygon points="72.6,38.0 82.1,33.1 72.6,38.9" fill="rgb(195,195,203)" stroke="rgba(34,42,48,0.22)" stroke-width="0.35"/>
<polygon points="80.8,45.1 81.2,42.8 80.8,42.3" fill="rgb(181,181,189)" stroke="rgba(34,42,48,0.22)" stroke-width="0.35"/>
<polygon points="82.1,32.2 72.6,38.0 74.4,38.0" fill="rgb(211,211,219)" stroke="rgba(34,42,48,0.22)" stroke-width="0.35"/>
<polygon points="80.8,45.1 83.8,46.5 83.4,46.0" fill="rgb(181,181,189)" stroke="rgba(34,42,48,0.22)" stroke-width="0.35"/>
<polygon points="83.1,32.7 74.4,38.0 76.3,36.9" fill="rgb(165,165,173)" stroke="rgba(34,42,48,0.22)" stroke-width="0.35"/>
<polygon points="85.9,47.3 83.8,43.6 83.8,46.5" fill="rgb(195,195,203)" stroke="rgba(34,42,48,0.22)" stroke-width="0.35"/>
<polygon points="126.5,100.6 125.0,100.7 126.6,101.4" fill="rgb(211,211,219)" stroke="rgba(34,42,48,0.22)" stroke-width="0.35"/>
<polygon points="78.2,41.9 95.2,39.4 85.4,45.3" fill="rgb(211,211,219)" stroke="rgba(34,42,48,0.22)" stroke-width="0.35"/>
<polygon points="81.2,42.8 81.2,44.9 81.2,45.1" fill="rgb(164,164,172)" stroke="rgba(34,42,48,0.22)" stroke-width="0.35"/>
<polygon points="127.3,104.0 127.3,101.7 124.3,100.3" fill="rgb(182,182,190)" stroke="rgba(34,42,48,0.22)" stroke-width="0.35"/>
<polygon points="124.8,106.4 127.3,104.0 124.3,105.8" fill="rgb(152,152,160)" stroke="rgba(34,42,48,0.22)" stroke-width="0.35"/>
<polygon points="81.2,44.9 83.4,46.0 81.2,45.1" fill="rgb(180,180,188)" stroke="rgba(34,42,48,0.22)" stroke-width="0.35"/>
<polygon points="148.0,111.5 125.8,101.1 125.8,119.2" fill="rgb(181,181,189)" stroke="rgba(34,42,48,0.22)" stroke-width="0.35"/>
<polygon points="81.2,42.8 83.8,43.6 80.8,42.3" fill="rgb(181,181,189)" stroke="rgba(34,42,48,0.22)" stroke-width="0.35"/>
<polygon points="83.8,46.5 83.4,43.8 83.4,46.0" fill="rgb(181,181,189)" stroke="rgba(34,42,48,0.22)" stroke-width="0.35"/>
<polygon points="129.5,99.5 126.8,54.3 127.1,98.3" fill="rgb(181,181,189)" stroke="rgba(34,42,48,0.22)" stroke-width="0.35"/>
<polygon points="83.4,43.8 81.2,42.8 81.2,45.1" fill="rgb(217,217,225)" stroke="rgba(34,42,48,0.22)" stroke-width="0.35"/>
<polygon points="83.4,46.0 83.4,43.8 81.2,45.1" fill="rgb(205,205,213)" stroke="rgba(34,42,48,0.22)" stroke-width="0.35"/>
<polygon points="127.8,99.5 127.5,101.9 125.9,101.2" fill="rgb(195,195,203)" stroke="rgba(34,42,48,0.22)" stroke-width="0.35"/>
<polygon points="83.8,43.6 81.2,42.8 83.4,43.8" fill="rgb(181,181,189)" stroke="rgba(34,42,48,0.22)" stroke-width="0.35"/>
<polygon points="83.4,43.8 83.8,46.5 83.8,43.6" fill="rgb(181,181,189)" stroke="rgba(34,42,48,0.22)" stroke-width="0.35"/>
<polygon points="148.0,129.7 148.0,111.5 125.8,119.2" fill="rgb(181,181,189)" stroke="rgba(34,42,48,0.22)" stroke-width="0.35"/>
<polygon points="84.6,40.8 92.3,36.1 84.1,32.2" fill="rgb(211,211,219)" stroke="rgba(34,42,48,0.22)" stroke-width="0.35"/>
<polygon points="147.3,69.4 64.7,29.2 64.7,30.4" fill="rgb(181,181,189)" stroke="rgba(34,42,48,0.22)" stroke-width="0.35"/>
<polygon points="127.8,99.5 125.9,101.2 125.9,100.6" fill="rgb(195,195,203)" stroke="rgba(34,42,48,0.22)" stroke-width="0.35"/>
<polygon points="85.4,43.0 78.2,39.6 78.2,41.9" fill="rgb(181,181,189)" stroke="rgba(34,42,48,0.22)" stroke-width="0.35"/>
<polygon points="84.6,40.8 84.1,32.2 76.3,36.9" fill="rgb(211,211,219)" stroke="rgba(34,42,48,0.22)" stroke-width="0.35"/>
<polygon points="84.5,43.6 76.3,39.6 78.2,39.6" fill="rgb(211,211,219)" stroke="rgba(34,42,48,0.22)" stroke-width="0.35"/>
<polygon points="85.4,43.0 78.2,41.9 85.4,45.3" fill="rgb(181,181,189)" stroke="rgba(34,42,48,0.22)" stroke-width="0.35"/>
<polygon points="83.5,43.2 74.4,38.9 76.3,39.6" fill="rgb(180,180,188)" stroke="rgba(34,42,48,0.22)" stroke-width="0.35"/>
<polygon points="124.3,64.6 129.5,99.5 124.3,100.3" fill="rgb(195,195,203)" stroke="rgba(34,42,48,0.22)" stroke-width="0.35"/>
<polygon points="82.8,43.7 72.6,38.9 74.4,38.9" fill="rgb(211,211,219)" stroke="rgba(34,42,48,0.22)" stroke-width="0.35"/>
<polygon points="64.7,29.2 145.5,67.1 62.9,28.0" fill="rgb(171,171,179)" stroke="rgba(34,42,48,0.22)" stroke-width="0.35"/>
<polygon points="82.8,42.8 72.6,38.0 72.6,38.9" fill="rgb(181,181,189)" stroke="rgba(34,42,48,0.22)" stroke-width="0.35"/>
<polygon points="84.5,43.6 78.2,39.6 85.4,43.0" fill="rgb(211,211,219)" stroke="rgba(34,42,48,0.22)" stroke-width="0.35"/>
<polygon points="83.5,42.4 76.3,36.9 74.4,38.0" fill="rgb(217,217,225)" stroke="rgba(34,42,48,0.22)" stroke-width="0.35"/>
<polygon points="147.3,64.8 64.7,24.6 64.7,25.8" fill="rgb(181,181,189)" stroke="rgba(34,42,48,0.22)" stroke-width="0.35"/>
<polygon points="82.8,42.8 74.4,38.0 72.6,38.0" fill="rgb(211,211,219)" stroke="rgba(34,42,48,0.22)" stroke-width="0.35"/>
<polygon points="147.3,63.6 65.6,24.0 64.7,24.6" fill="rgb(211,211,219)" stroke="rgba(34,42,48,0.22)" stroke-width="0.35"/>
<polygon points="148.2,63.1 65.6,20.8 65.6,24.0" fill="rgb(181,181,189)" stroke="rgba(34,42,48,0.22)" stroke-width="0.35"/>
<polygon points="85.4,45.3 95.2,39.4 101.2,52.8" fill="rgb(211,211,219)" stroke="rgba(34,42,48,0.22)" stroke-width="0.35"/>
<polygon points="83.5,43.2 76.3,39.6 84.5,43.6" fill="rgb(180,180,188)" stroke="rgba(34,42,48,0.22)" stroke-width="0.35"/>
<polygon points="145.5,67.1 62.0,28.6 62.9,28.0" fill="rgb(211,211,219)" stroke="rgba(34,42,48,0.22)" stroke-width="0.35"/>
<polygon points="137.2,48.0 127.1,98.3 126.8,54.3" fill="rgb(195,195,203)" stroke="rgba(34,42,48,0.22)" stroke-width="0.35"/>
<polygon points="144.6,66.4 64.7,25.8 62.0,27.4" fill="rgb(211,211,219)" stroke="rgba(34,42,48,0.22)" stroke-width="0.35"/>
<polygon points="85.4,43.0 85.4,45.3 88.8,45.3" fill="rgb(181,181,189)" stroke="rgba(34,42,48,0.22)" stroke-width="0.35"/>
<polygon points="132.4,100.9 127.3,66.0 127.3,101.7" fill="rgb(195,195,203)" stroke="rgba(34,42,48,0.22)" stroke-width="0.35"/>
<polygon points="127.5,101.9 146.4,110.9 125.9,101.2" fill="rgb(178,178,186)" stroke="rgba(34,42,48,0.22)" stroke-width="0.35"/>
<polygon points="82.8,43.7 74.4,38.9 83.5,43.2" fill="rgb(211,211,219)" stroke="rgba(34,42,48,0.22)" stroke-width="0.35"/>
<polygon points="144.6,67.6 62.0,27.4 62.0,28.6" fill="rgb(181,181,189)" stroke="rgba(34,42,48,0.22)" stroke-width="0.35"/>
<polygon points="125.0,65.0 124.3,100.3 125.0,100.7" fill="rgb(181,181,189)" stroke="rgba(34,42,48,0.22)" stroke-width="0.35"/>
<polygon points="76.3,36.9 83.5,42.4 84.6,40.8" fill="rgb(217,217,225)" stroke="rgba(34,42,48,0.22)" stroke-width="0.35"/>
<polygon points="126.5,64.9 125.0,100.7 126.5,100.6" fill="rgb(204,204,212)" stroke="rgba(34,42,48,0.22)" stroke-width="0.35"/>
<polygon points="72.6,38.9 82.8,43.7 82.8,42.8" fill="rgb(181,181,189)" stroke="rgba(34,42,48,0.22)" stroke-width="0.35"/>
<polygon points="74.4,38.0 82.8,42.8 83.5,42.4" fill="rgb(211,211,219)" stroke="rgba(34,42,48,0.22)" stroke-width="0.35"/>
<polygon points="146.4,110.3 127.8,99.5 125.9,100.6" fill="rgb(211,211,219)" stroke="rgba(34,42,48,0.22)" stroke-width="0.35"/>
<polygon points="126.6,101.4 126.5,64.9 126.5,100.6" fill="rgb(160,160,168)" stroke="rgba(34,42,48,0.22)" stroke-width="0.35"/>
<polygon points="126.8,54.3 95.2,39.4 137.2,48.0" fill="rgb(211,211,219)" stroke="rgba(34,42,48,0.22)" stroke-width="0.35"/>
<polygon points="125.9,101.2 146.4,110.3 125.9,100.6" fill="rgb(181,181,189)" stroke="rgba(34,42,48,0.22)" stroke-width="0.35"/>
<polygon points="127.3,101.7 126.6,65.7 126.6,101.4" fill="rgb(181,181,189)" stroke="rgba(34,42,48,0.22)" stroke-width="0.35"/>
<polygon points="101.2,52.8 88.8,45.3 85.4,45.3" fill="rgb(181,181,189)" stroke="rgba(34,42,48,0.22)" stroke-width="0.35"/>
<polygon points="95.2,39.4 126.8,54.3 101.2,52.8" fill="rgb(211,211,219)" stroke="rgba(34,42,48,0.22)" stroke-width="0.35"/>
<polygon points="129.5,99.5 129.5,55.3 126.8,54.3" fill="rgb(186,186,194)" stroke="rgba(34,42,48,0.22)" stroke-width="0.35"/>
<polygon points="146.4,110.9 127.5,101.9 148.0,111.5" fill="rgb(178,178,186)" stroke="rgba(34,42,48,0.22)" stroke-width="0.35"/>
<polygon points="88.8,45.3 98.6,50.7 88.0,45.7" fill="rgb(211,211,219)" stroke="rgba(34,42,48,0.22)" stroke-width="0.35"/>
<polygon points="100.3,42.5 92.3,36.1 84.6,40.8" fill="rgb(194,194,202)" stroke="rgba(34,42,48,0.22)" stroke-width="0.35"/>
<polygon points="129.5,99.5 124.3,64.6 129.5,55.3" fill="rgb(195,195,203)" stroke="rgba(34,42,48,0.22)" stroke-width="0.35"/>
<polygon points="101.2,44.7 84.5,43.6 85.4,43.0" fill="rgb(194,194,202)" stroke="rgba(34,42,48,0.22)" stroke-width="0.35"/>
<polygon points="148.2,109.2 127.8,99.5 146.4,110.3" fill="rgb(211,211,219)" stroke="rgba(34,42,48,0.22)" stroke-width="0.35"/>
<polygon points="88.8,45.3 101.2,44.7 85.4,43.0" fill="rgb(181,181,189)" stroke="rgba(34,42,48,0.22)" stroke-width="0.35"/>
<polygon points="99.4,46.1 88.8,45.3 88.0,45.7" fill="rgb(192,192,200)" stroke="rgba(34,42,48,0.22)" stroke-width="0.35"/>
<polygon points="146.4,110.3 125.9,101.2 146.4,110.9" fill="rgb(181,181,189)" stroke="rgba(34,42,48,0.22)" stroke-width="0.35"/>
<polygon points="84.5,43.6 99.3,45.0 83.5,43.2" fill="rgb(168,168,176)" stroke="rgba(34,42,48,0.22)" stroke-width="0.35"/>
<polygon points="88.0,45.7 98.6,50.7 93.9,47.3" fill="rgb(169,169,177)" stroke="rgba(34,42,48,0.22)" stroke-width="0.35"/>
<polygon points="88.8,45.3 101.2,52.8 99.4,50.3" fill="rgb(181,181,189)" stroke="rgba(34,42,48,0.22)" stroke-width="0.35"/>
<polygon points="127.3,66.0 132.4,100.9 132.4,56.7" fill="rgb(195,195,203)" stroke="rgba(34,42,48,0.22)" stroke-width="0.35"/>
<polygon points="98.6,50.7 88.8,45.3 99.4,50.3" fill="rgb(211,211,219)" stroke="rgba(34,42,48,0.22)" stroke-width="0.35"/>
<polygon points="108.1,37.8 92.3,36.1 100.3,42.5" fill="rgb(194,194,202)" stroke="rgba(34,42,48,0.22)" stroke-width="0.35"/>
<polygon points="99.3,44.1 84.6,40.8 83.5,42.4" fill="rgb(204,204,212)" stroke="rgba(34,42,48,0.22)" stroke-width="0.35"/>
<polygon points="124.3,100.3 125.0,65.0 124.3,64.6" fill="rgb(181,181,189)" stroke="rgba(34,42,48,0.22)" stroke-width="0.35"/>
<polygon points="83.5,43.2 98.5,45.4 82.8,43.7" fill="rgb(194,194,202)" stroke="rgba(34,42,48,0.22)" stroke-width="0.35"/>
<polygon points="98.6,46.6 88.0,45.7 93.9,47.3" fill="rgb(192,192,200)" stroke="rgba(34,42,48,0.22)" stroke-width="0.35"/>
<polygon points="125.0,100.7 126.5,64.9 125.0,65.0" fill="rgb(204,204,212)" stroke="rgba(34,42,48,0.22)" stroke-width="0.35"/>
<polygon points="82.8,42.8 99.3,44.1 83.5,42.4" fill="rgb(194,194,202)" stroke="rgba(34,42,48,0.22)" stroke-width="0.35"/>
<polygon points="148.2,109.2 127.9,59.3 127.8,99.5" fill="rgb(181,181,189)" stroke="rgba(34,42,48,0.22)" stroke-width="0.35"/>
<polygon points="98.5,45.4 82.8,42.8 82.8,43.7" fill="rgb(181,181,189)" stroke="rgba(34,42,48,0.22)" stroke-width="0.35"/>
<polygon points="126.5,64.9 126.6,101.4 126.6,65.7" fill="rgb(160,160,168)" stroke="rgba(34,42,48,0.22)" stroke-width="0.35"/>
<polygon points="88.0,45.7 98.6,46.6 99.4,46.1" fill="rgb(192,192,200)" stroke="rgba(34,42,48,0.22)" stroke-width="0.35"/>
<polygon points="126.6,65.7 127.3,101.7 127.3,66.0" fill="rgb(181,181,189)" stroke="rgba(34,42,48,0.22)" stroke-width="0.35"/>
<polygon points="101.2,44.7 88.8,45.3 99.4,46.1" fill="rgb(181,181,189)" stroke="rgba(34,42,48,0.22)" stroke-width="0.35"/>
<polygon points="84.5,43.6 101.2,44.7 100.3,45.3" fill="rgb(194,194,202)" stroke="rgba(34,42,48,0.22)" stroke-width="0.35"/>
<polygon points="98.6,50.7 98.6,46.6 93.9,47.3" fill="rgb(184,184,192)" stroke="rgba(34,42,48,0.22)" stroke-width="0.35"/>
<polygon points="101.2,52.8 103.0,52.0 99.4,50.3" fill="rgb(181,181,189)" stroke="rgba(34,42,48,0.22)" stroke-width="0.35"/>
<polygon points="99.4,50.3 98.6,46.6 98.6,50.7" fill="rgb(195,195,203)" stroke="rgba(34,42,48,0.22)" stroke-width="0.35"/>
<polygon points="99.3,45.0 84.5,43.6 100.3,45.3" fill="rgb(168,168,176)" stroke="rgba(34,42,48,0.22)" stroke-width="0.35"/>
<polygon points="98.6,46.6 99.4,50.3 99.4,46.1" fill="rgb(195,195,203)" stroke="rgba(34,42,48,0.22)" stroke-width="0.35"/>
<polygon points="103.0,47.8 99.4,46.1 99.4,50.3" fill="rgb(181,181,189)" stroke="rgba(34,42,48,0.22)" stroke-width="0.35"/>
<polygon points="103.0,47.8 99.4,50.3 103.0,52.0" fill="rgb(181,181,189)" stroke="rgba(34,42,48,0.22)" stroke-width="0.35"/>
<polygon points="98.5,45.4 83.5,43.2 99.3,45.0" fill="rgb(194,194,202)" stroke="rgba(34,42,48,0.22)" stroke-width="0.35"/>
<polygon points="84.6,40.8 99.3,44.1 100.3,42.5" fill="rgb(204,204,212)" stroke="rgba(34,42,48,0.22)" stroke-width="0.35"/>
<polygon points="99.3,44.1 82.8,42.8 98.5,44.6" fill="rgb(194,194,202)" stroke="rgba(34,42,48,0.22)" stroke-width="0.35"/>
<polygon points="82.8,42.8 98.5,45.4 98.5,44.6" fill="rgb(181,181,189)" stroke="rgba(34,42,48,0.22)" stroke-width="0.35"/>
<polygon points="102.2,52.5 102.2,48.3 103.0,52.0" fill="rgb(195,195,203)" stroke="rgba(34,42,48,0.22)" stroke-width="0.35"/>
<polygon points="99.4,46.1 103.0,47.8 101.2,44.7" fill="rgb(181,181,189)" stroke="rgba(34,42,48,0.22)" stroke-width="0.35"/>
<polygon points="101.2,52.8 113.6,57.0 103.0,52.0" fill="rgb(181,181,189)" stroke="rgba(34,42,48,0.22)" stroke-width="0.35"/>
<polygon points="103.0,52.0 102.2,48.3 103.0,47.8" fill="rgb(195,195,203)" stroke="rgba(34,42,48,0.22)" stroke-width="0.35"/>
<polygon points="101.2,52.8 126.8,54.3 117.0,60.3" fill="rgb(211,211,219)" stroke="rgba(34,42,48,0.22)" stroke-width="0.35"/>
<polygon points="129.5,55.3 124.3,64.6 124.3,63.4" fill="rgb(195,195,203)" stroke="rgba(34,42,48,0.22)" stroke-width="0.35"/>
<polygon points="113.6,57.0 102.2,52.5 103.0,52.0" fill="rgb(211,211,219)" stroke="rgba(34,42,48,0.22)" stroke-width="0.35"/>
<polygon points="123.8,51.0 108.1,37.8 100.3,42.5" fill="rgb(222,222,230)" stroke="rgba(34,42,48,0.22)" stroke-width="0.35"/>
<polygon points="102.2,52.5 106.5,53.3 102.2,48.3" fill="rgb(179,179,187)" stroke="rgba(34,42,48,0.22)" stroke-width="0.35"/>
<polygon points="126.5,64.9 126.6,65.7 125.0,65.0" fill="rgb(211,211,219)" stroke="rgba(34,42,48,0.22)" stroke-width="0.35"/>
<polygon points="147.3,68.3 64.7,29.2 147.3,69.4" fill="rgb(181,181,189)" stroke="rgba(34,42,48,0.22)" stroke-width="0.35"/>
<polygon points="127.3,64.8 124.3,63.4 124.3,64.6" fill="rgb(181,181,189)" stroke="rgba(34,42,48,0.22)" stroke-width="0.35"/>
<polygon points="124.3,64.6 127.3,66.0 127.3,64.8" fill="rgb(181,181,189)" stroke="rgba(34,42,48,0.22)" stroke-width="0.35"/>
<polygon points="113.6,57.0 101.2,44.7 103.0,47.8" fill="rgb(181,181,189)" stroke="rgba(34,42,48,0.22)" stroke-width="0.35"/>
<polygon points="127.3,66.0 132.4,56.7 127.3,64.8" fill="rgb(195,195,203)" stroke="rgba(34,42,48,0.22)" stroke-width="0.35"/>
<polygon points="112.8,57.5 106.5,53.3 102.2,52.5" fill="rgb(169,169,177)" stroke="rgba(34,42,48,0.22)" stroke-width="0.35"/>
<polygon points="112.8,57.5 103.0,47.8 102.2,48.3" fill="rgb(222,222,230)" stroke="rgba(34,42,48,0.22)" stroke-width="0.35"/>
<polygon points="113.6,57.0 101.2,52.8 117.0,60.3" fill="rgb(181,181,189)" stroke="rgba(34,42,48,0.22)" stroke-width="0.35"/>
<polygon points="145.5,67.1 64.7,29.2 147.3,68.3" fill="rgb(171,171,179)" stroke="rgba(34,42,48,0.22)" stroke-width="0.35"/>
<polygon points="124.3,63.4 120.3,60.9 129.5,55.3" fill="rgb(195,195,203)" stroke="rgba(34,42,48,0.22)" stroke-width="0.35"/>
<polygon points="120.3,60.9 132.4,56.7 129.5,55.3" fill="rgb(211,211,219)" stroke="rgba(34,42,48,0.22)" stroke-width="0.35"/>
<polygon points="125.4,66.0 122.5,64.6 124.3,63.4" fill="rgb(211,211,219)" stroke="rgba(34,42,48,0.22)" stroke-width="0.35"/>
<polygon points="127.3,64.8 125.4,66.0 124.3,63.4" fill="rgb(211,211,219)" stroke="rgba(34,42,48,0.22)" stroke-width="0.35"/>
<polygon points="102.2,48.3 106.5,53.3 112.8,57.5" fill="rgb(200,200,208)" stroke="rgba(34,42,48,0.22)" stroke-width="0.35"/>
<polygon points="112.8,57.5 102.2,52.5 113.6,57.0" fill="rgb(211,211,219)" stroke="rgba(34,42,48,0.22)" stroke-width="0.35"/>
<polygon points="101.2,44.7 116.1,58.5 100.3,45.3" fill="rgb(222,222,230)" stroke="rgba(34,42,48,0.22)" stroke-width="0.35"/>
<polygon points="124.2,63.7 126.8,54.3 135.2,57.0" fill="rgb(210,210,218)" stroke="rgba(34,42,48,0.22)" stroke-width="0.35"/>
<polygon points="148.2,63.1 65.6,24.0 147.3,63.6" fill="rgb(211,211,219)" stroke="rgba(34,42,48,0.22)" stroke-width="0.35"/>
<polygon points="124.3,63.4 122.5,64.6 120.3,60.9" fill="rgb(195,195,203)" stroke="rgba(34,42,48,0.22)" stroke-width="0.35"/>
<polygon points="113.6,57.0 103.0,47.8 112.8,57.5" fill="rgb(222,222,230)" stroke="rgba(34,42,48,0.22)" stroke-width="0.35"/>
<polygon points="147.3,63.6 64.7,24.6 147.3,64.8" fill="rgb(181,181,189)" stroke="rgba(34,42,48,0.22)" stroke-width="0.35"/>
<polygon points="116.1,58.5 99.3,45.0 100.3,45.3" fill="rgb(191,191,199)" stroke="rgba(34,42,48,0.22)" stroke-width="0.35"/>
<polygon points="125.4,66.0 120.3,63.8 122.5,64.6" fill="rgb(180,180,188)" stroke="rgba(34,42,48,0.22)" stroke-width="0.35"/>
<polygon points="147.3,64.8 64.7,25.8 144.6,66.4" fill="rgb(211,211,219)" stroke="rgba(34,42,48,0.22)" stroke-width="0.35"/>
<polygon points="101.2,44.7 113.6,57.0 117.0,57.9" fill="rgb(181,181,189)" stroke="rgba(34,42,48,0.22)" stroke-width="0.35"/>
<polygon points="123.3,62.3 127.3,64.8 132.4,56.7" fill="rgb(195,195,203)" stroke="rgba(34,42,48,0.22)" stroke-width="0.35"/>
<polygon points="148.2,59.8 65.6,20.8 148.2,63.1" fill="rgb(181,181,189)" stroke="rgba(34,42,48,0.22)" stroke-width="0.35"/>
<polygon points="144.6,67.6 62.0,28.6 145.5,67.1" fill="rgb(211,211,219)" stroke="rgba(34,42,48,0.22)" stroke-width="0.35"/>
<polygon points="126.8,54.3 124.2,63.7 117.0,60.3" fill="rgb(211,211,219)" stroke="rgba(34,42,48,0.22)" stroke-width="0.35"/>
<polygon points="122.5,64.6 120.3,63.8 120.3,60.9" fill="rgb(195,195,203)" stroke="rgba(34,42,48,0.22)" stroke-width="0.35"/>
<polygon points="115.1,58.1 98.5,45.4 99.3,45.0" fill="rgb(222,222,230)" stroke="rgba(34,42,48,0.22)" stroke-width="0.35"/>
<polygon points="99.3,44.1 116.1,55.7 100.3,42.5" fill="rgb(226,226,234)" stroke="rgba(34,42,48,0.22)" stroke-width="0.35"/>
<polygon points="135.2,54.7 124.2,63.7 135.2,57.0" fill="rgb(195,195,203)" stroke="rgba(34,42,48,0.22)" stroke-width="0.35"/>
<polygon points="100.3,42.5 116.1,55.7 123.8,51.0" fill="rgb(222,222,230)" stroke="rgba(34,42,48,0.22)" stroke-width="0.35"/>
<polygon points="116.1,58.5 101.2,44.7 117.0,57.9" fill="rgb(222,222,230)" stroke="rgba(34,42,48,0.22)" stroke-width="0.35"/>
<polygon points="127.3,64.8 123.3,62.3 125.4,66.0" fill="rgb(195,195,203)" stroke="rgba(34,42,48,0.22)" stroke-width="0.35"/>
<polygon points="144.6,66.4 62.0,27.4 144.6,67.6" fill="rgb(181,181,189)" stroke="rgba(34,42,48,0.22)" stroke-width="0.35"/>
<polygon points="114.3,57.7 99.3,44.1 98.5,44.6" fill="rgb(222,222,230)" stroke="rgba(34,42,48,0.22)" stroke-width="0.35"/>
<polygon points="125.4,66.0 123.3,65.2 120.3,63.8" fill="rgb(180,180,188)" stroke="rgba(34,42,48,0.22)" stroke-width="0.35"/>
<polygon points="114.3,57.7 98.5,44.6 98.5,45.4" fill="rgb(181,181,189)" stroke="rgba(34,42,48,0.22)" stroke-width="0.35"/>
<polygon points="132.4,56.7 120.3,60.9 123.3,62.3" fill="rgb(211,211,219)" stroke="rgba(34,42,48,0.22)" stroke-width="0.35"/>
<polygon points="148.2,109.2 148.2,68.9 127.9,59.3" fill="rgb(181,181,189)" stroke="rgba(34,42,48,0.22)" stroke-width="0.35"/>
<polygon points="117.0,60.3 117.0,57.9 113.6,57.0" fill="rgb(181,181,189)" stroke="rgba(34,42,48,0.22)" stroke-width="0.35"/>
<polygon points="120.7,61.5 120.3,63.8 120.7,63.6" fill="rgb(181,181,189)" stroke="rgba(34,42,48,0.22)" stroke-width="0.35"/>
<polygon points="120.3,63.8 122.9,64.6 120.7,63.6" fill="rgb(181,181,189)" stroke="rgba(34,42,48,0.22)" stroke-width="0.35"/>
<polygon points="120.3,63.8 120.7,61.5 120.3,60.9" fill="rgb(181,181,189)" stroke="rgba(34,42,48,0.22)" stroke-width="0.35"/>
<polygon points="115.1,58.1 99.3,45.0 116.1,58.5" fill="rgb(191,191,199)" stroke="rgba(34,42,48,0.22)" stroke-width="0.35"/>
<polygon points="120.3,63.8 123.3,65.2 122.9,64.6" fill="rgb(181,181,189)" stroke="rgba(34,42,48,0.22)" stroke-width="0.35"/>
<polygon points="125.4,66.0 123.3,62.3 123.3,65.2" fill="rgb(195,195,203)" stroke="rgba(34,42,48,0.22)" stroke-width="0.35"/>
<polygon points="120.7,63.6 120.7,63.7 120.7,61.5" fill="rgb(164,164,172)" stroke="rgba(34,42,48,0.22)" stroke-width="0.35"/>
<polygon points="122.9,64.6 120.7,63.7 120.7,63.6" fill="rgb(180,180,188)" stroke="rgba(34,42,48,0.22)" stroke-width="0.35"/>
<polygon points="132.1,54.9 123.8,51.0 116.1,55.7" fill="rgb(211,211,219)" stroke="rgba(34,42,48,0.22)" stroke-width="0.35"/>
<polygon points="124.2,61.3 135.2,54.7 132.1,57.7" fill="rgb(211,211,219)" stroke="rgba(34,42,48,0.22)" stroke-width="0.35"/>
<polygon points="116.1,55.7 99.3,44.1 115.1,57.3" fill="rgb(226,226,234)" stroke="rgba(34,42,48,0.22)" stroke-width="0.35"/>
<polygon points="122.9,62.5 120.3,60.9 120.7,61.5" fill="rgb(181,181,189)" stroke="rgba(34,42,48,0.22)" stroke-width="0.35"/>
<polygon points="114.3,58.6 98.5,45.4 115.1,58.1" fill="rgb(222,222,230)" stroke="rgba(34,42,48,0.22)" stroke-width="0.35"/>
<polygon points="123.3,65.2 122.9,62.5 122.9,64.6" fill="rgb(181,181,189)" stroke="rgba(34,42,48,0.22)" stroke-width="0.35"/>
<polygon points="115.1,57.3 99.3,44.1 114.3,57.7" fill="rgb(222,222,230)" stroke="rgba(34,42,48,0.22)" stroke-width="0.35"/>
<polygon points="120.7,61.5 120.7,63.7 122.9,62.5" fill="rgb(217,217,225)" stroke="rgba(34,42,48,0.22)" stroke-width="0.35"/>
<polygon points="98.5,45.4 114.3,58.6 114.3,57.7" fill="rgb(181,181,189)" stroke="rgba(34,42,48,0.22)" stroke-width="0.35"/>
<polygon points="122.9,62.5 120.7,63.7 122.9,64.6" fill="rgb(205,205,213)" stroke="rgba(34,42,48,0.22)" stroke-width="0.35"/>
<polygon points="124.2,63.7 117.0,57.9 117.0,60.3" fill="rgb(181,181,189)" stroke="rgba(34,42,48,0.22)" stroke-width="0.35"/>
<polygon points="123.3,62.3 120.3,60.9 122.9,62.5" fill="rgb(181,181,189)" stroke="rgba(34,42,48,0.22)" stroke-width="0.35"/>
<polygon points="123.3,65.2 123.3,62.3 122.9,62.5" fill="rgb(181,181,189)" stroke="rgba(34,42,48,0.22)" stroke-width="0.35"/>
<polygon points="135.2,54.7 124.2,61.3 124.2,63.7" fill="rgb(195,195,203)" stroke="rgba(34,42,48,0.22)" stroke-width="0.35"/>
<polygon points="124.2,61.3 116.1,58.5 117.0,57.9" fill="rgb(211,211,219)" stroke="rgba(34,42,48,0.22)" stroke-width="0.35"/>
<polygon points="133.0,57.1 124.4,62.4 132.1,57.7" fill="rgb(163,163,171)" stroke="rgba(34,42,48,0.22)" stroke-width="0.35"/>
<polygon points="117.0,57.9 124.2,63.7 124.2,61.3" fill="rgb(181,181,189)" stroke="rgba(34,42,48,0.22)" stroke-width="0.35"/>
<polygon points="148.2,68.9 129.0,60.8 129.9,60.2" fill="rgb(211,211,219)" stroke="rgba(34,42,48,0.22)" stroke-width="0.35"/>
<polygon points="124.4,62.4 115.1,58.1 116.1,58.5" fill="rgb(180,180,188)" stroke="rgba(34,42,48,0.22)" stroke-width="0.35"/>
<polygon points="132.1,54.9 124.3,59.6 133.0,56.3" fill="rgb(225,225,233)" stroke="rgba(34,42,48,0.22)" stroke-width="0.35"/>
<polygon points="134.0,57.6 124.3,62.5 133.0,57.1" fill="rgb(211,211,219)" stroke="rgba(34,42,48,0.22)" stroke-width="0.35"/>
<polygon points="132.1,57.7 124.4,62.4 124.2,61.3" fill="rgb(211,211,219)" stroke="rgba(34,42,48,0.22)" stroke-width="0.35"/>
<polygon points="124.3,59.6 132.1,54.9 116.1,55.7" fill="rgb(211,211,219)" stroke="rgba(34,42,48,0.22)" stroke-width="0.35"/>
<polygon points="116.1,58.5 124.2,61.3 124.4,62.4" fill="rgb(211,211,219)" stroke="rgba(34,42,48,0.22)" stroke-width="0.35"/>
<polygon points="124.3,61.6 134.0,56.8 133.0,56.3" fill="rgb(211,211,219)" stroke="rgba(34,42,48,0.22)" stroke-width="0.35"/>
<polygon points="115.1,57.3 124.3,59.6 116.1,55.7" fill="rgb(217,217,225)" stroke="rgba(34,42,48,0.22)" stroke-width="0.35"/>
<polygon points="124.3,62.5 114.3,58.6 115.1,58.1" fill="rgb(211,211,219)" stroke="rgba(34,42,48,0.22)" stroke-width="0.35"/>
<polygon points="124.5,62.6 134.0,57.6 134.0,56.8" fill="rgb(195,195,203)" stroke="rgba(34,42,48,0.22)" stroke-width="0.35"/>
<polygon points="124.3,61.6 115.1,57.3 114.3,57.7" fill="rgb(211,211,219)" stroke="rgba(34,42,48,0.22)" stroke-width="0.35"/>
<polygon points="124.4,62.4 133.0,57.1 124.3,62.5" fill="rgb(163,163,171)" stroke="rgba(34,42,48,0.22)" stroke-width="0.35"/>
<polygon points="124.5,63.4 114.3,57.7 114.3,58.6" fill="rgb(181,181,189)" stroke="rgba(34,42,48,0.22)" stroke-width="0.35"/>
<polygon points="124.3,62.5 115.1,58.1 124.4,62.4" fill="rgb(180,180,188)" stroke="rgba(34,42,48,0.22)" stroke-width="0.35"/>
<polygon points="124.3,61.6 133.0,56.3 124.3,59.6" fill="rgb(225,225,233)" stroke="rgba(34,42,48,0.22)" stroke-width="0.35"/>
<polygon points="124.3,59.6 115.1,57.3 124.3,61.6" fill="rgb(217,217,225)" stroke="rgba(34,42,48,0.22)" stroke-width="0.35"/>
<polygon points="134.0,57.6 124.5,63.4 124.3,62.5" fill="rgb(211,211,219)" stroke="rgba(34,42,48,0.22)" stroke-width="0.35"/>
<polygon points="114.3,58.6 124.3,62.5 124.5,63.4" fill="rgb(211,211,219)" stroke="rgba(34,42,48,0.22)" stroke-width="0.35"/>
<polygon points="134.0,56.8 124.3,61.6 124.5,62.6" fill="rgb(211,211,219)" stroke="rgba(34,42,48,0.22)" stroke-width="0.35"/>
<polygon points="134.0,57.6 124.5,62.6 124.5,63.4" fill="rgb(195,195,203)" stroke="rgba(34,42,48,0.22)" stroke-width="0.35"/>
<polygon points="129.0,60.8 148.2,68.9 147.3,69.4" fill="rgb(211,211,219)" stroke="rgba(34,42,48,0.22)" stroke-width="0.35"/>
<polygon points="114.3,57.7 124.5,62.6 124.3,61.6" fill="rgb(211,211,219)" stroke="rgba(34,42,48,0.22)" stroke-width="0.35"/>
<polygon points="114.3,57.7 124.5,63.4 124.5,62.6" fill="rgb(181,181,189)" stroke="rgba(34,42,48,0.22)" stroke-width="0.35"/></g>
  <text x="110" y="172" text-anchor="middle" font-family="ui-sans-serif, system-ui, sans-serif" font-size="12" fill="#27313a">High Wall Window</text>
</svg>
