<svg xmlns="http://www.w3.org/2000/svg" width="220" height="190" viewBox="0 0 220 190">
  <rect width="100%" height="100%" fill="#edf1f5"/>
  <g><polygon points="113.7,150.2 169.0,116.6 106.3,87.0" fill="rgb(211,211,219)" stroke="rgba(34,42,48,0.22)" stroke-width="0.35"/>
<polygon points="113.7,150.2 106.3,87.0 51.0,120.6" fill="rgb(211,211,219)" stroke="rgba(34,42,48,0.22)" stroke-width="0.35"/>
<polygon points="106.3,20.0 114.8,32.3 107.7,32.1" fill="rgb(211,211,219)" stroke="rgba(34,42,48,0.22)" stroke-width="0.35"/>
<polygon points="106.3,20.0 107.7,32.1 100.7,32.7" fill="rgb(211,211,219)" stroke="rgba(34,42,48,0.22)" stroke-width="0.35"/>
<polygon points="114.8,32.3 106.3,20.0 121.8,33.1" fill="rgb(211,211,219)" stroke="rgba(34,42,48,0.22)" stroke-width="0.35"/>
<polygon points="106.3,20.0 100.7,32.7 94.0,34.1" fill="rgb(211,211,219)" stroke="rgba(34,42,48,0.22)" stroke-width="0.35"/>
<polygon points="106.3,20.0 128.3,34.7 121.8,33.1" fill="rgb(211,211,219)" stroke="rgba(34,42,48,0.22)" stroke-width="0.35"/>
<polygon points="106.3,20.0 94.0,34.1 87.9,36.1" fill="rgb(211,211,219)" stroke="rgba(34,42,48,0.22)" stroke-width="0.35"/>
<polygon points="106.3,20.0 134.0,37.0 128.3,34.7" fill="rgb(211,211,219)" stroke="rgba(34,42,48,0.22)" stroke-width="0.35"/>
<polygon points="82.7,38.7 106.3,20.0 87.9,36.1" fill="rgb(211,211,219)" stroke="rgba(34,42,48,0.22)" stroke-width="0.35"/>
<polygon points="107.7,32.1 114.8,32.3 114.6,32.3" fill="rgb(175,175,183)" stroke="rgba(34,42,48,0.22)" stroke-width="0.35"/>
<polygon points="107.7,32.1 101.1,32.8 100.7,32.7" fill="rgb(174,174,182)" stroke="rgba(34,42,48,0.22)" stroke-width="0.35"/>
<polygon points="121.8,33.1 114.6,32.3 114.8,32.3" fill="rgb(177,177,185)" stroke="rgba(34,42,48,0.22)" stroke-width="0.35"/>
<polygon points="107.7,32.1 114.6,32.3 107.8,32.2" fill="rgb(175,175,183)" stroke="rgba(34,42,48,0.22)" stroke-width="0.35"/>
<polygon points="101.1,32.8 107.7,32.1 107.8,32.2" fill="rgb(174,174,182)" stroke="rgba(34,42,48,0.22)" stroke-width="0.35"/>
<polygon points="114.6,32.3 121.8,33.1 121.2,33.1" fill="rgb(177,177,185)" stroke="rgba(34,42,48,0.22)" stroke-width="0.35"/>
<polygon points="114.6,32.3 107.9,31.1 107.8,32.2" fill="rgb(189,189,197)" stroke="rgba(34,42,48,0.22)" stroke-width="0.35"/>
<polygon points="107.9,31.1 101.1,32.8 107.8,32.2" fill="rgb(191,191,199)" stroke="rgba(34,42,48,0.22)" stroke-width="0.35"/>
<polygon points="107.9,31.1 114.6,32.3 114.6,31.2" fill="rgb(189,189,197)" stroke="rgba(34,42,48,0.22)" stroke-width="0.35"/>
<polygon points="94.8,34.0 100.7,32.7 101.1,32.8" fill="rgb(174,174,182)" stroke="rgba(34,42,48,0.22)" stroke-width="0.35"/>
<polygon points="100.7,32.7 94.8,34.0 94.0,34.1" fill="rgb(174,174,182)" stroke="rgba(34,42,48,0.22)" stroke-width="0.35"/>
<polygon points="121.2,33.1 114.6,31.2 114.6,32.3" fill="rgb(185,185,193)" stroke="rgba(34,42,48,0.22)" stroke-width="0.35"/>
<polygon points="107.9,31.1 101.2,31.7 101.1,32.8" fill="rgb(191,191,199)" stroke="rgba(34,42,48,0.22)" stroke-width="0.35"/>
<polygon points="121.8,33.1 127.4,34.6 121.2,33.1" fill="rgb(180,180,188)" stroke="rgba(34,42,48,0.22)" stroke-width="0.35"/>
<polygon points="114.6,31.2 121.2,33.1 121.1,32.1" fill="rgb(185,185,193)" stroke="rgba(34,42,48,0.22)" stroke-width="0.35"/>
<polygon points="127.4,34.6 121.8,33.1 128.3,34.7" fill="rgb(180,180,188)" stroke="rgba(34,42,48,0.22)" stroke-width="0.35"/>
<polygon points="101.2,31.7 94.8,34.0 101.1,32.8" fill="rgb(191,191,199)" stroke="rgba(34,42,48,0.22)" stroke-width="0.35"/>
<polygon points="127.4,34.6 121.1,32.1 121.2,33.1" fill="rgb(179,179,187)" stroke="rgba(34,42,48,0.22)" stroke-width="0.35"/>
<polygon points="87.9,36.1 94.0,34.1 94.8,34.0" fill="rgb(175,175,183)" stroke="rgba(34,42,48,0.22)" stroke-width="0.35"/>
<polygon points="101.2,31.7 94.9,32.9 94.8,34.0" fill="rgb(191,191,199)" stroke="rgba(34,42,48,0.22)" stroke-width="0.35"/>
<polygon points="106.3,20.0 169.0,49.6 134.0,37.0" fill="rgb(211,211,219)" stroke="rgba(34,42,48,0.22)" stroke-width="0.35"/>
<polygon points="121.1,32.1 127.4,34.6 127.2,33.5" fill="rgb(179,179,187)" stroke="rgba(34,42,48,0.22)" stroke-width="0.35"/>
<polygon points="94.9,32.9 89.0,35.9 94.8,34.0" fill="rgb(188,188,196)" stroke="rgba(34,42,48,0.22)" stroke-width="0.35"/>
<polygon points="94.8,34.0 89.0,35.9 87.9,36.1" fill="rgb(175,175,183)" stroke="rgba(34,42,48,0.22)" stroke-width="0.35"/>
<polygon points="128.3,34.7 132.8,36.8 127.4,34.6" fill="rgb(184,184,192)" stroke="rgba(34,42,48,0.22)" stroke-width="0.35"/>
<polygon points="132.8,36.8 128.3,34.7 134.0,37.0" fill="rgb(184,184,192)" stroke="rgba(34,42,48,0.22)" stroke-width="0.35"/>
<polygon points="132.8,36.8 127.2,33.5 127.4,34.6" fill="rgb(172,172,180)" stroke="rgba(34,42,48,0.22)" stroke-width="0.35"/>
<polygon points="94.9,32.9 89.2,34.8 89.0,35.9" fill="rgb(188,188,196)" stroke="rgba(34,42,48,0.22)" stroke-width="0.35"/>
<polygon points="51.0,53.6 106.3,20.0 82.7,38.7" fill="rgb(211,211,219)" stroke="rgba(34,42,48,0.22)" stroke-width="0.35"/>
<polygon points="114.6,31.2 112.0,41.9 107.9,31.1" fill="rgb(213,213,221)" stroke="rgba(34,42,48,0.22)" stroke-width="0.35"/>
<polygon points="84.1,38.4 87.9,36.1 89.0,35.9" fill="rgb(177,177,185)" stroke="rgba(34,42,48,0.22)" stroke-width="0.35"/>
<polygon points="107.9,31.1 106.1,42.1 101.2,31.7" fill="rgb(213,213,221)" stroke="rgba(34,42,48,0.22)" stroke-width="0.35"/>
<polygon points="127.2,33.5 132.8,36.8 132.6,35.6" fill="rgb(172,172,180)" stroke="rgba(34,42,48,0.22)" stroke-width="0.35"/>
<polygon points="121.1,32.1 112.0,41.9 114.6,31.2" fill="rgb(212,212,220)" stroke="rgba(34,42,48,0.22)" stroke-width="0.35"/>
<polygon points="87.9,36.1 84.1,38.4 82.7,38.7" fill="rgb(177,177,185)" stroke="rgba(34,42,48,0.22)" stroke-width="0.35"/>
<polygon points="89.2,34.8 84.1,38.4 89.0,35.9" fill="rgb(184,184,192)" stroke="rgba(34,42,48,0.22)" stroke-width="0.35"/>
<polygon points="101.2,31.7 106.1,42.1 94.9,32.9" fill="rgb(213,213,221)" stroke="rgba(34,42,48,0.22)" stroke-width="0.35"/>
<polygon points="134.0,37.0 137.5,39.4 132.8,36.8" fill="rgb(188,188,196)" stroke="rgba(34,42,48,0.22)" stroke-width="0.35"/>
<polygon points="117.6,43.0 121.1,32.1 127.2,33.5" fill="rgb(212,212,220)" stroke="rgba(34,42,48,0.22)" stroke-width="0.35"/>
<polygon points="137.5,39.4 134.0,37.0 138.9,39.7" fill="rgb(188,188,196)" stroke="rgba(34,42,48,0.22)" stroke-width="0.35"/>
<polygon points="89.2,34.8 84.3,37.3 84.1,38.4" fill="rgb(184,184,192)" stroke="rgba(34,42,48,0.22)" stroke-width="0.35"/>
<polygon points="132.8,36.8 137.2,38.3 132.6,35.6" fill="rgb(163,163,171)" stroke="rgba(34,42,48,0.22)" stroke-width="0.35"/>
<polygon points="94.9,32.9 103.3,42.7 89.2,34.8" fill="rgb(213,213,221)" stroke="rgba(34,42,48,0.22)" stroke-width="0.35"/>
<polygon points="137.2,38.3 132.8,36.8 137.5,39.4" fill="rgb(163,163,171)" stroke="rgba(34,42,48,0.22)" stroke-width="0.35"/>
<polygon points="84.1,38.4 78.6,41.8 82.7,38.7" fill="rgb(181,181,189)" stroke="rgba(34,42,48,0.22)" stroke-width="0.35"/>
<polygon points="120.0,43.9 127.2,33.5 132.6,35.6" fill="rgb(212,212,220)" stroke="rgba(34,42,48,0.22)" stroke-width="0.35"/>
<polygon points="107.9,31.1 112.0,41.9 109.0,41.9" fill="rgb(213,213,221)" stroke="rgba(34,42,48,0.22)" stroke-width="0.35"/>
<polygon points="106.1,42.1 107.9,31.1 109.0,41.9" fill="rgb(213,213,221)" stroke="rgba(34,42,48,0.22)" stroke-width="0.35"/>
<polygon points="80.4,40.2 84.1,38.4 84.3,37.3" fill="rgb(178,178,186)" stroke="rgba(34,42,48,0.22)" stroke-width="0.35"/>
<polygon points="112.0,41.9 121.1,32.1 114.9,42.3" fill="rgb(212,212,220)" stroke="rgba(34,42,48,0.22)" stroke-width="0.35"/>
<polygon points="84.1,38.4 80.1,41.4 78.6,41.8" fill="rgb(181,181,189)" stroke="rgba(34,42,48,0.22)" stroke-width="0.35"/>
<polygon points="138.9,39.7 141.0,42.5 137.5,39.4" fill="rgb(193,193,201)" stroke="rgba(34,42,48,0.22)" stroke-width="0.35"/>
<polygon points="121.1,32.1 117.6,43.0 114.9,42.3" fill="rgb(212,212,220)" stroke="rgba(34,42,48,0.22)" stroke-width="0.35"/>
<polygon points="89.2,34.8 98.6,44.6 84.3,37.3" fill="rgb(212,212,220)" stroke="rgba(34,42,48,0.22)" stroke-width="0.35"/>
<polygon points="103.3,42.7 94.9,32.9 106.1,42.1" fill="rgb(213,213,221)" stroke="rgba(34,42,48,0.22)" stroke-width="0.35"/>
<polygon points="84.1,38.4 80.4,40.2 80.1,41.4" fill="rgb(178,178,186)" stroke="rgba(34,42,48,0.22)" stroke-width="0.35"/>
<polygon points="134.0,37.0 169.0,49.6 138.9,39.7" fill="rgb(211,211,219)" stroke="rgba(34,42,48,0.22)" stroke-width="0.35"/>
<polygon points="137.5,39.4 140.7,41.3 137.2,38.3" fill="rgb(154,154,162)" stroke="rgba(34,42,48,0.22)" stroke-width="0.35"/>
<polygon points="141.0,42.5 138.9,39.7 142.6,43.0" fill="rgb(193,193,201)" stroke="rgba(34,42,48,0.22)" stroke-width="0.35"/>
<polygon points="122.1,45.1 132.6,35.6 137.2,38.3" fill="rgb(212,212,220)" stroke="rgba(34,42,48,0.22)" stroke-width="0.35"/>
<polygon points="127.2,33.5 120.0,43.9 117.6,43.0" fill="rgb(212,212,220)" stroke="rgba(34,42,48,0.22)" stroke-width="0.35"/>
<polygon points="100.8,43.5 89.2,34.8 103.3,42.7" fill="rgb(213,213,221)" stroke="rgba(34,42,48,0.22)" stroke-width="0.35"/>
<polygon points="140.7,41.3 137.5,39.4 141.0,42.5" fill="rgb(154,154,162)" stroke="rgba(34,42,48,0.22)" stroke-width="0.35"/>
<polygon points="98.6,44.6 80.4,40.2 84.3,37.3" fill="rgb(212,212,220)" stroke="rgba(34,42,48,0.22)" stroke-width="0.35"/>
<polygon points="77.3,44.7 78.6,41.8 80.1,41.4" fill="rgb(185,185,193)" stroke="rgba(34,42,48,0.22)" stroke-width="0.35"/>
<polygon points="98.6,44.6 89.2,34.8 100.8,43.5" fill="rgb(212,212,220)" stroke="rgba(34,42,48,0.22)" stroke-width="0.35"/>
<polygon points="132.6,35.6 122.1,45.1 120.0,43.9" fill="rgb(212,212,220)" stroke="rgba(34,42,48,0.22)" stroke-width="0.35"/>
<polygon points="138.9,39.7 169.0,49.6 142.6,43.0" fill="rgb(211,211,219)" stroke="rgba(34,42,48,0.22)" stroke-width="0.35"/>
<polygon points="77.6,43.5 80.1,41.4 80.4,40.2" fill="rgb(171,171,179)" stroke="rgba(34,42,48,0.22)" stroke-width="0.35"/>
<polygon points="109.0,41.9 112.0,41.9 111.8,43.3" fill="rgb(226,226,234)" stroke="rgba(34,42,48,0.22)" stroke-width="0.35"/>
<polygon points="78.6,41.8 77.3,44.7 75.6,45.3" fill="rgb(185,185,193)" stroke="rgba(34,42,48,0.22)" stroke-width="0.35"/>
<polygon points="106.1,42.1 109.0,41.9 109.1,43.3" fill="rgb(227,227,235)" stroke="rgba(34,42,48,0.22)" stroke-width="0.35"/>
<polygon points="109.0,41.9 111.8,43.3 109.1,43.3" fill="rgb(226,226,234)" stroke="rgba(34,42,48,0.22)" stroke-width="0.35"/>
<polygon points="114.4,43.6 112.0,41.9 114.9,42.3" fill="rgb(225,225,233)" stroke="rgba(34,42,48,0.22)" stroke-width="0.35"/>
<polygon points="106.1,42.1 109.1,43.3 106.5,43.5" fill="rgb(227,227,235)" stroke="rgba(34,42,48,0.22)" stroke-width="0.35"/>
<polygon points="112.0,41.9 114.4,43.6 111.8,43.3" fill="rgb(225,225,233)" stroke="rgba(34,42,48,0.22)" stroke-width="0.35"/>
<polygon points="143.4,45.9 141.0,42.5 142.6,43.0" fill="rgb(199,199,207)" stroke="rgba(34,42,48,0.22)" stroke-width="0.35"/>
<polygon points="51.0,53.6 82.7,38.7 78.6,41.8" fill="rgb(211,211,219)" stroke="rgba(34,42,48,0.22)" stroke-width="0.35"/>
<polygon points="123.6,46.4 137.2,38.3 140.7,41.3" fill="rgb(211,211,219)" stroke="rgba(34,42,48,0.22)" stroke-width="0.35"/>
<polygon points="111.8,43.3 106.5,43.5 109.1,43.3" fill="rgb(211,211,219)" stroke="rgba(34,42,48,0.22)" stroke-width="0.35"/>
<polygon points="106.1,42.1 104.0,44.0 103.3,42.7" fill="rgb(227,227,235)" stroke="rgba(34,42,48,0.22)" stroke-width="0.35"/>
<polygon points="104.0,44.0 106.1,42.1 106.5,43.5" fill="rgb(227,227,235)" stroke="rgba(34,42,48,0.22)" stroke-width="0.35"/>
<polygon points="106.5,43.5 111.8,43.3 104.0,44.0" fill="rgb(211,211,219)" stroke="rgba(34,42,48,0.22)" stroke-width="0.35"/>
<polygon points="80.1,41.4 77.6,43.5 77.3,44.7" fill="rgb(171,171,179)" stroke="rgba(34,42,48,0.22)" stroke-width="0.35"/>
<polygon points="114.9,42.3 116.8,44.2 114.4,43.6" fill="rgb(223,223,231)" stroke="rgba(34,42,48,0.22)" stroke-width="0.35"/>
<polygon points="116.8,44.2 114.9,42.3 117.6,43.0" fill="rgb(223,223,231)" stroke="rgba(34,42,48,0.22)" stroke-width="0.35"/>
<polygon points="141.0,42.5 143.1,44.7 140.7,41.3" fill="rgb(157,157,165)" stroke="rgba(34,42,48,0.22)" stroke-width="0.35"/>
<polygon points="119.0,45.1 111.8,43.3 114.4,43.6" fill="rgb(211,211,219)" stroke="rgba(34,42,48,0.22)" stroke-width="0.35"/>
<polygon points="101.7,44.7 103.3,42.7 104.0,44.0" fill="rgb(226,226,234)" stroke="rgba(34,42,48,0.22)" stroke-width="0.35"/>
<polygon points="119.0,45.1 104.0,44.0 111.8,43.3" fill="rgb(211,211,219)" stroke="rgba(34,42,48,0.22)" stroke-width="0.35"/>
<polygon points="143.4,45.9 142.6,43.0 145.1,46.6" fill="rgb(199,199,207)" stroke="rgba(34,42,48,0.22)" stroke-width="0.35"/>
<polygon points="103.3,42.7 101.7,44.7 100.8,43.5" fill="rgb(226,226,234)" stroke="rgba(34,42,48,0.22)" stroke-width="0.35"/>
<polygon points="120.0,43.9 116.8,44.2 117.6,43.0" fill="rgb(220,220,228)" stroke="rgba(34,42,48,0.22)" stroke-width="0.35"/>
<polygon points="122.1,45.1 137.2,38.3 123.6,46.4" fill="rgb(211,211,219)" stroke="rgba(34,42,48,0.22)" stroke-width="0.35"/>
<polygon points="119.0,45.1 114.4,43.6 116.8,44.2" fill="rgb(211,211,219)" stroke="rgba(34,42,48,0.22)" stroke-width="0.35"/>
<polygon points="96.9,45.9 80.4,40.2 98.6,44.6" fill="rgb(212,212,220)" stroke="rgba(34,42,48,0.22)" stroke-width="0.35"/>
<polygon points="116.8,44.2 120.0,43.9 119.0,45.1" fill="rgb(220,220,228)" stroke="rgba(34,42,48,0.22)" stroke-width="0.35"/>
<polygon points="143.1,44.7 141.0,42.5 143.4,45.9" fill="rgb(157,157,165)" stroke="rgba(34,42,48,0.22)" stroke-width="0.35"/>
<polygon points="104.0,44.0 99.8,45.7 101.7,44.7" fill="rgb(211,211,219)" stroke="rgba(34,42,48,0.22)" stroke-width="0.35"/>
<polygon points="99.8,45.7 100.8,43.5 101.7,44.7" fill="rgb(224,224,232)" stroke="rgba(34,42,48,0.22)" stroke-width="0.35"/>
<polygon points="142.6,43.0 169.0,49.6 145.1,46.6" fill="rgb(211,211,219)" stroke="rgba(34,42,48,0.22)" stroke-width="0.35"/>
<polygon points="80.4,40.2 95.6,47.4 77.6,43.5" fill="rgb(212,212,220)" stroke="rgba(34,42,48,0.22)" stroke-width="0.35"/>
<polygon points="100.8,43.5 99.8,45.7 98.6,44.6" fill="rgb(224,224,232)" stroke="rgba(34,42,48,0.22)" stroke-width="0.35"/>
<polygon points="120.0,43.9 120.8,46.1 119.0,45.1" fill="rgb(216,216,224)" stroke="rgba(34,42,48,0.22)" stroke-width="0.35"/>
<polygon points="51.0,53.6 78.6,41.8 75.6,45.3" fill="rgb(211,211,219)" stroke="rgba(34,42,48,0.22)" stroke-width="0.35"/>
<polygon points="75.8,48.2 75.6,45.3 77.3,44.7" fill="rgb(189,189,197)" stroke="rgba(34,42,48,0.22)" stroke-width="0.35"/>
<polygon points="99.8,45.7 104.0,44.0 98.2,46.9" fill="rgb(211,211,219)" stroke="rgba(34,42,48,0.22)" stroke-width="0.35"/>
<polygon points="120.8,46.1 120.0,43.9 122.1,45.1" fill="rgb(216,216,224)" stroke="rgba(34,42,48,0.22)" stroke-width="0.35"/>
<polygon points="95.6,47.4 80.4,40.2 96.9,45.9" fill="rgb(212,212,220)" stroke="rgba(34,42,48,0.22)" stroke-width="0.35"/>
<polygon points="99.8,45.7 96.9,45.9 98.6,44.6" fill="rgb(222,222,230)" stroke="rgba(34,42,48,0.22)" stroke-width="0.35"/>
<polygon points="140.7,41.3 143.1,44.7 124.7,47.9" fill="rgb(211,211,219)" stroke="rgba(34,42,48,0.22)" stroke-width="0.35"/>
<polygon points="76.1,47.0 77.3,44.7 77.6,43.5" fill="rgb(162,162,170)" stroke="rgba(34,42,48,0.22)" stroke-width="0.35"/>
<polygon points="122.2,47.3 119.0,45.1 120.8,46.1" fill="rgb(211,211,219)" stroke="rgba(34,42,48,0.22)" stroke-width="0.35"/>
<polygon points="123.6,46.4 140.7,41.3 124.7,47.9" fill="rgb(211,211,219)" stroke="rgba(34,42,48,0.22)" stroke-width="0.35"/>
<polygon points="96.9,45.9 99.8,45.7 98.2,46.9" fill="rgb(222,222,230)" stroke="rgba(34,42,48,0.22)" stroke-width="0.35"/>
<polygon points="122.1,45.1 122.2,47.3 120.8,46.1" fill="rgb(212,212,220)" stroke="rgba(34,42,48,0.22)" stroke-width="0.35"/>
<polygon points="75.6,45.3 75.8,48.2 74.0,49.0" fill="rgb(189,189,197)" stroke="rgba(34,42,48,0.22)" stroke-width="0.35"/>
<polygon points="144.5,49.5 143.4,45.9 145.1,46.6" fill="rgb(204,204,212)" stroke="rgba(34,42,48,0.22)" stroke-width="0.35"/>
<polygon points="122.2,47.3 122.1,45.1 123.6,46.4" fill="rgb(212,212,220)" stroke="rgba(34,42,48,0.22)" stroke-width="0.35"/>
<polygon points="119.0,45.1 122.2,47.3 123.2,48.7" fill="rgb(211,211,219)" stroke="rgba(34,42,48,0.22)" stroke-width="0.35"/>
<polygon points="77.3,44.7 76.1,47.0 75.8,48.2" fill="rgb(162,162,170)" stroke="rgba(34,42,48,0.22)" stroke-width="0.35"/>
<polygon points="97.1,48.2 96.9,45.9 98.2,46.9" fill="rgb(219,219,227)" stroke="rgba(34,42,48,0.22)" stroke-width="0.35"/>
<polygon points="143.4,45.9 144.2,48.3 143.1,44.7" fill="rgb(167,167,175)" stroke="rgba(34,42,48,0.22)" stroke-width="0.35"/>
<polygon points="169.0,49.6 146.3,50.3 145.1,46.6" fill="rgb(211,211,219)" stroke="rgba(34,42,48,0.22)" stroke-width="0.35"/>
<polygon points="94.9,48.9 77.6,43.5 95.6,47.4" fill="rgb(212,212,220)" stroke="rgba(34,42,48,0.22)" stroke-width="0.35"/>
<polygon points="96.9,45.9 97.1,48.2 95.6,47.4" fill="rgb(219,219,227)" stroke="rgba(34,42,48,0.22)" stroke-width="0.35"/>
<polygon points="123.2,48.7 122.2,47.3 123.6,46.4" fill="rgb(208,208,216)" stroke="rgba(34,42,48,0.22)" stroke-width="0.35"/>
<polygon points="77.6,43.5 94.9,48.9 76.1,47.0" fill="rgb(212,212,220)" stroke="rgba(34,42,48,0.22)" stroke-width="0.35"/>
<polygon points="145.1,46.6 146.3,50.3 144.5,49.5" fill="rgb(204,204,212)" stroke="rgba(34,42,48,0.22)" stroke-width="0.35"/>
<polygon points="51.0,53.6 75.6,45.3 74.0,49.0" fill="rgb(211,211,219)" stroke="rgba(34,42,48,0.22)" stroke-width="0.35"/>
<polygon points="123.6,50.1 119.0,45.1 123.2,48.7" fill="rgb(211,211,219)" stroke="rgba(34,42,48,0.22)" stroke-width="0.35"/>
<polygon points="104.0,44.0 119.0,45.1 120.2,55.4" fill="rgb(211,211,219)" stroke="rgba(34,42,48,0.22)" stroke-width="0.35"/>
<polygon points="123.2,48.7 123.6,46.4 124.7,47.9" fill="rgb(208,208,216)" stroke="rgba(34,42,48,0.22)" stroke-width="0.35"/>
<polygon points="144.2,48.3 124.7,47.9 143.1,44.7" fill="rgb(210,210,218)" stroke="rgba(34,42,48,0.22)" stroke-width="0.35"/>
<polygon points="144.2,48.3 143.4,45.9 144.5,49.5" fill="rgb(167,167,175)" stroke="rgba(34,42,48,0.22)" stroke-width="0.35"/>
<polygon points="96.5,49.6 95.6,47.4 97.1,48.2" fill="rgb(216,216,224)" stroke="rgba(34,42,48,0.22)" stroke-width="0.35"/>
<polygon points="96.4,51.0 97.1,48.2 98.2,46.9" fill="rgb(211,211,219)" stroke="rgba(34,42,48,0.22)" stroke-width="0.35"/>
<polygon points="101.0,56.0 98.2,46.9 104.0,44.0" fill="rgb(211,211,219)" stroke="rgba(34,42,48,0.22)" stroke-width="0.35"/>
<polygon points="75.5,51.8 74.0,49.0 75.8,48.2" fill="rgb(194,194,202)" stroke="rgba(34,42,48,0.22)" stroke-width="0.35"/>
<polygon points="95.6,47.4 96.5,49.6 94.9,48.9" fill="rgb(216,216,224)" stroke="rgba(34,42,48,0.22)" stroke-width="0.35"/>
<polygon points="125.2,49.5 123.2,48.7 124.7,47.9" fill="rgb(204,204,212)" stroke="rgba(34,42,48,0.22)" stroke-width="0.35"/>
<polygon points="97.1,48.2 96.4,51.0 96.5,49.6" fill="rgb(211,211,219)" stroke="rgba(34,42,48,0.22)" stroke-width="0.35"/>
<polygon points="75.8,50.6 75.8,48.2 76.1,47.0" fill="rgb(152,152,160)" stroke="rgba(34,42,48,0.22)" stroke-width="0.35"/>
<polygon points="124.7,47.9 144.2,48.3 125.2,49.5" fill="rgb(210,210,218)" stroke="rgba(34,42,48,0.22)" stroke-width="0.35"/>
<polygon points="123.2,48.7 125.2,49.5 123.6,50.1" fill="rgb(204,204,212)" stroke="rgba(34,42,48,0.22)" stroke-width="0.35"/>
<polygon points="94.8,50.5 76.1,47.0 94.9,48.9" fill="rgb(211,211,219)" stroke="rgba(34,42,48,0.22)" stroke-width="0.35"/>
<polygon points="169.0,49.6 146.0,54.2 146.3,50.3" fill="rgb(211,211,219)" stroke="rgba(34,42,48,0.22)" stroke-width="0.35"/>
<polygon points="98.2,46.9 96.8,52.4 96.4,51.0" fill="rgb(211,211,219)" stroke="rgba(34,42,48,0.22)" stroke-width="0.35"/>
<polygon points="119.0,45.1 123.6,50.1 120.2,55.4" fill="rgb(211,211,219)" stroke="rgba(34,42,48,0.22)" stroke-width="0.35"/>
<polygon points="96.5,49.6 94.8,50.5 94.9,48.9" fill="rgb(212,212,220)" stroke="rgba(34,42,48,0.22)" stroke-width="0.35"/>
<polygon points="113.7,81.4 169.0,47.8 106.3,18.2" fill="rgb(211,211,219)" stroke="rgba(34,42,48,0.22)" stroke-width="0.35"/>
<polygon points="74.0,49.0 75.5,51.8 73.7,52.8" fill="rgb(194,194,202)" stroke="rgba(34,42,48,0.22)" stroke-width="0.35"/>
<polygon points="51.0,53.6 74.0,49.0 73.7,52.8" fill="rgb(211,211,219)" stroke="rgba(34,42,48,0.22)" stroke-width="0.35"/>
<polygon points="144.2,53.1 144.5,49.5 146.3,50.3" fill="rgb(210,210,218)" stroke="rgba(34,42,48,0.22)" stroke-width="0.35"/>
<polygon points="94.8,50.5 96.5,49.6 96.4,51.0" fill="rgb(212,212,220)" stroke="rgba(34,42,48,0.22)" stroke-width="0.35"/>
<polygon points="123.5,51.5 123.6,50.1 125.2,49.5" fill="rgb(200,200,208)" stroke="rgba(34,42,48,0.22)" stroke-width="0.35"/>
<polygon points="75.8,48.2 75.8,50.6 75.5,51.8" fill="rgb(152,152,160)" stroke="rgba(34,42,48,0.22)" stroke-width="0.35"/>
<polygon points="125.2,49.5 144.2,48.3 125.1,51.1" fill="rgb(210,210,218)" stroke="rgba(34,42,48,0.22)" stroke-width="0.35"/>
<polygon points="76.1,47.0 94.8,50.5 75.8,50.6" fill="rgb(211,211,219)" stroke="rgba(34,42,48,0.22)" stroke-width="0.35"/>
<polygon points="144.2,53.1 144.2,48.3 144.5,49.5" fill="rgb(177,177,185)" stroke="rgba(34,42,48,0.22)" stroke-width="0.35"/>
<polygon points="98.2,46.9 97.8,53.8 96.8,52.4" fill="rgb(211,211,219)" stroke="rgba(34,42,48,0.22)" stroke-width="0.35"/>
<polygon points="125.2,49.5 125.1,51.1 123.5,51.5" fill="rgb(200,200,208)" stroke="rgba(34,42,48,0.22)" stroke-width="0.35"/>
<polygon points="122.9,52.9 123.6,50.1 123.5,51.5" fill="rgb(211,211,219)" stroke="rgba(34,42,48,0.22)" stroke-width="0.35"/>
<polygon points="113.7,81.4 106.3,18.2 51.0,51.8" fill="rgb(211,211,219)" stroke="rgba(34,42,48,0.22)" stroke-width="0.35"/>
<polygon points="146.3,50.3 146.0,54.2 144.2,53.1" fill="rgb(210,210,218)" stroke="rgba(34,42,48,0.22)" stroke-width="0.35"/>
<polygon points="96.4,51.0 95.3,52.1 94.8,50.5" fill="rgb(208,208,216)" stroke="rgba(34,42,48,0.22)" stroke-width="0.35"/>
<polygon points="143.9,51.8 125.1,51.1 144.2,48.3" fill="rgb(210,210,218)" stroke="rgba(34,42,48,0.22)" stroke-width="0.35"/>
<polygon points="101.0,56.0 104.0,44.0 120.2,55.4" fill="rgb(211,211,219)" stroke="rgba(34,42,48,0.22)" stroke-width="0.35"/>
<polygon points="144.2,48.3 144.2,53.1 143.9,51.8" fill="rgb(177,177,185)" stroke="rgba(34,42,48,0.22)" stroke-width="0.35"/>
<polygon points="95.3,52.1 96.4,51.0 96.8,52.4" fill="rgb(208,208,216)" stroke="rgba(34,42,48,0.22)" stroke-width="0.35"/>
<polygon points="95.3,52.1 75.8,50.6 94.8,50.5" fill="rgb(211,211,219)" stroke="rgba(34,42,48,0.22)" stroke-width="0.35"/>
<polygon points="98.2,46.9 101.0,56.0 97.8,53.8" fill="rgb(211,211,219)" stroke="rgba(34,42,48,0.22)" stroke-width="0.35"/>
<polygon points="124.4,52.6 123.5,51.5 125.1,51.1" fill="rgb(196,196,204)" stroke="rgba(34,42,48,0.22)" stroke-width="0.35"/>
<polygon points="169.0,49.6 144.4,57.9 146.0,54.2" fill="rgb(211,211,219)" stroke="rgba(34,42,48,0.22)" stroke-width="0.35"/>
<polygon points="123.5,51.5 124.4,52.6 122.9,52.9" fill="rgb(196,196,204)" stroke="rgba(34,42,48,0.22)" stroke-width="0.35"/>
<polygon points="76.6,55.4 73.7,52.8 75.5,51.8" fill="rgb(200,200,208)" stroke="rgba(34,42,48,0.22)" stroke-width="0.35"/>
<polygon points="123.6,50.1 122.9,52.9 120.2,55.4" fill="rgb(211,211,219)" stroke="rgba(34,42,48,0.22)" stroke-width="0.35"/>
<polygon points="51.0,53.6 73.7,52.8 74.9,56.6" fill="rgb(211,211,219)" stroke="rgba(34,42,48,0.22)" stroke-width="0.35"/>
<polygon points="76.6,55.4 75.5,51.8 75.8,50.6" fill="rgb(158,158,166)" stroke="rgba(34,42,48,0.22)" stroke-width="0.35"/>
<polygon points="96.4,53.6 95.3,52.1 96.8,52.4" fill="rgb(204,204,212)" stroke="rgba(34,42,48,0.22)" stroke-width="0.35"/>
<polygon points="96.4,53.6 96.8,52.4 97.8,53.8" fill="rgb(204,204,212)" stroke="rgba(34,42,48,0.22)" stroke-width="0.35"/>
<polygon points="124.4,52.6 121.8,54.2 122.9,52.9" fill="rgb(193,193,201)" stroke="rgba(34,42,48,0.22)" stroke-width="0.35"/>
<polygon points="75.8,50.6 95.3,52.1 76.9,54.1" fill="rgb(211,211,219)" stroke="rgba(34,42,48,0.22)" stroke-width="0.35"/>
<polygon points="73.7,52.8 76.6,55.4 74.9,56.6" fill="rgb(200,200,208)" stroke="rgba(34,42,48,0.22)" stroke-width="0.35"/>
<polygon points="144.4,57.9 144.2,53.1 146.0,54.2" fill="rgb(215,215,223)" stroke="rgba(34,42,48,0.22)" stroke-width="0.35"/>
<polygon points="125.1,51.1 142.4,55.3 124.4,52.6" fill="rgb(210,210,218)" stroke="rgba(34,42,48,0.22)" stroke-width="0.35"/>
<polygon points="142.4,55.3 125.1,51.1 143.9,51.8" fill="rgb(210,210,218)" stroke="rgba(34,42,48,0.22)" stroke-width="0.35"/>
<polygon points="124.4,52.6 123.1,54.1 121.8,54.2" fill="rgb(193,193,201)" stroke="rgba(34,42,48,0.22)" stroke-width="0.35"/>
<polygon points="120.2,55.4 122.9,52.9 121.8,54.2" fill="rgb(211,211,219)" stroke="rgba(34,42,48,0.22)" stroke-width="0.35"/>
<polygon points="96.4,53.6 76.9,54.1 95.3,52.1" fill="rgb(210,210,218)" stroke="rgba(34,42,48,0.22)" stroke-width="0.35"/>
<polygon points="142.7,56.6 143.9,51.8 144.2,53.1" fill="rgb(187,187,195)" stroke="rgba(34,42,48,0.22)" stroke-width="0.35"/>
<polygon points="75.8,50.6 76.9,54.1 76.6,55.4" fill="rgb(158,158,166)" stroke="rgba(34,42,48,0.22)" stroke-width="0.35"/>
<polygon points="97.9,54.9 96.4,53.6 97.8,53.8" fill="rgb(200,200,208)" stroke="rgba(34,42,48,0.22)" stroke-width="0.35"/>
<polygon points="97.9,54.9 97.8,53.8 99.2,55.0" fill="rgb(200,200,208)" stroke="rgba(34,42,48,0.22)" stroke-width="0.35"/>
<polygon points="169.0,49.6 141.4,61.3 144.4,57.9" fill="rgb(211,211,219)" stroke="rgba(34,42,48,0.22)" stroke-width="0.35"/>
<polygon points="97.8,53.8 101.0,56.0 99.2,55.0" fill="rgb(211,211,219)" stroke="rgba(34,42,48,0.22)" stroke-width="0.35"/>
<polygon points="142.4,55.3 123.1,54.1 124.4,52.6" fill="rgb(209,209,217)" stroke="rgba(34,42,48,0.22)" stroke-width="0.35"/>
<polygon points="121.4,55.4 121.8,54.2 123.1,54.1" fill="rgb(190,190,198)" stroke="rgba(34,42,48,0.22)" stroke-width="0.35"/>
<polygon points="121.8,54.2 121.4,55.4 120.2,55.4" fill="rgb(190,190,198)" stroke="rgba(34,42,48,0.22)" stroke-width="0.35"/>
<polygon points="144.2,53.1 144.4,57.9 142.7,56.6" fill="rgb(215,215,223)" stroke="rgba(34,42,48,0.22)" stroke-width="0.35"/>
<polygon points="51.0,53.6 74.9,56.6 77.4,60.1" fill="rgb(211,211,219)" stroke="rgba(34,42,48,0.22)" stroke-width="0.35"/>
<polygon points="101.0,56.0 97.9,54.9 99.2,55.0" fill="rgb(196,196,204)" stroke="rgba(34,42,48,0.22)" stroke-width="0.35"/>
<polygon points="143.9,51.8 142.7,56.6 142.4,55.3" fill="rgb(187,187,195)" stroke="rgba(34,42,48,0.22)" stroke-width="0.35"/>
<polygon points="121.4,55.4 118.3,56.4 120.2,55.4" fill="rgb(188,188,196)" stroke="rgba(34,42,48,0.22)" stroke-width="0.35"/>
<polygon points="97.9,54.9 101.0,56.0 100.0,56.1" fill="rgb(196,196,204)" stroke="rgba(34,42,48,0.22)" stroke-width="0.35"/>
<polygon points="116.0,57.1 120.2,55.4 118.3,56.4" fill="rgb(211,211,219)" stroke="rgba(34,42,48,0.22)" stroke-width="0.35"/>
<polygon points="113.5,57.6 101.0,56.0 120.2,55.4" fill="rgb(211,211,219)" stroke="rgba(34,42,48,0.22)" stroke-width="0.35"/>
<polygon points="79.0,58.8 74.9,56.6 76.6,55.4" fill="rgb(205,205,213)" stroke="rgba(34,42,48,0.22)" stroke-width="0.35"/>
<polygon points="76.9,54.1 96.4,53.6 79.3,57.5" fill="rgb(210,210,218)" stroke="rgba(34,42,48,0.22)" stroke-width="0.35"/>
<polygon points="79.0,58.8 76.6,55.4 76.9,54.1" fill="rgb(169,169,177)" stroke="rgba(34,42,48,0.22)" stroke-width="0.35"/>
<polygon points="118.3,56.4 121.4,55.4 119.2,56.5" fill="rgb(188,188,196)" stroke="rgba(34,42,48,0.22)" stroke-width="0.35"/>
<polygon points="103.2,56.9 100.0,56.1 101.0,56.0" fill="rgb(192,192,200)" stroke="rgba(34,42,48,0.22)" stroke-width="0.35"/>
<polygon points="113.5,57.6 120.2,55.4 116.0,57.1" fill="rgb(211,211,219)" stroke="rgba(34,42,48,0.22)" stroke-width="0.35"/>
<polygon points="101.0,56.0 113.5,57.6 103.2,56.9" fill="rgb(211,211,219)" stroke="rgba(34,42,48,0.22)" stroke-width="0.35"/>
<polygon points="169.0,49.6 137.3,64.4 141.4,61.3" fill="rgb(211,211,219)" stroke="rgba(34,42,48,0.22)" stroke-width="0.35"/>
<polygon points="139.6,58.6 121.4,55.4 123.1,54.1" fill="rgb(209,209,217)" stroke="rgba(34,42,48,0.22)" stroke-width="0.35"/>
<polygon points="118.3,56.4 116.7,57.3 116.0,57.1" fill="rgb(186,186,194)" stroke="rgba(34,42,48,0.22)" stroke-width="0.35"/>
<polygon points="100.0,56.1 103.2,56.9 102.4,57.0" fill="rgb(192,192,200)" stroke="rgba(34,42,48,0.22)" stroke-width="0.35"/>
<polygon points="116.7,57.3 118.3,56.4 119.2,56.5" fill="rgb(186,186,194)" stroke="rgba(34,42,48,0.22)" stroke-width="0.35"/>
<polygon points="139.6,58.6 123.1,54.1 142.4,55.3" fill="rgb(209,209,217)" stroke="rgba(34,42,48,0.22)" stroke-width="0.35"/>
<polygon points="103.2,56.9 108.2,57.8 105.6,57.5" fill="rgb(211,211,219)" stroke="rgba(34,42,48,0.22)" stroke-width="0.35"/>
<polygon points="105.6,57.5 102.4,57.0 103.2,56.9" fill="rgb(190,190,198)" stroke="rgba(34,42,48,0.22)" stroke-width="0.35"/>
<polygon points="82.8,60.5 96.4,53.6 97.9,54.9" fill="rgb(210,210,218)" stroke="rgba(34,42,48,0.22)" stroke-width="0.35"/>
<polygon points="103.2,56.9 113.5,57.6 108.2,57.8" fill="rgb(211,211,219)" stroke="rgba(34,42,48,0.22)" stroke-width="0.35"/>
<polygon points="74.9,56.6 79.0,58.8 77.4,60.1" fill="rgb(205,205,213)" stroke="rgba(34,42,48,0.22)" stroke-width="0.35"/>
<polygon points="139.9,59.9 142.7,56.6 144.4,57.9" fill="rgb(220,220,228)" stroke="rgba(34,42,48,0.22)" stroke-width="0.35"/>
<polygon points="81.1,63.4 51.0,53.6 77.4,60.1" fill="rgb(211,211,219)" stroke="rgba(34,42,48,0.22)" stroke-width="0.35"/>
<polygon points="108.2,57.8 113.5,57.6 110.9,57.8" fill="rgb(211,211,219)" stroke="rgba(34,42,48,0.22)" stroke-width="0.35"/>
<polygon points="139.9,59.9 142.4,55.3 142.7,56.6" fill="rgb(196,196,204)" stroke="rgba(34,42,48,0.22)" stroke-width="0.35"/>
<polygon points="116.0,57.1 113.9,57.9 113.5,57.6" fill="rgb(185,185,193)" stroke="rgba(34,42,48,0.22)" stroke-width="0.35"/>
<polygon points="76.9,54.1 79.3,57.5 79.0,58.8" fill="rgb(169,169,177)" stroke="rgba(34,42,48,0.22)" stroke-width="0.35"/>
<polygon points="108.2,57.8 105.1,57.7 105.6,57.5" fill="rgb(187,187,195)" stroke="rgba(34,42,48,0.22)" stroke-width="0.35"/>
<polygon points="102.4,57.0 105.6,57.5 105.1,57.7" fill="rgb(190,190,198)" stroke="rgba(34,42,48,0.22)" stroke-width="0.35"/>
<polygon points="113.9,57.9 116.0,57.1 116.7,57.3" fill="rgb(185,185,193)" stroke="rgba(34,42,48,0.22)" stroke-width="0.35"/>
<polygon points="113.5,57.6 111.0,58.1 110.9,57.8" fill="rgb(185,185,193)" stroke="rgba(34,42,48,0.22)" stroke-width="0.35"/>
<polygon points="110.9,57.8 108.0,58.1 108.2,57.8" fill="rgb(186,186,194)" stroke="rgba(34,42,48,0.22)" stroke-width="0.35"/>
<polygon points="100.0,56.1 82.8,60.5 97.9,54.9" fill="rgb(210,210,218)" stroke="rgba(34,42,48,0.22)" stroke-width="0.35"/>
<polygon points="105.1,57.7 108.2,57.8 108.0,58.1" fill="rgb(187,187,195)" stroke="rgba(34,42,48,0.22)" stroke-width="0.35"/>
<polygon points="111.0,58.1 113.5,57.6 113.9,57.9" fill="rgb(185,185,193)" stroke="rgba(34,42,48,0.22)" stroke-width="0.35"/>
<polygon points="79.3,57.5 96.4,53.6 82.8,60.5" fill="rgb(210,210,218)" stroke="rgba(34,42,48,0.22)" stroke-width="0.35"/>
<polygon points="108.0,58.1 110.9,57.8 111.0,58.1" fill="rgb(186,186,194)" stroke="rgba(34,42,48,0.22)" stroke-width="0.35"/>
<polygon points="144.4,57.9 141.4,61.3 139.9,59.9" fill="rgb(220,220,228)" stroke="rgba(34,42,48,0.22)" stroke-width="0.35"/>
<polygon points="135.7,61.5 119.2,56.5 121.4,55.4" fill="rgb(209,209,217)" stroke="rgba(34,42,48,0.22)" stroke-width="0.35"/>
<polygon points="142.4,55.3 139.9,59.9 139.6,58.6" fill="rgb(196,196,204)" stroke="rgba(34,42,48,0.22)" stroke-width="0.35"/>
<polygon points="86.0,66.2 51.0,53.6 81.1,63.4" fill="rgb(211,211,219)" stroke="rgba(34,42,48,0.22)" stroke-width="0.35"/>
<polygon points="82.5,61.9 77.4,60.1 79.0,58.8" fill="rgb(211,211,219)" stroke="rgba(34,42,48,0.22)" stroke-width="0.35"/>
<polygon points="102.4,57.0 87.4,63.2 100.0,56.1" fill="rgb(209,209,217)" stroke="rgba(34,42,48,0.22)" stroke-width="0.35"/>
<polygon points="82.5,61.9 79.0,58.8 79.3,57.5" fill="rgb(179,179,187)" stroke="rgba(34,42,48,0.22)" stroke-width="0.35"/>
<polygon points="135.7,61.5 121.4,55.4 139.6,58.6" fill="rgb(209,209,217)" stroke="rgba(34,42,48,0.22)" stroke-width="0.35"/>
<polygon points="130.8,64.0 116.7,57.3 119.2,56.5" fill="rgb(209,209,217)" stroke="rgba(34,42,48,0.22)" stroke-width="0.35"/>
<polygon points="77.4,60.1 82.5,61.9 81.1,63.4" fill="rgb(211,211,219)" stroke="rgba(34,42,48,0.22)" stroke-width="0.35"/>
<polygon points="141.4,61.3 135.9,62.9 139.9,59.9" fill="rgb(224,224,232)" stroke="rgba(34,42,48,0.22)" stroke-width="0.35"/>
<polygon points="135.9,62.9 139.6,58.6 139.9,59.9" fill="rgb(204,204,212)" stroke="rgba(34,42,48,0.22)" stroke-width="0.35"/>
<polygon points="79.3,57.5 82.8,60.5 82.5,61.9" fill="rgb(179,179,187)" stroke="rgba(34,42,48,0.22)" stroke-width="0.35"/>
<polygon points="105.1,57.7 92.8,65.3 102.4,57.0" fill="rgb(209,209,217)" stroke="rgba(34,42,48,0.22)" stroke-width="0.35"/>
<polygon points="82.8,60.5 100.0,56.1 87.4,63.2" fill="rgb(210,210,218)" stroke="rgba(34,42,48,0.22)" stroke-width="0.35"/>
<polygon points="125.1,65.9 113.9,57.9 116.7,57.3" fill="rgb(209,209,217)" stroke="rgba(34,42,48,0.22)" stroke-width="0.35"/>
<polygon points="108.0,58.1 98.9,66.8 105.1,57.7" fill="rgb(209,209,217)" stroke="rgba(34,42,48,0.22)" stroke-width="0.35"/>
<polygon points="141.4,61.3 137.3,64.4 135.9,62.9" fill="rgb(224,224,232)" stroke="rgba(34,42,48,0.22)" stroke-width="0.35"/>
<polygon points="119.2,56.5 135.7,61.5 130.8,64.0" fill="rgb(209,209,217)" stroke="rgba(34,42,48,0.22)" stroke-width="0.35"/>
<polygon points="139.6,58.6 135.9,62.9 135.7,61.5" fill="rgb(204,204,212)" stroke="rgba(34,42,48,0.22)" stroke-width="0.35"/>
<polygon points="113.9,57.9 112.1,67.7 111.0,58.1" fill="rgb(209,209,217)" stroke="rgba(34,42,48,0.22)" stroke-width="0.35"/>
<polygon points="111.0,58.1 105.4,67.6 108.0,58.1" fill="rgb(209,209,217)" stroke="rgba(34,42,48,0.22)" stroke-width="0.35"/>
<polygon points="87.2,64.5 81.1,63.4 82.5,61.9" fill="rgb(216,216,224)" stroke="rgba(34,42,48,0.22)" stroke-width="0.35"/>
<polygon points="87.2,64.5 82.5,61.9 82.8,60.5" fill="rgb(189,189,197)" stroke="rgba(34,42,48,0.22)" stroke-width="0.35"/>
<polygon points="87.4,63.2 102.4,57.0 92.8,65.3" fill="rgb(209,209,217)" stroke="rgba(34,42,48,0.22)" stroke-width="0.35"/>
<polygon points="81.1,63.4 87.2,64.5 86.0,66.2" fill="rgb(216,216,224)" stroke="rgba(34,42,48,0.22)" stroke-width="0.35"/>
<polygon points="116.7,57.3 130.8,64.0 125.1,65.9" fill="rgb(209,209,217)" stroke="rgba(34,42,48,0.22)" stroke-width="0.35"/>
<polygon points="82.8,60.5 87.4,63.2 87.2,64.5" fill="rgb(189,189,197)" stroke="rgba(34,42,48,0.22)" stroke-width="0.35"/>
<polygon points="132.1,67.0 135.9,62.9 137.3,64.4" fill="rgb(227,227,235)" stroke="rgba(34,42,48,0.22)" stroke-width="0.35"/>
<polygon points="135.9,62.9 130.8,64.0 135.7,61.5" fill="rgb(210,210,218)" stroke="rgba(34,42,48,0.22)" stroke-width="0.35"/>
<polygon points="169.0,49.6 113.7,83.2 137.3,64.4" fill="rgb(211,211,219)" stroke="rgba(34,42,48,0.22)" stroke-width="0.35"/>
<polygon points="135.9,62.9 131.0,65.4 130.8,64.0" fill="rgb(210,210,218)" stroke="rgba(34,42,48,0.22)" stroke-width="0.35"/>
<polygon points="135.9,62.9 132.1,67.0 131.0,65.4" fill="rgb(227,227,235)" stroke="rgba(34,42,48,0.22)" stroke-width="0.35"/>
<polygon points="92.8,65.3 105.1,57.7 98.9,66.8" fill="rgb(209,209,217)" stroke="rgba(34,42,48,0.22)" stroke-width="0.35"/>
<polygon points="113.9,57.9 125.1,65.9 118.8,67.1" fill="rgb(209,209,217)" stroke="rgba(34,42,48,0.22)" stroke-width="0.35"/>
<polygon points="92.6,66.7 86.0,66.2 87.2,64.5" fill="rgb(220,220,228)" stroke="rgba(34,42,48,0.22)" stroke-width="0.35"/>
<polygon points="92.8,65.3 87.2,64.5 87.4,63.2" fill="rgb(197,197,205)" stroke="rgba(34,42,48,0.22)" stroke-width="0.35"/>
<polygon points="98.9,66.8 108.0,58.1 105.4,67.6" fill="rgb(209,209,217)" stroke="rgba(34,42,48,0.22)" stroke-width="0.35"/>
<polygon points="112.1,67.7 113.9,57.9 118.8,67.1" fill="rgb(209,209,217)" stroke="rgba(34,42,48,0.22)" stroke-width="0.35"/>
<polygon points="105.4,67.6 111.0,58.1 112.1,67.7" fill="rgb(209,209,217)" stroke="rgba(34,42,48,0.22)" stroke-width="0.35"/>
<polygon points="87.2,64.5 92.8,65.3 92.6,66.7" fill="rgb(197,197,205)" stroke="rgba(34,42,48,0.22)" stroke-width="0.35"/>
<polygon points="132.1,67.0 125.2,67.3 131.0,65.4" fill="rgb(229,229,237)" stroke="rgba(34,42,48,0.22)" stroke-width="0.35"/>
<polygon points="86.0,66.2 92.6,66.7 91.7,68.4" fill="rgb(220,220,228)" stroke="rgba(34,42,48,0.22)" stroke-width="0.35"/>
<polygon points="131.0,65.4 125.1,65.9 130.8,64.0" fill="rgb(214,214,222)" stroke="rgba(34,42,48,0.22)" stroke-width="0.35"/>
<polygon points="113.7,83.2 51.0,53.6 86.0,66.2" fill="rgb(211,211,219)" stroke="rgba(34,42,48,0.22)" stroke-width="0.35"/>
<polygon points="131.0,65.4 125.2,67.3 125.1,65.9" fill="rgb(214,214,222)" stroke="rgba(34,42,48,0.22)" stroke-width="0.35"/>
<polygon points="125.2,67.3 132.1,67.0 126.0,69.1" fill="rgb(229,229,237)" stroke="rgba(34,42,48,0.22)" stroke-width="0.35"/>
<polygon points="98.8,68.2 91.7,68.4 92.6,66.7" fill="rgb(224,224,232)" stroke="rgba(34,42,48,0.22)" stroke-width="0.35"/>
<polygon points="98.9,66.8 92.6,66.7 92.8,65.3" fill="rgb(205,205,213)" stroke="rgba(34,42,48,0.22)" stroke-width="0.35"/>
<polygon points="92.6,66.7 98.9,66.8 98.8,68.2" fill="rgb(205,205,213)" stroke="rgba(34,42,48,0.22)" stroke-width="0.35"/>
<polygon points="126.0,69.1 118.9,68.5 125.2,67.3" fill="rgb(230,230,238)" stroke="rgba(34,42,48,0.22)" stroke-width="0.35"/>
<polygon points="125.2,67.3 118.8,67.1 125.1,65.9" fill="rgb(216,216,224)" stroke="rgba(34,42,48,0.22)" stroke-width="0.35"/>
<polygon points="91.7,68.4 98.8,68.2 98.2,70.0" fill="rgb(224,224,232)" stroke="rgba(34,42,48,0.22)" stroke-width="0.35"/>
<polygon points="125.2,67.3 118.9,68.5 118.8,67.1" fill="rgb(216,216,224)" stroke="rgba(34,42,48,0.22)" stroke-width="0.35"/>
<polygon points="118.9,68.5 126.0,69.1 119.3,70.4" fill="rgb(230,230,238)" stroke="rgba(34,42,48,0.22)" stroke-width="0.35"/>
<polygon points="105.4,69.0 98.2,70.0 98.8,68.2" fill="rgb(227,227,235)" stroke="rgba(34,42,48,0.22)" stroke-width="0.35"/>
<polygon points="105.4,67.6 98.8,68.2 98.9,66.8" fill="rgb(210,210,218)" stroke="rgba(34,42,48,0.22)" stroke-width="0.35"/>
<polygon points="98.8,68.2 105.4,67.6 105.4,69.0" fill="rgb(210,210,218)" stroke="rgba(34,42,48,0.22)" stroke-width="0.35"/>
<polygon points="118.9,68.5 112.1,67.7 118.8,67.1" fill="rgb(216,216,224)" stroke="rgba(34,42,48,0.22)" stroke-width="0.35"/>
<polygon points="118.9,68.5 112.2,69.1 112.1,67.7" fill="rgb(216,216,224)" stroke="rgba(34,42,48,0.22)" stroke-width="0.35"/>
<polygon points="98.2,70.0 105.4,69.0 105.2,70.9" fill="rgb(227,227,235)" stroke="rgba(34,42,48,0.22)" stroke-width="0.35"/>
<polygon points="112.3,71.0 118.9,68.5 119.3,70.4" fill="rgb(230,230,238)" stroke="rgba(34,42,48,0.22)" stroke-width="0.35"/>
<polygon points="118.9,68.5 112.3,71.0 112.2,69.1" fill="rgb(230,230,238)" stroke="rgba(34,42,48,0.22)" stroke-width="0.35"/>
<polygon points="105.4,69.0 112.1,67.7 112.2,69.1" fill="rgb(214,214,222)" stroke="rgba(34,42,48,0.22)" stroke-width="0.35"/>
<polygon points="112.2,69.1 105.2,70.9 105.4,69.0" fill="rgb(229,229,237)" stroke="rgba(34,42,48,0.22)" stroke-width="0.35"/>
<polygon points="112.1,67.7 105.4,69.0 105.4,67.6" fill="rgb(214,214,222)" stroke="rgba(34,42,48,0.22)" stroke-width="0.35"/>
<polygon points="105.2,70.9 112.2,69.1 112.3,71.0" fill="rgb(229,229,237)" stroke="rgba(34,42,48,0.22)" stroke-width="0.35"/>
<polygon points="137.3,64.4 113.7,83.2 132.1,67.0" fill="rgb(211,211,219)" stroke="rgba(34,42,48,0.22)" stroke-width="0.35"/>
<polygon points="113.7,83.2 86.0,66.2 91.7,68.4" fill="rgb(211,211,219)" stroke="rgba(34,42,48,0.22)" stroke-width="0.35"/>
<polygon points="132.1,67.0 113.7,83.2 126.0,69.1" fill="rgb(211,211,219)" stroke="rgba(34,42,48,0.22)" stroke-width="0.35"/>
<polygon points="113.7,83.2 91.7,68.4 98.2,70.0" fill="rgb(211,211,219)" stroke="rgba(34,42,48,0.22)" stroke-width="0.35"/>
<polygon points="113.7,83.2 119.3,70.4 126.0,69.1" fill="rgb(211,211,219)" stroke="rgba(34,42,48,0.22)" stroke-width="0.35"/>
<polygon points="113.7,83.2 98.2,70.0 105.2,70.9" fill="rgb(211,211,219)" stroke="rgba(34,42,48,0.22)" stroke-width="0.35"/>
<polygon points="113.7,83.2 112.3,71.0 119.3,70.4" fill="rgb(211,211,219)" stroke="rgba(34,42,48,0.22)" stroke-width="0.35"/>
<polygon points="112.3,71.0 113.7,83.2 105.2,70.9" fill="rgb(211,211,219)" stroke="rgba(34,42,48,0.22)" stroke-width="0.35"/></g>
  <text x="110" y="172" text-anchor="middle" font-family="ui-sans-serif, system-ui, sans-serif" font-size="12" fill="#27313a">Interior Floor</text>
</svg>
