<svg xmlns="http://www.w3.org/2000/svg" width="220" height="190" viewBox="0 0 220 190">
  <rect width="100%" height="100%" fill="#edf1f5"/>
  <g><polygon points="113.3,130.7 179.3,90.6 104.5,55.3" fill="rgb(211,211,219)" stroke="rgba(34,42,48,0.22)" stroke-width="0.35"/>
<polygon points="113.3,130.7 104.5,55.3 38.5,95.4" fill="rgb(211,211,219)" stroke="rgba(34,42,48,0.22)" stroke-width="0.35"/>
<polygon points="113.3,130.7 179.3,88.0 179.3,90.6" fill="rgb(195,195,203)" stroke="rgba(34,42,48,0.22)" stroke-width="0.35"/>
<polygon points="113.3,128.1 181.6,89.1 179.3,88.0" fill="rgb(211,211,219)" stroke="rgba(34,42,48,0.22)" stroke-width="0.35"/>
<polygon points="181.6,89.1 113.5,129.3 180.9,88.3" fill="rgb(224,224,232)" stroke="rgba(34,42,48,0.22)" stroke-width="0.35"/>
<polygon points="180.9,88.3 113.5,128.6 180.8,87.7" fill="rgb(210,210,218)" stroke="rgba(34,42,48,0.22)" stroke-width="0.35"/>
<polygon points="113.5,128.6 180.8,87.0 180.8,87.7" fill="rgb(195,195,203)" stroke="rgba(34,42,48,0.22)" stroke-width="0.35"/>
<polygon points="113.5,127.9 180.9,86.5 180.8,87.0" fill="rgb(176,176,184)" stroke="rgba(34,42,48,0.22)" stroke-width="0.35"/>
<polygon points="113.5,127.5 181.6,86.5 180.9,86.5" fill="rgb(184,184,192)" stroke="rgba(34,42,48,0.22)" stroke-width="0.35"/>
<polygon points="113.3,128.1 38.5,95.4 38.5,92.7" fill="rgb(181,181,189)" stroke="rgba(34,42,48,0.22)" stroke-width="0.35"/>
<polygon points="113.6,127.8 184.0,87.6 181.6,86.5" fill="rgb(211,211,219)" stroke="rgba(34,42,48,0.22)" stroke-width="0.35"/>
<polygon points="36.4,94.0 113.3,128.1 38.5,92.7" fill="rgb(211,211,219)" stroke="rgba(34,42,48,0.22)" stroke-width="0.35"/>
<polygon points="147.1,105.1 156.4,112.1 147.1,107.7" fill="rgb(181,181,189)" stroke="rgba(34,42,48,0.22)" stroke-width="0.35"/>
<polygon points="113.5,129.3 36.4,94.0 37.1,93.2" fill="rgb(218,218,226)" stroke="rgba(34,42,48,0.22)" stroke-width="0.35"/>
<polygon points="113.5,128.6 37.1,93.2 37.2,92.5" fill="rgb(197,197,205)" stroke="rgba(34,42,48,0.22)" stroke-width="0.35"/>
<polygon points="113.5,127.9 37.2,92.5 37.2,91.9" fill="rgb(181,181,189)" stroke="rgba(34,42,48,0.22)" stroke-width="0.35"/>
<polygon points="113.5,127.9 37.2,91.9 37.1,91.4" fill="rgb(163,163,171)" stroke="rgba(34,42,48,0.22)" stroke-width="0.35"/>
<polygon points="113.5,127.5 37.1,91.4 36.4,91.4" fill="rgb(190,190,198)" stroke="rgba(34,42,48,0.22)" stroke-width="0.35"/>
<polygon points="156.4,109.5 147.1,105.1 147.6,107.3" fill="rgb(211,211,219)" stroke="rgba(34,42,48,0.22)" stroke-width="0.35"/>
<polygon points="34.4,92.6 113.6,127.8 36.4,91.4" fill="rgb(211,211,219)" stroke="rgba(34,42,48,0.22)" stroke-width="0.35"/>
<polygon points="156.4,112.1 147.1,105.1 156.4,109.5" fill="rgb(181,181,189)" stroke="rgba(34,42,48,0.22)" stroke-width="0.35"/>
<polygon points="152.3,109.5 147.6,107.3 147.6,104.6" fill="rgb(181,181,189)" stroke="rgba(34,42,48,0.22)" stroke-width="0.35"/>
<polygon points="74.5,110.1 66.2,115.1 74.5,107.5" fill="rgb(195,195,203)" stroke="rgba(34,42,48,0.22)" stroke-width="0.35"/>
<polygon points="113.9,130.2 184.0,63.9 184.0,87.6" fill="rgb(195,195,203)" stroke="rgba(34,42,48,0.22)" stroke-width="0.35"/>
<polygon points="156.4,109.5 147.6,107.3 152.3,109.5" fill="rgb(211,211,219)" stroke="rgba(34,42,48,0.22)" stroke-width="0.35"/>
<polygon points="147.1,107.7 124.4,121.5 147.1,105.1" fill="rgb(195,195,203)" stroke="rgba(34,42,48,0.22)" stroke-width="0.35"/>
<polygon points="147.6,104.6 152.3,106.8 152.3,109.5" fill="rgb(181,181,189)" stroke="rgba(34,42,48,0.22)" stroke-width="0.35"/>
<polygon points="74.5,107.5 70.3,112.2 74.4,109.7" fill="rgb(211,211,219)" stroke="rgba(34,42,48,0.22)" stroke-width="0.35"/>
<polygon points="152.3,106.8 147.6,104.6 147.5,106.9" fill="rgb(211,211,219)" stroke="rgba(34,42,48,0.22)" stroke-width="0.35"/>
<polygon points="147.1,105.1 128.5,118.8 147.6,107.3" fill="rgb(211,211,219)" stroke="rgba(34,42,48,0.22)" stroke-width="0.35"/>
<polygon points="66.2,112.5 74.5,107.5 66.2,115.1" fill="rgb(195,195,203)" stroke="rgba(34,42,48,0.22)" stroke-width="0.35"/>
<polygon points="74.5,107.5 66.2,112.5 70.3,112.2" fill="rgb(211,211,219)" stroke="rgba(34,42,48,0.22)" stroke-width="0.35"/>
<polygon points="150.3,108.3 152.3,106.8 147.5,106.9" fill="rgb(211,211,219)" stroke="rgba(34,42,48,0.22)" stroke-width="0.35"/>
<polygon points="100.2,119.7 74.5,110.1 74.5,107.5" fill="rgb(181,181,189)" stroke="rgba(34,42,48,0.22)" stroke-width="0.35"/>
<polygon points="74.4,109.7 70.3,109.6 74.4,107.1" fill="rgb(195,195,203)" stroke="rgba(34,42,48,0.22)" stroke-width="0.35"/>
<polygon points="74.4,109.7 70.3,112.2 70.3,109.6" fill="rgb(195,195,203)" stroke="rgba(34,42,48,0.22)" stroke-width="0.35"/>
<polygon points="147.6,107.3 128.5,116.2 147.6,104.6" fill="rgb(195,195,203)" stroke="rgba(34,42,48,0.22)" stroke-width="0.35"/>
<polygon points="100.2,119.7 74.5,107.5 74.4,109.7" fill="rgb(211,211,219)" stroke="rgba(34,42,48,0.22)" stroke-width="0.35"/>
<polygon points="70.3,109.6 75.0,109.4 74.4,107.1" fill="rgb(211,211,219)" stroke="rgba(34,42,48,0.22)" stroke-width="0.35"/>
<polygon points="113.0,94.1 177.0,52.7 177.0,55.3" fill="rgb(195,195,203)" stroke="rgba(34,42,48,0.22)" stroke-width="0.35"/>
<polygon points="179.3,56.4 113.0,94.1 177.0,55.3" fill="rgb(211,211,219)" stroke="rgba(34,42,48,0.22)" stroke-width="0.35"/>
<polygon points="128.5,116.2 147.5,106.9 147.6,104.6" fill="rgb(211,211,219)" stroke="rgba(34,42,48,0.22)" stroke-width="0.35"/>
<polygon points="181.6,62.8 113.5,103.0 180.9,62.0" fill="rgb(224,224,232)" stroke="rgba(34,42,48,0.22)" stroke-width="0.35"/>
<polygon points="180.9,62.0 113.5,102.2 180.8,61.4" fill="rgb(210,210,218)" stroke="rgba(34,42,48,0.22)" stroke-width="0.35"/>
<polygon points="133.2,121.1 156.4,109.5 152.3,109.5" fill="rgb(211,211,219)" stroke="rgba(34,42,48,0.22)" stroke-width="0.35"/>
<polygon points="113.5,102.2 180.8,60.7 180.8,61.4" fill="rgb(195,195,203)" stroke="rgba(34,42,48,0.22)" stroke-width="0.35"/>
<polygon points="96.1,119.9 74.4,109.7 74.4,107.1" fill="rgb(181,181,189)" stroke="rgba(34,42,48,0.22)" stroke-width="0.35"/>
<polygon points="75.0,109.4 70.3,109.6 72.6,110.9" fill="rgb(211,211,219)" stroke="rgba(34,42,48,0.22)" stroke-width="0.35"/>
<polygon points="113.5,101.6 180.9,60.2 180.8,60.7" fill="rgb(176,176,184)" stroke="rgba(34,42,48,0.22)" stroke-width="0.35"/>
<polygon points="184.0,63.9 113.6,104.1 181.6,62.8" fill="rgb(211,211,219)" stroke="rgba(34,42,48,0.22)" stroke-width="0.35"/>
<polygon points="124.4,118.8 147.1,105.1 124.4,121.5" fill="rgb(195,195,203)" stroke="rgba(34,42,48,0.22)" stroke-width="0.35"/>
<polygon points="113.5,101.2 181.6,60.1 180.9,60.2" fill="rgb(184,184,192)" stroke="rgba(34,42,48,0.22)" stroke-width="0.35"/>
<polygon points="181.6,60.1 113.3,96.5 179.3,56.4" fill="rgb(225,225,233)" stroke="rgba(34,42,48,0.22)" stroke-width="0.35"/>
<polygon points="147.1,105.1 124.4,118.8 128.5,118.8" fill="rgb(211,211,219)" stroke="rgba(34,42,48,0.22)" stroke-width="0.35"/>
<polygon points="147.5,106.9 147.5,83.2 150.3,108.3" fill="rgb(181,181,189)" stroke="rgba(34,42,48,0.22)" stroke-width="0.35"/>
<polygon points="147.5,106.9 134.8,112.3 145.5,105.8" fill="rgb(195,195,203)" stroke="rgba(34,42,48,0.22)" stroke-width="0.35"/>
<polygon points="179.3,88.0 113.3,130.7 113.3,128.1" fill="rgb(195,195,203)" stroke="rgba(34,42,48,0.22)" stroke-width="0.35"/>
<polygon points="145.5,86.9 147.5,106.9 145.5,105.8" fill="rgb(195,195,203)" stroke="rgba(34,42,48,0.22)" stroke-width="0.35"/>
<polygon points="100.2,122.3 74.5,110.1 100.2,119.7" fill="rgb(181,181,189)" stroke="rgba(34,42,48,0.22)" stroke-width="0.35"/>
<polygon points="96.1,117.3 74.4,107.1 75.0,109.4" fill="rgb(211,211,219)" stroke="rgba(34,42,48,0.22)" stroke-width="0.35"/>
<polygon points="113.9,106.5 34.4,92.6 34.4,68.9" fill="rgb(181,181,189)" stroke="rgba(34,42,48,0.22)" stroke-width="0.35"/>
<polygon points="147.6,107.3 128.5,118.8 128.5,116.2" fill="rgb(195,195,203)" stroke="rgba(34,42,48,0.22)" stroke-width="0.35"/>
<polygon points="134.8,112.3 145.5,105.7 145.5,105.8" fill="rgb(158,158,166)" stroke="rgba(34,42,48,0.22)" stroke-width="0.35"/>
<polygon points="38.5,95.4 113.3,128.1 113.3,130.7" fill="rgb(181,181,189)" stroke="rgba(34,42,48,0.22)" stroke-width="0.35"/>
<polygon points="66.2,112.5 92.0,122.4 70.3,112.2" fill="rgb(211,211,219)" stroke="rgba(34,42,48,0.22)" stroke-width="0.35"/>
<polygon points="145.5,86.9 145.5,105.8 145.5,105.7" fill="rgb(162,162,170)" stroke="rgba(34,42,48,0.22)" stroke-width="0.35"/>
<polygon points="181.6,89.1 113.3,128.1 113.6,130.4" fill="rgb(211,211,219)" stroke="rgba(34,42,48,0.22)" stroke-width="0.35"/>
<polygon points="113.0,94.1 38.5,61.1 40.6,59.9" fill="rgb(211,211,219)" stroke="rgba(34,42,48,0.22)" stroke-width="0.35"/>
<polygon points="113.5,128.6 180.9,88.3 113.5,129.3" fill="rgb(210,210,218)" stroke="rgba(34,42,48,0.22)" stroke-width="0.35"/>
<polygon points="113.0,91.5 40.6,59.9 40.6,57.3" fill="rgb(181,181,189)" stroke="rgba(34,42,48,0.22)" stroke-width="0.35"/>
<polygon points="91.8,117.3 75.0,109.4 77.4,108.1" fill="rgb(181,181,189)" stroke="rgba(34,42,48,0.22)" stroke-width="0.35"/>
<polygon points="100.2,119.7 74.4,109.7 96.1,119.9" fill="rgb(211,211,219)" stroke="rgba(34,42,48,0.22)" stroke-width="0.35"/>
<polygon points="149.2,69.6 146.7,71.0 146.7,68.4" fill="rgb(181,181,189)" stroke="rgba(34,42,48,0.22)" stroke-width="0.35"/>
<polygon points="181.6,89.1 113.6,130.4 113.5,129.3" fill="rgb(224,224,232)" stroke="rgba(34,42,48,0.22)" stroke-width="0.35"/>
<polygon points="113.5,103.0 36.4,67.7 37.1,66.9" fill="rgb(218,218,226)" stroke="rgba(34,42,48,0.22)" stroke-width="0.35"/>
<polygon points="113.5,102.2 37.1,66.9 37.2,66.2" fill="rgb(197,197,205)" stroke="rgba(34,42,48,0.22)" stroke-width="0.35"/>
<polygon points="146.7,71.0 149.2,69.6 149.2,72.2" fill="rgb(181,181,189)" stroke="rgba(34,42,48,0.22)" stroke-width="0.35"/>
<polygon points="147.5,106.9 132.8,115.9 134.8,112.3" fill="rgb(195,195,203)" stroke="rgba(34,42,48,0.22)" stroke-width="0.35"/>
<polygon points="180.8,87.0 113.5,128.6 113.5,127.9" fill="rgb(195,195,203)" stroke="rgba(34,42,48,0.22)" stroke-width="0.35"/>
<polygon points="149.2,72.2 147.1,73.5 146.7,71.0" fill="rgb(211,211,219)" stroke="rgba(34,42,48,0.22)" stroke-width="0.35"/>
<polygon points="113.0,91.5 195.7,61.5 177.0,52.7" fill="rgb(211,211,219)" stroke="rgba(34,42,48,0.22)" stroke-width="0.35"/>
<polygon points="147.5,106.9 128.5,116.2 132.8,115.9" fill="rgb(211,211,219)" stroke="rgba(34,42,48,0.22)" stroke-width="0.35"/>
<polygon points="113.5,101.6 37.2,66.2 37.2,65.6" fill="rgb(181,181,189)" stroke="rgba(34,42,48,0.22)" stroke-width="0.35"/>
<polygon points="180.9,86.5 113.5,127.9 113.5,127.5" fill="rgb(176,176,184)" stroke="rgba(34,42,48,0.22)" stroke-width="0.35"/>
<polygon points="113.5,101.6 37.2,65.6 37.1,65.1" fill="rgb(163,163,171)" stroke="rgba(34,42,48,0.22)" stroke-width="0.35"/>
<polygon points="75.0,85.7 77.4,108.1 75.0,109.4" fill="rgb(181,181,189)" stroke="rgba(34,42,48,0.22)" stroke-width="0.35"/>
<polygon points="147.5,106.9 145.5,86.9 147.5,83.2" fill="rgb(195,195,203)" stroke="rgba(34,42,48,0.22)" stroke-width="0.35"/>
<polygon points="113.6,104.1 34.4,68.9 36.4,67.7" fill="rgb(211,211,219)" stroke="rgba(34,42,48,0.22)" stroke-width="0.35"/>
<polygon points="74.4,107.1 96.1,117.3 96.1,119.9" fill="rgb(181,181,189)" stroke="rgba(34,42,48,0.22)" stroke-width="0.35"/>
<polygon points="72.6,87.2 75.0,109.4 72.6,110.9" fill="rgb(195,195,203)" stroke="rgba(34,42,48,0.22)" stroke-width="0.35"/>
<polygon points="113.3,96.5 36.4,65.0 38.5,61.1" fill="rgb(215,215,223)" stroke="rgba(34,42,48,0.22)" stroke-width="0.35"/>
<polygon points="113.5,101.2 37.1,65.1 36.4,65.0" fill="rgb(190,190,198)" stroke="rgba(34,42,48,0.22)" stroke-width="0.35"/>
<polygon points="181.6,86.5 113.5,127.5 113.6,127.8" fill="rgb(184,184,192)" stroke="rgba(34,42,48,0.22)" stroke-width="0.35"/>
<polygon points="88.1,113.0 77.4,108.1 77.5,108.0" fill="rgb(168,168,176)" stroke="rgba(34,42,48,0.22)" stroke-width="0.35"/>
<polygon points="36.4,94.0 113.6,130.4 113.3,128.1" fill="rgb(211,211,219)" stroke="rgba(34,42,48,0.22)" stroke-width="0.35"/>
<polygon points="145.5,105.7 134.8,112.3 136.2,111.3" fill="rgb(158,158,166)" stroke="rgba(34,42,48,0.22)" stroke-width="0.35"/>
<polygon points="147.1,73.5 149.2,72.2 149.4,74.6" fill="rgb(211,211,219)" stroke="rgba(34,42,48,0.22)" stroke-width="0.35"/>
<polygon points="37.1,93.2 113.5,128.6 113.5,129.3" fill="rgb(197,197,205)" stroke="rgba(34,42,48,0.22)" stroke-width="0.35"/>
<polygon points="150.3,84.6 150.3,108.3 147.5,83.2" fill="rgb(181,181,189)" stroke="rgba(34,42,48,0.22)" stroke-width="0.35"/>
<polygon points="156.4,109.5 133.2,121.1 133.7,123.3" fill="rgb(211,211,219)" stroke="rgba(34,42,48,0.22)" stroke-width="0.35"/>
<polygon points="77.4,89.2 77.5,108.0 77.4,108.1" fill="rgb(157,157,165)" stroke="rgba(34,42,48,0.22)" stroke-width="0.35"/>
<polygon points="37.2,92.5 113.5,127.9 113.5,128.6" fill="rgb(181,181,189)" stroke="rgba(34,42,48,0.22)" stroke-width="0.35"/>
<polygon points="36.4,94.0 113.5,129.3 113.6,130.4" fill="rgb(218,218,226)" stroke="rgba(34,42,48,0.22)" stroke-width="0.35"/>
<polygon points="96.1,117.3 75.0,109.4 91.8,117.3" fill="rgb(211,211,219)" stroke="rgba(34,42,48,0.22)" stroke-width="0.35"/>
<polygon points="145.5,86.9 145.5,105.7 145.5,88.5" fill="rgb(162,162,170)" stroke="rgba(34,42,48,0.22)" stroke-width="0.35"/>
<polygon points="37.1,91.4 113.5,127.5 113.5,127.9" fill="rgb(163,163,171)" stroke="rgba(34,42,48,0.22)" stroke-width="0.35"/>
<polygon points="149.4,74.6 147.6,78.3 147.1,73.5" fill="rgb(213,213,221)" stroke="rgba(34,42,48,0.22)" stroke-width="0.35"/>
<polygon points="184.0,87.6 113.6,127.8 113.9,130.2" fill="rgb(211,211,219)" stroke="rgba(34,42,48,0.22)" stroke-width="0.35"/>
<polygon points="74.2,73.5 72.1,72.2 74.2,70.9" fill="rgb(195,195,203)" stroke="rgba(34,42,48,0.22)" stroke-width="0.35"/>
<polygon points="152.3,83.1 147.6,80.9 147.6,78.3" fill="rgb(181,181,189)" stroke="rgba(34,42,48,0.22)" stroke-width="0.35"/>
<polygon points="91.8,117.3 77.4,108.1 89.4,113.8" fill="rgb(181,181,189)" stroke="rgba(34,42,48,0.22)" stroke-width="0.35"/>
<polygon points="72.1,72.2 74.2,73.5 72.0,74.8" fill="rgb(195,195,203)" stroke="rgba(34,42,48,0.22)" stroke-width="0.35"/>
<polygon points="77.4,108.1 88.1,113.0 89.4,113.8" fill="rgb(168,168,176)" stroke="rgba(34,42,48,0.22)" stroke-width="0.35"/>
<polygon points="36.4,91.4 113.6,127.8 113.5,127.5" fill="rgb(190,190,198)" stroke="rgba(34,42,48,0.22)" stroke-width="0.35"/>
<polygon points="74.5,75.9 72.0,74.8 74.2,73.5" fill="rgb(211,211,219)" stroke="rgba(34,42,48,0.22)" stroke-width="0.35"/>
<polygon points="152.3,83.1 147.5,83.2 147.6,80.9" fill="rgb(211,211,219)" stroke="rgba(34,42,48,0.22)" stroke-width="0.35"/>
<polygon points="124.4,118.8 133.2,121.1 128.5,118.8" fill="rgb(211,211,219)" stroke="rgba(34,42,48,0.22)" stroke-width="0.35"/>
<polygon points="133.7,125.9 124.4,118.8 124.4,121.5" fill="rgb(181,181,189)" stroke="rgba(34,42,48,0.22)" stroke-width="0.35"/>
<polygon points="147.6,78.3 149.4,74.6 152.3,80.6" fill="rgb(213,213,221)" stroke="rgba(34,42,48,0.22)" stroke-width="0.35"/>
<polygon points="66.2,112.5 91.9,124.7 92.0,122.4" fill="rgb(211,211,219)" stroke="rgba(34,42,48,0.22)" stroke-width="0.35"/>
<polygon points="75.0,109.4 72.6,87.2 75.0,85.7" fill="rgb(195,195,203)" stroke="rgba(34,42,48,0.22)" stroke-width="0.35"/>
<polygon points="133.2,121.1 128.5,116.2 128.5,118.8" fill="rgb(181,181,189)" stroke="rgba(34,42,48,0.22)" stroke-width="0.35"/>
<polygon points="136.2,111.3 136.2,94.1 145.5,105.7" fill="rgb(195,195,203)" stroke="rgba(34,42,48,0.22)" stroke-width="0.35"/>
<polygon points="24.1,67.3 113.0,91.5 40.6,57.3" fill="rgb(211,211,219)" stroke="rgba(34,42,48,0.22)" stroke-width="0.35"/>
<polygon points="147.6,78.3 152.3,80.6 152.3,83.1" fill="rgb(180,180,188)" stroke="rgba(34,42,48,0.22)" stroke-width="0.35"/>
<polygon points="77.4,108.1 75.0,85.7 77.4,89.2" fill="rgb(181,181,189)" stroke="rgba(34,42,48,0.22)" stroke-width="0.35"/>
<polygon points="88.1,113.0 77.5,108.0 77.5,90.7" fill="rgb(181,181,189)" stroke="rgba(34,42,48,0.22)" stroke-width="0.35"/>
<polygon points="72.4,77.2 72.0,74.8 74.5,75.9" fill="rgb(211,211,219)" stroke="rgba(34,42,48,0.22)" stroke-width="0.35"/>
<polygon points="145.5,105.7 136.2,94.1 145.5,88.5" fill="rgb(195,195,203)" stroke="rgba(34,42,48,0.22)" stroke-width="0.35"/>
<polygon points="133.2,118.4 132.8,115.9 128.5,116.2" fill="rgb(211,211,219)" stroke="rgba(34,42,48,0.22)" stroke-width="0.35"/>
<polygon points="34.4,92.6 113.9,130.2 113.6,127.8" fill="rgb(211,211,219)" stroke="rgba(34,42,48,0.22)" stroke-width="0.35"/>
<polygon points="147.5,83.2 152.3,83.1 150.3,84.6" fill="rgb(211,211,219)" stroke="rgba(34,42,48,0.22)" stroke-width="0.35"/>
<polygon points="77.5,108.0 77.4,89.2 77.5,90.7" fill="rgb(157,157,165)" stroke="rgba(34,42,48,0.22)" stroke-width="0.35"/>
<polygon points="132.8,115.9 133.2,118.4 135.6,117.2" fill="rgb(211,211,219)" stroke="rgba(34,42,48,0.22)" stroke-width="0.35"/>
<polygon points="91.9,124.7 100.2,122.3 100.2,119.7" fill="rgb(195,195,203)" stroke="rgba(34,42,48,0.22)" stroke-width="0.35"/>
<polygon points="128.5,116.2 133.2,121.1 133.2,118.4" fill="rgb(181,181,189)" stroke="rgba(34,42,48,0.22)" stroke-width="0.35"/>
<polygon points="74.4,80.8 72.4,77.2 74.5,75.9" fill="rgb(224,224,232)" stroke="rgba(34,42,48,0.22)" stroke-width="0.35"/>
<polygon points="124.4,118.8 133.7,123.3 133.2,121.1" fill="rgb(211,211,219)" stroke="rgba(34,42,48,0.22)" stroke-width="0.35"/>
<polygon points="96.1,117.3 92.0,122.4 96.1,119.9" fill="rgb(195,195,203)" stroke="rgba(34,42,48,0.22)" stroke-width="0.35"/>
<polygon points="119.9,87.4 146.7,68.4 146.7,71.0" fill="rgb(195,195,203)" stroke="rgba(34,42,48,0.22)" stroke-width="0.35"/>
<polygon points="96.1,119.9 91.9,124.7 100.2,119.7" fill="rgb(211,211,219)" stroke="rgba(34,42,48,0.22)" stroke-width="0.35"/>
<polygon points="133.7,123.3 124.4,118.8 133.7,125.9" fill="rgb(181,181,189)" stroke="rgba(34,42,48,0.22)" stroke-width="0.35"/>
<polygon points="70.3,85.9 74.4,80.8 74.4,83.4" fill="rgb(195,195,203)" stroke="rgba(34,42,48,0.22)" stroke-width="0.35"/>
<polygon points="124.4,87.2 146.7,71.0 147.1,73.5" fill="rgb(211,211,219)" stroke="rgba(34,42,48,0.22)" stroke-width="0.35"/>
<polygon points="134.8,112.3 136.2,94.1 136.2,111.3" fill="rgb(204,204,212)" stroke="rgba(34,42,48,0.22)" stroke-width="0.35"/>
<polygon points="96.1,117.3 91.8,117.3 92.0,119.8" fill="rgb(211,211,219)" stroke="rgba(34,42,48,0.22)" stroke-width="0.35"/>
<polygon points="75.0,85.7 70.3,85.9 74.4,83.4" fill="rgb(211,211,219)" stroke="rgba(34,42,48,0.22)" stroke-width="0.35"/>
<polygon points="132.8,115.9 134.8,93.3 134.8,112.3" fill="rgb(195,195,203)" stroke="rgba(34,42,48,0.22)" stroke-width="0.35"/>
<polygon points="128.5,92.5 147.6,78.3 147.6,80.9" fill="rgb(195,195,203)" stroke="rgba(34,42,48,0.22)" stroke-width="0.35"/>
<polygon points="70.3,83.3 72.4,77.2 74.4,80.8" fill="rgb(224,224,232)" stroke="rgba(34,42,48,0.22)" stroke-width="0.35"/>
<polygon points="100.2,122.3 91.9,124.7 91.9,127.3" fill="rgb(195,195,203)" stroke="rgba(34,42,48,0.22)" stroke-width="0.35"/>
<polygon points="92.0,119.8 91.8,117.3 89.3,118.8" fill="rgb(211,211,219)" stroke="rgba(34,42,48,0.22)" stroke-width="0.35"/>
<polygon points="96.1,117.3 92.0,119.8 92.0,122.4" fill="rgb(195,195,203)" stroke="rgba(34,42,48,0.22)" stroke-width="0.35"/>
<polygon points="91.9,124.7 96.1,119.9 92.0,122.4" fill="rgb(211,211,219)" stroke="rgba(34,42,48,0.22)" stroke-width="0.35"/>
<polygon points="128.5,89.9 147.1,73.5 147.6,78.3" fill="rgb(225,225,233)" stroke="rgba(34,42,48,0.22)" stroke-width="0.35"/>
<polygon points="147.5,83.2 128.5,92.5 147.6,80.9" fill="rgb(211,211,219)" stroke="rgba(34,42,48,0.22)" stroke-width="0.35"/>
<polygon points="193.3,63.0 115.0,113.3 193.3,65.7" fill="rgb(195,195,203)" stroke="rgba(34,42,48,0.22)" stroke-width="0.35"/>
<polygon points="134.8,93.3 147.5,83.2 145.5,86.9" fill="rgb(195,195,203)" stroke="rgba(34,42,48,0.22)" stroke-width="0.35"/>
<polygon points="115.0,113.3 198.0,70.5 193.3,65.7" fill="rgb(224,224,232)" stroke="rgba(34,42,48,0.22)" stroke-width="0.35"/>
<polygon points="146.7,68.4 122.3,85.9 149.2,69.6" fill="rgb(211,211,219)" stroke="rgba(34,42,48,0.22)" stroke-width="0.35"/>
<polygon points="74.4,80.8 70.3,85.9 70.3,83.3" fill="rgb(194,194,202)" stroke="rgba(34,42,48,0.22)" stroke-width="0.35"/>
<polygon points="134.8,93.3 145.5,86.9 145.5,88.5" fill="rgb(224,224,232)" stroke="rgba(34,42,48,0.22)" stroke-width="0.35"/>
<polygon points="104.7,87.9 74.2,73.5 74.2,70.9" fill="rgb(181,181,189)" stroke="rgba(34,42,48,0.22)" stroke-width="0.35"/>
<polygon points="72.6,87.2 70.3,85.9 75.0,85.7" fill="rgb(211,211,219)" stroke="rgba(34,42,48,0.22)" stroke-width="0.35"/>
<polygon points="74.2,73.5 100.2,88.1 74.5,75.9" fill="rgb(211,211,219)" stroke="rgba(34,42,48,0.22)" stroke-width="0.35"/>
<polygon points="89.4,94.9 89.4,113.8 88.1,113.0" fill="rgb(203,203,211)" stroke="rgba(34,42,48,0.22)" stroke-width="0.35"/>
<polygon points="195.7,64.1 115.0,110.6 193.3,63.0" fill="rgb(211,211,219)" stroke="rgba(34,42,48,0.22)" stroke-width="0.35"/>
<polygon points="135.6,93.5 132.8,115.9 135.6,117.2" fill="rgb(181,181,189)" stroke="rgba(34,42,48,0.22)" stroke-width="0.35"/>
<polygon points="96.1,93.6 74.4,83.4 74.4,80.8" fill="rgb(181,181,189)" stroke="rgba(34,42,48,0.22)" stroke-width="0.35"/>
<polygon points="91.8,93.6 91.8,117.3 89.4,113.8" fill="rgb(181,181,189)" stroke="rgba(34,42,48,0.22)" stroke-width="0.35"/>
<polygon points="88.1,95.7 88.1,113.0 77.5,90.7" fill="rgb(181,181,189)" stroke="rgba(34,42,48,0.22)" stroke-width="0.35"/>
<polygon points="134.8,112.3 134.8,93.3 136.2,94.1" fill="rgb(204,204,212)" stroke="rgba(34,42,48,0.22)" stroke-width="0.35"/>
<polygon points="74.4,83.4 91.8,93.6 75.0,85.7" fill="rgb(211,211,219)" stroke="rgba(34,42,48,0.22)" stroke-width="0.35"/>
<polygon points="34.4,92.6 113.9,106.5 113.9,130.2" fill="rgb(181,181,189)" stroke="rgba(34,42,48,0.22)" stroke-width="0.35"/>
<polygon points="102.6,86.6 74.2,70.9 72.1,72.2" fill="rgb(211,211,219)" stroke="rgba(34,42,48,0.22)" stroke-width="0.35"/>
<polygon points="75.0,85.7 89.4,94.9 77.4,89.2" fill="rgb(181,181,189)" stroke="rgba(34,42,48,0.22)" stroke-width="0.35"/>
<polygon points="91.8,93.6 89.3,118.8 91.8,117.3" fill="rgb(195,195,203)" stroke="rgba(34,42,48,0.22)" stroke-width="0.35"/>
<polygon points="100.2,88.1 74.4,80.8 74.5,75.9" fill="rgb(215,215,223)" stroke="rgba(34,42,48,0.22)" stroke-width="0.35"/>
<polygon points="77.4,89.2 88.1,95.7 77.5,90.7" fill="rgb(214,214,222)" stroke="rgba(34,42,48,0.22)" stroke-width="0.35"/>
<polygon points="134.8,93.3 145.5,88.5 136.2,94.1" fill="rgb(224,224,232)" stroke="rgba(34,42,48,0.22)" stroke-width="0.35"/>
<polygon points="195.7,61.5 115.3,113.0 195.7,64.1" fill="rgb(195,195,203)" stroke="rgba(34,42,48,0.22)" stroke-width="0.35"/>
<polygon points="132.8,115.9 132.8,92.2 134.8,93.3" fill="rgb(195,195,203)" stroke="rgba(34,42,48,0.22)" stroke-width="0.35"/>
<polygon points="147.5,83.2 134.8,93.3 132.8,92.2" fill="rgb(195,195,203)" stroke="rgba(34,42,48,0.22)" stroke-width="0.35"/>
<polygon points="89.4,94.9 88.1,113.0 88.1,95.7" fill="rgb(203,203,211)" stroke="rgba(34,42,48,0.22)" stroke-width="0.35"/>
<polygon points="184.0,63.9 113.9,130.2 113.9,106.5" fill="rgb(195,195,203)" stroke="rgba(34,42,48,0.22)" stroke-width="0.35"/>
<polygon points="146.7,71.0 124.4,87.2 119.9,87.4" fill="rgb(211,211,219)" stroke="rgba(34,42,48,0.22)" stroke-width="0.35"/>
<polygon points="177.0,52.7 113.0,94.1 113.0,91.5" fill="rgb(195,195,203)" stroke="rgba(34,42,48,0.22)" stroke-width="0.35"/>
<polygon points="147.5,83.2 132.8,92.2 128.5,92.5" fill="rgb(211,211,219)" stroke="rgba(34,42,48,0.22)" stroke-width="0.35"/>
<polygon points="147.6,78.3 128.5,92.5 128.5,89.9" fill="rgb(195,195,203)" stroke="rgba(34,42,48,0.22)" stroke-width="0.35"/>
<polygon points="132.8,115.9 135.6,93.5 132.8,92.2" fill="rgb(181,181,189)" stroke="rgba(34,42,48,0.22)" stroke-width="0.35"/>
<polygon points="22.0,76.4 115.0,113.3 26.1,71.3" fill="rgb(218,218,226)" stroke="rgba(34,42,48,0.22)" stroke-width="0.35"/>
<polygon points="77.4,89.2 89.4,94.9 88.1,95.7" fill="rgb(214,214,222)" stroke="rgba(34,42,48,0.22)" stroke-width="0.35"/>
<polygon points="91.8,93.6 89.4,113.8 89.4,94.9" fill="rgb(181,181,189)" stroke="rgba(34,42,48,0.22)" stroke-width="0.35"/>
<polygon points="147.1,73.5 128.5,89.9 124.4,87.2" fill="rgb(225,225,233)" stroke="rgba(34,42,48,0.22)" stroke-width="0.35"/>
<polygon points="115.0,110.6 26.1,68.7 26.1,71.3" fill="rgb(181,181,189)" stroke="rgba(34,42,48,0.22)" stroke-width="0.35"/>
<polygon points="179.3,56.4 113.3,96.5 113.0,94.1" fill="rgb(211,211,219)" stroke="rgba(34,42,48,0.22)" stroke-width="0.35"/>
<polygon points="113.5,102.2 180.9,62.0 113.5,103.0" fill="rgb(210,210,218)" stroke="rgba(34,42,48,0.22)" stroke-width="0.35"/>
<polygon points="146.7,68.4 119.9,87.4 119.9,84.7" fill="rgb(195,195,203)" stroke="rgba(34,42,48,0.22)" stroke-width="0.35"/>
<polygon points="181.6,62.8 113.6,104.1 113.5,103.0" fill="rgb(224,224,232)" stroke="rgba(34,42,48,0.22)" stroke-width="0.35"/>
<polygon points="180.8,60.7 113.5,102.2 113.5,101.6" fill="rgb(195,195,203)" stroke="rgba(34,42,48,0.22)" stroke-width="0.35"/>
<polygon points="74.4,83.4 96.1,93.6 91.8,93.6" fill="rgb(211,211,219)" stroke="rgba(34,42,48,0.22)" stroke-width="0.35"/>
<polygon points="75.0,85.7 91.8,93.6 89.4,94.9" fill="rgb(181,181,189)" stroke="rgba(34,42,48,0.22)" stroke-width="0.35"/>
<polygon points="115.0,110.6 24.1,69.9 26.1,68.7" fill="rgb(211,211,219)" stroke="rgba(34,42,48,0.22)" stroke-width="0.35"/>
<polygon points="40.6,59.9 113.0,91.5 113.0,94.1" fill="rgb(181,181,189)" stroke="rgba(34,42,48,0.22)" stroke-width="0.35"/>
<polygon points="180.9,60.2 113.5,101.6 113.5,101.2" fill="rgb(176,176,184)" stroke="rgba(34,42,48,0.22)" stroke-width="0.35"/>
<polygon points="74.2,73.5 104.7,87.9 100.2,88.1" fill="rgb(211,211,219)" stroke="rgba(34,42,48,0.22)" stroke-width="0.35"/>
<polygon points="122.3,85.9 146.7,68.4 119.9,84.7" fill="rgb(211,211,219)" stroke="rgba(34,42,48,0.22)" stroke-width="0.35"/>
<polygon points="74.4,80.8 96.1,91.0 96.1,93.6" fill="rgb(181,181,189)" stroke="rgba(34,42,48,0.22)" stroke-width="0.35"/>
<polygon points="181.6,60.1 113.6,101.5 113.3,96.5" fill="rgb(225,225,233)" stroke="rgba(34,42,48,0.22)" stroke-width="0.35"/>
<polygon points="181.6,60.1 113.5,101.2 113.6,101.5" fill="rgb(184,184,192)" stroke="rgba(34,42,48,0.22)" stroke-width="0.35"/>
<polygon points="74.2,70.9 104.7,85.3 104.7,87.9" fill="rgb(181,181,189)" stroke="rgba(34,42,48,0.22)" stroke-width="0.35"/>
<polygon points="38.5,61.1 113.0,94.1 113.3,96.5" fill="rgb(211,211,219)" stroke="rgba(34,42,48,0.22)" stroke-width="0.35"/>
<polygon points="89.3,95.1 89.3,118.8 91.8,93.6" fill="rgb(195,195,203)" stroke="rgba(34,42,48,0.22)" stroke-width="0.35"/>
<polygon points="184.0,63.9 113.9,106.5 113.6,104.1" fill="rgb(211,211,219)" stroke="rgba(34,42,48,0.22)" stroke-width="0.35"/>
<polygon points="74.4,80.8 100.2,88.1 96.1,91.0" fill="rgb(215,215,223)" stroke="rgba(34,42,48,0.22)" stroke-width="0.35"/>
<polygon points="37.1,66.9 113.5,102.2 113.5,103.0" fill="rgb(197,197,205)" stroke="rgba(34,42,48,0.22)" stroke-width="0.35"/>
<polygon points="37.2,66.2 113.5,101.6 113.5,102.2" fill="rgb(181,181,189)" stroke="rgba(34,42,48,0.22)" stroke-width="0.35"/>
<polygon points="36.4,67.7 113.5,103.0 113.6,104.1" fill="rgb(218,218,226)" stroke="rgba(34,42,48,0.22)" stroke-width="0.35"/>
<polygon points="104.7,85.3 74.2,70.9 102.6,86.6" fill="rgb(211,211,219)" stroke="rgba(34,42,48,0.22)" stroke-width="0.35"/>
<polygon points="37.1,65.1 113.5,101.2 113.5,101.6" fill="rgb(163,163,171)" stroke="rgba(34,42,48,0.22)" stroke-width="0.35"/>
<polygon points="24.1,69.9 115.3,110.4 24.1,67.3" fill="rgb(181,181,189)" stroke="rgba(34,42,48,0.22)" stroke-width="0.35"/>
<polygon points="36.4,65.0 113.3,96.5 113.6,101.5" fill="rgb(215,215,223)" stroke="rgba(34,42,48,0.22)" stroke-width="0.35"/>
<polygon points="36.4,65.0 113.6,101.5 113.5,101.2" fill="rgb(190,190,198)" stroke="rgba(34,42,48,0.22)" stroke-width="0.35"/>
<polygon points="133.2,94.7 128.5,92.5 132.8,92.2" fill="rgb(211,211,219)" stroke="rgba(34,42,48,0.22)" stroke-width="0.35"/>
<polygon points="34.4,68.9 113.6,104.1 113.9,106.5" fill="rgb(211,211,219)" stroke="rgba(34,42,48,0.22)" stroke-width="0.35"/>
<polygon points="133.2,94.7 132.8,92.2 135.6,93.5" fill="rgb(211,211,219)" stroke="rgba(34,42,48,0.22)" stroke-width="0.35"/>
<polygon points="133.2,94.7 128.5,89.9 128.5,92.5" fill="rgb(181,181,189)" stroke="rgba(34,42,48,0.22)" stroke-width="0.35"/>
<polygon points="92.0,96.1 91.8,93.6 96.1,93.6" fill="rgb(211,211,219)" stroke="rgba(34,42,48,0.22)" stroke-width="0.35"/>
<polygon points="124.4,87.2 128.5,89.9 126.7,88.3" fill="rgb(166,166,174)" stroke="rgba(34,42,48,0.22)" stroke-width="0.35"/>
<polygon points="128.5,89.9 133.2,94.7 133.3,92.1" fill="rgb(182,182,190)" stroke="rgba(34,42,48,0.22)" stroke-width="0.35"/>
<polygon points="96.1,91.0 92.0,96.1 96.1,93.6" fill="rgb(195,195,203)" stroke="rgba(34,42,48,0.22)" stroke-width="0.35"/>
<polygon points="91.8,93.6 92.0,96.1 89.3,95.1" fill="rgb(211,211,219)" stroke="rgba(34,42,48,0.22)" stroke-width="0.35"/>
<polygon points="128.5,89.9 133.3,92.1 126.7,88.3" fill="rgb(166,166,174)" stroke="rgba(34,42,48,0.22)" stroke-width="0.35"/>
<polygon points="122.4,88.6 119.9,87.4 124.4,87.2" fill="rgb(211,211,219)" stroke="rgba(34,42,48,0.22)" stroke-width="0.35"/>
<polygon points="124.4,87.2 126.7,88.3 122.4,88.6" fill="rgb(211,211,219)" stroke="rgba(34,42,48,0.22)" stroke-width="0.35"/>
<polygon points="98.1,89.3 96.1,91.0 100.2,88.1" fill="rgb(156,156,164)" stroke="rgba(34,42,48,0.22)" stroke-width="0.35"/>
<polygon points="102.5,89.2 100.2,88.1 104.7,87.9" fill="rgb(211,211,219)" stroke="rgba(34,42,48,0.22)" stroke-width="0.35"/>
<polygon points="119.9,87.4 122.3,85.9 119.9,84.7" fill="rgb(181,181,189)" stroke="rgba(34,42,48,0.22)" stroke-width="0.35"/>
<polygon points="122.3,85.9 119.9,87.4 122.4,88.6" fill="rgb(181,181,189)" stroke="rgba(34,42,48,0.22)" stroke-width="0.35"/>
<polygon points="96.1,91.0 91.8,93.5 92.0,96.1" fill="rgb(196,196,204)" stroke="rgba(34,42,48,0.22)" stroke-width="0.35"/>
<polygon points="96.1,91.0 98.1,89.3 91.8,93.5" fill="rgb(156,156,164)" stroke="rgba(34,42,48,0.22)" stroke-width="0.35"/>
<polygon points="100.2,88.1 102.5,89.2 98.1,89.3" fill="rgb(211,211,219)" stroke="rgba(34,42,48,0.22)" stroke-width="0.35"/>
<polygon points="102.6,86.6 104.7,87.9 104.7,85.3" fill="rgb(195,195,203)" stroke="rgba(34,42,48,0.22)" stroke-width="0.35"/>
<polygon points="104.7,87.9 102.6,86.6 102.5,89.2" fill="rgb(195,195,203)" stroke="rgba(34,42,48,0.22)" stroke-width="0.35"/>
<polygon points="195.7,61.5 113.0,91.5 115.3,110.4" fill="rgb(211,211,219)" stroke="rgba(34,42,48,0.22)" stroke-width="0.35"/>
<polygon points="24.1,67.3 115.3,110.4 113.0,91.5" fill="rgb(211,211,219)" stroke="rgba(34,42,48,0.22)" stroke-width="0.35"/>
<polygon points="193.3,63.0 115.0,110.6 115.0,113.3" fill="rgb(195,195,203)" stroke="rgba(34,42,48,0.22)" stroke-width="0.35"/>
<polygon points="115.5,120.6 198.0,70.5 115.0,113.3" fill="rgb(224,224,232)" stroke="rgba(34,42,48,0.22)" stroke-width="0.35"/>
<polygon points="195.7,64.1 115.3,113.0 115.0,110.6" fill="rgb(211,211,219)" stroke="rgba(34,42,48,0.22)" stroke-width="0.35"/>
<polygon points="26.1,71.3 115.0,113.3 115.0,110.6" fill="rgb(181,181,189)" stroke="rgba(34,42,48,0.22)" stroke-width="0.35"/>
<polygon points="115.0,113.3 22.0,76.4 115.5,120.6" fill="rgb(218,218,226)" stroke="rgba(34,42,48,0.22)" stroke-width="0.35"/>
<polygon points="195.7,61.5 115.3,110.4 115.3,113.0" fill="rgb(195,195,203)" stroke="rgba(34,42,48,0.22)" stroke-width="0.35"/>
<polygon points="24.1,69.9 115.0,110.6 115.3,113.0" fill="rgb(211,211,219)" stroke="rgba(34,42,48,0.22)" stroke-width="0.35"/>
<polygon points="115.3,110.4 24.1,69.9 115.3,113.0" fill="rgb(181,181,189)" stroke="rgba(34,42,48,0.22)" stroke-width="0.35"/></g>
  <text x="110" y="172" text-anchor="middle" font-family="ui-sans-serif, system-ui, sans-serif" font-size="12" fill="#27313a">Roof 2 Floor Corner</text>
</svg>
