<svg xmlns="http://www.w3.org/2000/svg" width="220" height="190" viewBox="0 0 220 190">
  <rect width="100%" height="100%" fill="#edf1f5"/>
  <g><polygon points="146.8,78.3 136.0,76.8 139.3,74.8" fill="rgb(211,211,219)" stroke="rgba(34,42,48,0.22)" stroke-width="0.35"/>
<polygon points="136.0,76.8 136.0,68.4 139.3,74.8" fill="rgb(195,195,203)" stroke="rgba(34,42,48,0.22)" stroke-width="0.35"/>
<polygon points="139.3,74.8 136.0,68.4 139.3,66.4" fill="rgb(195,195,203)" stroke="rgba(34,42,48,0.22)" stroke-width="0.35"/>
<polygon points="110.1,92.2 57.3,128.5 110.1,96.4" fill="rgb(195,195,203)" stroke="rgba(34,42,48,0.22)" stroke-width="0.35"/>
<polygon points="143.5,80.4 136.0,76.8 146.8,78.3" fill="rgb(211,211,219)" stroke="rgba(34,42,48,0.22)" stroke-width="0.35"/>
<polygon points="57.3,124.3 110.1,92.2 107.6,91.0" fill="rgb(211,211,219)" stroke="rgba(34,42,48,0.22)" stroke-width="0.35"/>
<polygon points="75.8,76.9 79.6,70.3 79.6,78.7" fill="rgb(181,181,189)" stroke="rgba(34,42,48,0.22)" stroke-width="0.35"/>
<polygon points="73.0,82.7 75.8,76.9 79.6,78.7" fill="rgb(211,211,219)" stroke="rgba(34,42,48,0.22)" stroke-width="0.35"/>
<polygon points="79.6,70.3 75.8,76.9 75.8,68.5" fill="rgb(181,181,189)" stroke="rgba(34,42,48,0.22)" stroke-width="0.35"/>
<polygon points="75.8,76.9 73.0,82.7 69.2,81.0" fill="rgb(211,211,219)" stroke="rgba(34,42,48,0.22)" stroke-width="0.35"/>
<polygon points="107.6,74.5 54.7,123.1 107.6,91.0" fill="rgb(195,195,203)" stroke="rgba(34,42,48,0.22)" stroke-width="0.35"/>
<polygon points="136.0,76.8 143.5,71.9 136.0,68.4" fill="rgb(181,181,189)" stroke="rgba(34,42,48,0.22)" stroke-width="0.35"/>
<polygon points="143.5,71.9 136.0,76.8 143.5,80.4" fill="rgb(181,181,189)" stroke="rgba(34,42,48,0.22)" stroke-width="0.35"/>
<polygon points="143.5,71.9 139.3,66.4 136.0,68.4" fill="rgb(211,211,219)" stroke="rgba(34,42,48,0.22)" stroke-width="0.35"/>
<polygon points="146.8,78.3 143.5,71.9 143.5,80.4" fill="rgb(195,195,203)" stroke="rgba(34,42,48,0.22)" stroke-width="0.35"/>
<polygon points="79.6,70.3 73.0,82.7 79.6,78.7" fill="rgb(195,195,203)" stroke="rgba(34,42,48,0.22)" stroke-width="0.35"/>
<polygon points="139.3,66.4 143.5,71.9 146.8,69.9" fill="rgb(211,211,219)" stroke="rgba(34,42,48,0.22)" stroke-width="0.35"/>
<polygon points="143.5,71.9 146.8,78.3 146.8,69.9" fill="rgb(195,195,203)" stroke="rgba(34,42,48,0.22)" stroke-width="0.35"/>
<polygon points="69.2,72.5 79.6,70.3 75.8,68.5" fill="rgb(211,211,219)" stroke="rgba(34,42,48,0.22)" stroke-width="0.35"/>
<polygon points="73.0,74.3 69.2,81.0 73.0,82.7" fill="rgb(181,181,189)" stroke="rgba(34,42,48,0.22)" stroke-width="0.35"/>
<polygon points="79.6,70.3 73.0,74.3 73.0,82.7" fill="rgb(195,195,203)" stroke="rgba(34,42,48,0.22)" stroke-width="0.35"/>
<polygon points="69.2,81.0 73.0,74.3 69.2,72.5" fill="rgb(181,181,189)" stroke="rgba(34,42,48,0.22)" stroke-width="0.35"/>
<polygon points="79.6,70.3 69.2,72.5 73.0,74.3" fill="rgb(211,211,219)" stroke="rgba(34,42,48,0.22)" stroke-width="0.35"/>
<polygon points="56.3,106.0 107.6,74.5 109.2,73.8" fill="rgb(169,169,177)" stroke="rgba(34,42,48,0.22)" stroke-width="0.35"/>
<polygon points="56.3,105.4 109.2,73.3 107.3,72.4" fill="rgb(211,211,219)" stroke="rgba(34,42,48,0.22)" stroke-width="0.35"/>
<polygon points="109.2,73.3 56.3,106.0 109.2,73.8" fill="rgb(195,195,203)" stroke="rgba(34,42,48,0.22)" stroke-width="0.35"/>
<polygon points="57.3,124.3 107.6,91.0 54.7,123.1" fill="rgb(211,211,219)" stroke="rgba(34,42,48,0.22)" stroke-width="0.35"/>
<polygon points="110.1,92.2 57.3,124.3 57.3,128.5" fill="rgb(195,195,203)" stroke="rgba(34,42,48,0.22)" stroke-width="0.35"/>
<polygon points="107.3,35.8 54.5,104.5 107.3,72.4" fill="rgb(195,195,203)" stroke="rgba(34,42,48,0.22)" stroke-width="0.35"/>
<polygon points="107.6,74.5 54.7,106.7 54.7,123.1" fill="rgb(195,195,203)" stroke="rgba(34,42,48,0.22)" stroke-width="0.35"/>
<polygon points="107.6,74.5 56.3,106.0 54.7,106.7" fill="rgb(169,169,177)" stroke="rgba(34,42,48,0.22)" stroke-width="0.35"/>
<polygon points="56.3,105.4 107.3,72.4 54.5,104.5" fill="rgb(211,211,219)" stroke="rgba(34,42,48,0.22)" stroke-width="0.35"/>
<polygon points="109.2,73.3 56.3,105.4 56.3,106.0" fill="rgb(195,195,203)" stroke="rgba(34,42,48,0.22)" stroke-width="0.35"/>
<polygon points="107.3,27.6 173.9,51.9 113.9,23.6" fill="rgb(211,211,219)" stroke="rgba(34,42,48,0.22)" stroke-width="0.35"/>
<polygon points="167.3,64.3 107.3,27.6 107.3,36.0" fill="rgb(181,181,189)" stroke="rgba(34,42,48,0.22)" stroke-width="0.35"/>
<polygon points="100.7,40.0 167.3,64.3 107.3,36.0" fill="rgb(211,211,219)" stroke="rgba(34,42,48,0.22)" stroke-width="0.35"/>
<polygon points="55.4,68.4 107.3,35.8 108.3,36.3" fill="rgb(211,211,219)" stroke="rgba(34,42,48,0.22)" stroke-width="0.35"/>
<polygon points="108.3,35.2 55.4,68.4 108.3,36.3" fill="rgb(195,195,203)" stroke="rgba(34,42,48,0.22)" stroke-width="0.35"/>
<polygon points="94.1,52.5 160.7,76.8 100.7,48.5" fill="rgb(211,211,219)" stroke="rgba(34,42,48,0.22)" stroke-width="0.35"/>
<polygon points="87.5,64.9 154.1,89.3 94.1,60.9" fill="rgb(211,211,219)" stroke="rgba(34,42,48,0.22)" stroke-width="0.35"/>
<polygon points="100.7,48.5 160.7,68.4 100.7,40.0" fill="rgb(181,181,189)" stroke="rgba(34,42,48,0.22)" stroke-width="0.35"/>
<polygon points="80.9,77.4 147.5,101.7 87.5,73.4" fill="rgb(211,211,219)" stroke="rgba(34,42,48,0.22)" stroke-width="0.35"/>
<polygon points="57.3,66.1 108.3,35.2 110.1,34.0" fill="rgb(161,161,169)" stroke="rgba(34,42,48,0.22)" stroke-width="0.35"/>
<polygon points="94.1,60.9 154.1,80.8 94.1,52.5" fill="rgb(181,181,189)" stroke="rgba(34,42,48,0.22)" stroke-width="0.35"/>
<polygon points="108.3,31.0 55.4,64.2 108.3,32.0" fill="rgb(195,195,203)" stroke="rgba(34,42,48,0.22)" stroke-width="0.35"/>
<polygon points="55.4,63.1 108.3,31.0 107.3,30.5" fill="rgb(211,211,219)" stroke="rgba(34,42,48,0.22)" stroke-width="0.35"/>
<polygon points="74.3,89.8 140.9,114.2 80.9,85.8" fill="rgb(211,211,219)" stroke="rgba(34,42,48,0.22)" stroke-width="0.35"/>
<polygon points="107.3,27.6 54.5,62.7 107.3,30.5" fill="rgb(195,195,203)" stroke="rgba(34,42,48,0.22)" stroke-width="0.35"/>
<polygon points="87.5,73.4 147.5,93.3 87.5,64.9" fill="rgb(181,181,189)" stroke="rgba(34,42,48,0.22)" stroke-width="0.35"/>
<polygon points="58.2,66.6 110.1,34.0 111.1,34.4" fill="rgb(211,211,219)" stroke="rgba(34,42,48,0.22)" stroke-width="0.35"/>
<polygon points="58.2,65.5 111.1,33.4 108.3,32.0" fill="rgb(211,211,219)" stroke="rgba(34,42,48,0.22)" stroke-width="0.35"/>
<polygon points="67.7,102.3 134.3,126.6 74.3,98.3" fill="rgb(211,211,219)" stroke="rgba(34,42,48,0.22)" stroke-width="0.35"/>
<polygon points="111.1,33.4 58.2,66.6 111.1,34.4" fill="rgb(195,195,203)" stroke="rgba(34,42,48,0.22)" stroke-width="0.35"/>
<polygon points="80.9,85.8 140.9,105.7 80.9,77.4" fill="rgb(181,181,189)" stroke="rgba(34,42,48,0.22)" stroke-width="0.35"/>
<polygon points="74.3,98.3 134.3,118.2 74.3,89.8" fill="rgb(181,181,189)" stroke="rgba(34,42,48,0.22)" stroke-width="0.35"/>
<polygon points="121.0,151.5 61.1,114.8 61.1,123.2" fill="rgb(181,181,189)" stroke="rgba(34,42,48,0.22)" stroke-width="0.35"/>
<polygon points="121.0,151.5 61.1,123.2 54.5,127.2" fill="rgb(211,211,219)" stroke="rgba(34,42,48,0.22)" stroke-width="0.35"/>
<polygon points="67.7,110.7 127.7,130.6 67.7,102.3" fill="rgb(181,181,189)" stroke="rgba(34,42,48,0.22)" stroke-width="0.35"/>
<polygon points="121.0,143.1 67.7,110.7 61.1,114.8" fill="rgb(211,211,219)" stroke="rgba(34,42,48,0.22)" stroke-width="0.35"/>
<polygon points="107.3,35.8 54.5,68.0 54.5,104.5" fill="rgb(195,195,203)" stroke="rgba(34,42,48,0.22)" stroke-width="0.35"/>
<polygon points="160.7,68.4 100.7,48.5 160.7,76.8" fill="rgb(181,181,189)" stroke="rgba(34,42,48,0.22)" stroke-width="0.35"/>
<polygon points="173.9,51.9 107.3,27.6 167.3,55.9" fill="rgb(211,211,219)" stroke="rgba(34,42,48,0.22)" stroke-width="0.35"/>
<polygon points="107.3,27.6 167.3,64.3 167.3,55.9" fill="rgb(181,181,189)" stroke="rgba(34,42,48,0.22)" stroke-width="0.35"/>
<polygon points="154.1,80.8 94.1,60.9 154.1,89.3" fill="rgb(181,181,189)" stroke="rgba(34,42,48,0.22)" stroke-width="0.35"/>
<polygon points="167.3,64.3 100.7,40.0 160.7,68.4" fill="rgb(211,211,219)" stroke="rgba(34,42,48,0.22)" stroke-width="0.35"/>
<polygon points="107.3,35.8 55.4,68.4 54.5,68.0" fill="rgb(211,211,219)" stroke="rgba(34,42,48,0.22)" stroke-width="0.35"/>
<polygon points="147.5,93.3 87.5,73.4 147.5,101.7" fill="rgb(181,181,189)" stroke="rgba(34,42,48,0.22)" stroke-width="0.35"/>
<polygon points="160.7,76.8 94.1,52.5 154.1,80.8" fill="rgb(211,211,219)" stroke="rgba(34,42,48,0.22)" stroke-width="0.35"/>
<polygon points="108.3,35.2 55.4,67.3 55.4,68.4" fill="rgb(195,195,203)" stroke="rgba(34,42,48,0.22)" stroke-width="0.35"/>
<polygon points="140.9,105.7 80.9,85.8 140.9,114.2" fill="rgb(181,181,189)" stroke="rgba(34,42,48,0.22)" stroke-width="0.35"/>
<polygon points="154.1,89.3 87.5,64.9 147.5,93.3" fill="rgb(211,211,219)" stroke="rgba(34,42,48,0.22)" stroke-width="0.35"/>
<polygon points="108.3,35.2 57.3,66.1 55.4,67.3" fill="rgb(161,161,169)" stroke="rgba(34,42,48,0.22)" stroke-width="0.35"/>
<polygon points="134.3,118.2 74.3,98.3 134.3,126.6" fill="rgb(181,181,189)" stroke="rgba(34,42,48,0.22)" stroke-width="0.35"/>
<polygon points="147.5,101.7 80.9,77.4 140.9,105.7" fill="rgb(211,211,219)" stroke="rgba(34,42,48,0.22)" stroke-width="0.35"/>
<polygon points="127.7,130.6 67.7,110.7 127.7,139.1" fill="rgb(181,181,189)" stroke="rgba(34,42,48,0.22)" stroke-width="0.35"/>
<polygon points="55.4,63.1 107.3,30.5 54.5,62.7" fill="rgb(211,211,219)" stroke="rgba(34,42,48,0.22)" stroke-width="0.35"/>
<polygon points="108.3,31.0 55.4,63.1 55.4,64.2" fill="rgb(195,195,203)" stroke="rgba(34,42,48,0.22)" stroke-width="0.35"/>
<polygon points="127.7,139.1 67.7,110.7 121.0,143.1" fill="rgb(211,211,219)" stroke="rgba(34,42,48,0.22)" stroke-width="0.35"/>
<polygon points="140.9,114.2 74.3,89.8 134.3,118.2" fill="rgb(211,211,219)" stroke="rgba(34,42,48,0.22)" stroke-width="0.35"/>
<polygon points="58.2,65.5 108.3,32.0 55.4,64.2" fill="rgb(211,211,219)" stroke="rgba(34,42,48,0.22)" stroke-width="0.35"/>
<polygon points="110.1,34.0 58.2,66.6 57.3,66.1" fill="rgb(211,211,219)" stroke="rgba(34,42,48,0.22)" stroke-width="0.35"/>
<polygon points="107.3,27.6 54.5,59.7 54.5,62.7" fill="rgb(195,195,203)" stroke="rgba(34,42,48,0.22)" stroke-width="0.35"/>
<polygon points="134.3,126.6 67.7,102.3 127.7,130.6" fill="rgb(211,211,219)" stroke="rgba(34,42,48,0.22)" stroke-width="0.35"/>
<polygon points="111.1,33.4 58.2,65.5 58.2,66.6" fill="rgb(195,195,203)" stroke="rgba(34,42,48,0.22)" stroke-width="0.35"/>
<polygon points="121.0,143.1 61.1,114.8 121.0,151.5" fill="rgb(181,181,189)" stroke="rgba(34,42,48,0.22)" stroke-width="0.35"/>
<polygon points="54.5,127.2 114.4,155.6 121.0,151.5" fill="rgb(211,211,219)" stroke="rgba(34,42,48,0.22)" stroke-width="0.35"/></g>
  <text x="110" y="172" text-anchor="middle" font-family="ui-sans-serif, system-ui, sans-serif" font-size="12" fill="#27313a">Wall Stairs</text>
</svg>
